SplineFontDB: 3.0
FontName: Untitled1
FullName: Untitled1
FamilyName: Untitled1
Weight: Regular
Copyright: Copyright (c) 2018, Yuansheng Zhao
UComments: "2018-4-20: Created with FontForge (http://fontforge.org)"
Version: 001.000
ItalicAngle: 0
UnderlinePosition: -100
UnderlineWidth: 50
Ascent: 800
Descent: 200
InvalidEm: 0
LayerCount: 2
Layer: 0 0 "Back" 1
Layer: 1 0 "Fore" 0
XUID: [1021 70 263418660 21896]
OS2Version: 0
OS2_WeightWidthSlopeOnly: 0
OS2_UseTypoMetrics: 1
CreationTime: 1524202099
ModificationTime: 1524682694
OS2TypoAscent: 0
OS2TypoAOffset: 1
OS2TypoDescent: 0
OS2TypoDOffset: 1
OS2TypoLinegap: 0
OS2WinAscent: 0
OS2WinAOffset: 1
OS2WinDescent: 0
OS2WinDOffset: 1
HheadAscent: 0
HheadAOffset: 1
HheadDescent: 0
HheadDOffset: 1
OS2Vendor: 'PfEd'
DEI: 91125
Encoding: UnicodeFull
UnicodeInterp: none
NameList: AGL For New Fonts
DisplaySize: -48
AntiAlias: 1
FitToEm: 0
WinInfo: 189 27 9
BeginChars: 1114112 579

StartChar: exclam
Encoding: 33 33 0
Width: 984
Flags: W
HStem: -21 55<214.322 341.148> 41 55<487.172 591.799> 448 60<333.754 477.299> 679 20G<783.888 818.888> 679 20G<783.888 818.888>
LayerCount: 2
Fore
SplineSet
863.734375 691 m 1xf0
 877.659179688 674 l 1
 825.676757812 492 794.616210938 332 750.0234375 105 c 1
 779.9453125 114 797.098632812 122 822.404296875 138 c 1
 853.33203125 95 l 1
 824.565429688 68 774.028320312 53 737.875 45 c 1
 730.264648438 0 l 1
 583.264648438 0 l 1
 591.798828125 41 l 1
 549.798828125 41 499.490234375 51 450.103515625 70 c 1
 409.801757812 15 357.112304688 -21 284.112304688 -21 c 0
 192.112304688 -21 120.18359375 35 102.869140625 110 c 0
 91.0947265625 161 118.859375 201 165.859375 201 c 0
 209.859375 201 244.170898438 165 252.020507812 131 c 0
 258.715820312 102 242.411132812 73 204.02734375 66 c 1
 204.2578125 65 l 1
 217.413085938 47 243.415039062 34 272.415039062 34 c 0
 315.415039062 34 354.874023438 58 388.639648438 98 c 1
 304.01953125 144 230.627929688 215 209.618164062 306 c 0
 181.453125 428 277.983398438 508 383.983398438 508 c 0
 441.983398438 508 506.754882812 483 560.682617188 440 c 1
 587.907226562 504 617.28515625 563 653.588867188 605 c 0
 699.353515625 658 752.887695312 699 814.887695312 699 c 0
 822.887695312 699 840.349609375 697 863.734375 691 c 1xf0
746.434570312 610 m 1
 743.97265625 612 l 1
 688.669921875 570 656.13671875 516 606.071289062 395 c 1
 625.612304688 371 642.615234375 345 654.309570312 316 c 1
 656.309570312 316 l 1
 681.530273438 419 713.2890625 524 746.434570312 610 c 1
623.01171875 222 m 0
 613.315429688 264 598.234375 299 580.30859375 329 c 1
 555.083984375 265 536.705078125 206 482.791015625 119 c 1
 523.25390625 104 566.100585938 96 605.100585938 96 c 1
 615.328125 134 622.170898438 165 627.70703125 193 c 0
 627.62890625 202 624.627929688 215 623.01171875 222 c 0
536.611328125 384 m 1
 490.221679688 429 436.834960938 448 395.834960938 448 c 0
 331.834960938 448 280.071289062 395 299.002929688 313 c 0
 316.086914062 239 365.015625 183 425.327148438 147 c 1
 471.704101562 219 504.7734375 301 536.611328125 384 c 1
EndSplineSet
EndChar

StartChar: quotedbl
Encoding: 34 34 1
Width: 984
Flags: W
HStem: -6 35<214.535 330.12> 37.9629 38.7383<508.345 787.576> 459 49<336.035 481.702> 679 20G<783.888 818.888> 679 20G<783.888 818.888>
LayerCount: 2
Fore
SplineSet
712 76.701171875 m 3xe0
 764.05218662 76.701171875 803.702148438 103.69140625 837.404296875 125 c 1
 853.33203125 95 l 1
 815.309232989 59.3122406792 761.324738738 37.962890625 700 37.962890625 c 3
 587.109074492 37.962890625 511.138671875 40.1953125 423 80.3466796875 c 0
 323.348632812 125.743164062 233.702809219 201.681715428 209.618164062 306 c 0
 181.453125 428 277.983398438 508 383.983398438 508 c 0
 454.2356752 508 535.52734375 467.9140625 587 416.881835938 c 0
 615.826171875 388.302734375 648.34765625 340.583007812 664.309570312 301 c 1
 653.70703125 204 l 1
 648.147460938 268.420898438 597.39453125 339.563476562 568.446289062 376 c 0
 526.546875 428.736328125 450.4765625 459 394.834960938 459 c 0
 330.834960938 459 283.071289062 395 302.002929688 313 c 0
 322.030273438 226.250976562 379.086914062 152.53125 454 116.028320312 c 0
 531.95703125 78.04296875 609.910129529 76.701171875 712 76.701171875 c 3xe0
740.264648438 0 m 1
 583.264648438 0 l 1
 609.153794594 124.376920954 625.01009173 185.926491218 656.309570312 316 c 0
 687.920701239 447.368664989 720.2578125 542.173828125 756.97265625 644 c 1
 693.974609375 600.712890625 645.266601562 542.7265625 597.361328125 420 c 0
 562.94921875 331.842773438 528.36328125 253.313476562 475.112304688 145 c 0
 441.903049808 77.4517580282 368.737304688 -6 284.112304688 -6 c 0
 192.112304688 -6 120.18359375 35 102.869140625 110 c 0
 91.0947265625 161 118.859375 201 165.859375 201 c 0
 209.859375 201 244.170898438 165 252.020507812 131 c 0
 258.715820312 102 232.411132812 73 194.02734375 66 c 1
 198.559570312 46.333984375 249.234375 29 272.415039062 29 c 0
 330.03125 29 375.600585938 79.5849609375 410.352539062 126 c 0
 472.094726562 208.461914062 506.531815739 314.022331198 549.076817104 413 c 0
 579.467636127 483.701899715 612.225385908 557.146318685 653.588867188 605 c 0
 699.353515625 658 752.887695312 699 814.887695312 699 c 0xf0
 822.887695312 699 850.349609375 697 873.734375 691 c 1
 887.659179688 674 l 1
 835.676757812 492 804.616210938 332 760.0234375 105 c 0
 752.931640625 70.505859375 745.852539062 35.998046875 740.264648438 0 c 1
EndSplineSet
EndChar

StartChar: Eth
Encoding: 208 208 2
Width: 662
Flags: W
HStem: -177 30<145.987 234.368> 447 20G<604.25 635.095> 608 52<376.721 556.465 587.074 669.153>
VStem: 616.556 18.5391<449.522 460.153>
LayerCount: 2
Fore
SplineSet
564.813476562 193 m 1
 583.506835938 177 l 1
 548.510742188 138 504.129882812 105 453.747070312 85 c 1
 418.913085938 -37 316.234375 -177 185.234375 -177 c 0
 137.234375 -177 101.231445312 -151 92.2275390625 -112 c 0
 81.376953125 -65 110.526367188 -18 186.291992188 22 c 0
 232.750976562 46 298.364257812 65 361.515625 86 c 1
 381.893554688 158 389.499023438 255 407.953125 331 c 1
 334.721679688 345 273.793945312 388 256.248046875 464 c 0
 224.387695312 602 365.998046875 660 479.998046875 660 c 0
 547.998046875 660 566.690429688 657 608.3828125 654 c 1
 639.765625 674 656.765625 674 669.765625 674 c 0
 680.765625 674 695.612304688 666 698.3828125 654 c 0
 708.310546875 611 649.46484375 606 605.46484375 606 c 1
 559.46875 567 531.09375 469 508.873046875 366 c 1
 556.102539062 378 591.9453125 409 616.555664062 467 c 1
 635.094726562 456 l 1
 615.255859375 386 566.721679688 345 501.72265625 332 c 1
 486.576171875 259 474.66015625 185 462.743164062 124 c 1
 499.280273438 139 533.663085938 159 564.813476562 193 c 1
556.6953125 605 m 1
 556.46484375 606 l 1
 543.233398438 607 528.002929688 608 513.002929688 608 c 0
 467.002929688 608 415.387695312 602 386.927734375 591 c 0
 333.775390625 570 283.857421875 522 299.556640625 454 c 0
 311.561523438 402 365.334960938 364 416.565429688 363 c 1
 443.940429688 461 484.240234375 542 556.6953125 605 c 1
349.443359375 43 m 1
 293.060546875 23 238.29296875 9 199.372070312 -13 c 0
 133.68359375 -49 128.225585938 -86 133.766601562 -110 c 0
 138.15234375 -129 156.30859375 -147 178.30859375 -147 c 0
 263.30859375 -147 312.993164062 -72 349.443359375 43 c 1
EndSplineSet
EndChar

StartChar: Ntilde
Encoding: 209 209 3
Width: 414
Flags: W
HStem: -200 38<-48.6179 30.7677> 622 31<211.593 272.256 382.47 459.649>
LayerCount: 2
Fore
SplineSet
-43 -200 m 0
 -103 -200 -132 -169 -132 -147 c 0
 -132 -119 -125 -102 -108 -102 c 0
 -97 -102 -81 -120 -60 -135 c 0
 -44 -147 -22 -162 0 -162 c 0
 39 -162 67 -134 106 -5 c 2
 275 551 l 2
 289 597 280 613 236 622 c 0
 216 626 211 633 211 642 c 0
 211 650 226 653 242 653 c 0
 292 653 306 650 349 650 c 0
 383 650 388 653 438 653 c 0
 454 653 461 650 461 642 c 0
 461 633 448 626 425 622 c 0
 376 613 365 597 350 551 c 2
 225 142 l 2
 161 -68 129 -94 91 -134 c 0
 54 -173 12 -200 -43 -200 c 0
EndSplineSet
EndChar

StartChar: Ograve
Encoding: 210 210 4
Width: 929
Flags: W
HStem: -12 30<182.478 318.178 685.25 755.896> 79 86<135.275 167.908> 306 54<561.787 605.953> 401 30<269.972 385.224> 517 132G<430.831 461.291 674.815 710.814> 548 50<483.494 606.448> 626 52<237.334 385.773> 646 41<835.349 854.414>
VStem: 96.5625 104.459<80.9106 150.032> 441.213 20.0781<496.087 511.138>
LayerCount: 2
Fore
SplineSet
694.12109375 669 m 1xf6c0
 710.814453125 653 l 1
 622.514648438 572 597.987304688 466 561.458984375 360 c 1
 576.458984375 360 590.920898438 358 606.69140625 346 c 1
 646.61328125 355 670.91796875 384 709.833007812 471 c 0
 771.434570312 607 818.96484375 687 871.96484375 687 c 0
 899.96484375 687 925.966796875 674 932.430664062 646 c 0
 938.202148438 621 928.8203125 601 900.8203125 601 c 0
 882.8203125 601 854.049804688 613 845.430664062 646 c 1
 844.430664062 646 l 1xf5c0
 828.893554688 631 821.74609375 571 806.05859375 522 c 0
 766.993164062 401 718.767578125 350 641.000976562 323 c 1
 641.462890625 321 l 1
 683.3125 287 702.853515625 263 710.010742188 232 c 0
 725.708984375 164 666.100585938 93 675.56640625 52 c 0
 680.415039062 31 695.416015625 18 715.416015625 18 c 0
 754.416015625 18 800.2578125 62 854.633789062 147 c 1
 877.096679688 132 l 1
 824.106445312 41 769.341796875 -12 708.341796875 -12 c 0
 661.341796875 -12 607.723632812 21 596.411132812 70 c 0
 578.171875 149 648.858398438 211 634.083007812 275 c 0
 632.004882812 284 625.92578125 306 586.92578125 306 c 0
 566.92578125 306 558.002929688 310 549.462890625 321 c 1
 486.875 42 382.03515625 -15 264.03515625 -15 c 0
 177.03515625 -15 109.029296875 37 96.5625 91 c 0
 87.7900390625 129 102.478515625 165 142.478515625 165 c 0
 168.478515625 165 194.327148438 144 201.021484375 115 c 0
 206.793945312 90 196.333984375 66 168.333984375 66 c 0
 159.333984375 66 144.641601562 69 136.333007812 79 c 1
 134.333007812 79 l 1
 145.490234375 48 194.877929688 16 254.877929688 16 c 0
 337.877929688 16 375.025390625 76 420.08984375 210 c 0
 469.690429688 359 483.912109375 449 583.59375 550 c 1
 581.901367188 553 l 1
 573.59375 550 557.055664062 548 547.055664062 548 c 0
 507.055664062 548 472.592773438 563 412.897460938 592 c 0
 371.280273438 612 331.047851562 626 303.047851562 626 c 0xf6c0
 239.047851562 626 196.129882812 578 208.366210938 525 c 0
 220.37109375 473 267.067382812 431 330.067382812 431 c 0
 383.067382812 431 420.44921875 464 441.212890625 517 c 1xf8c0
 461.291015625 508 l 1
 443.296875 443 401.993164062 401 334.993164062 401 c 0
 254.993164062 401 183.98828125 453 166.904296875 527 c 0
 149.588867188 602 205.04296875 678 309.04296875 678 c 0
 349.04296875 678 385.275390625 664 462.35546875 629 c 0
 501.51171875 611 533.512695312 598 555.512695312 598 c 0
 599.512695312 598 655.509765625 624 694.12109375 669 c 1xf6c0
EndSplineSet
EndChar

StartChar: Oacute
Encoding: 211 211 5
Width: 762
Flags: W
HStem: -5 29<7.84375 86.2952 217.533 276.641 397.032 457.421 608.519 676.641> 323 24<287.625 303.514> 622 31<201.593 262.933 368.534 448.556 562.355 604.84 714.464 814.13>
LayerCount: 2
Fore
SplineSet
31 -5 m 0
 15 -5 7 -2 7 6 c 0
 7 15 20 20 43 24 c 0
 92 33 114 51 129 101 c 2
 267 551 l 2
 281 597 270 613 226 622 c 0
 206 626 201 633 201 642 c 0
 201 650 216 653 232 653 c 0
 282 653 295 651 335 651 c 0
 370 651 376 653 426 653 c 0
 442 653 450 650 450 642 c 0
 450 633 436 626 413 622 c 0
 364 613 357 604 341 551 c 2
 285 360 l 2
 282 350 286 347 296 347 c 0
 316 347 336 362 363 385 c 2
 574 567 l 2
 591 582 605 594 605 605 c 0
 605 609 602 615 586 620 c 0
 571 625 562 631 562 640 c 0
 562 648 582 651 598 651 c 2
 648 651 l 2
 701 651 764 655 800 655 c 0
 812 655 817 651 817 644 c 0
 817 635 803 628 780 624 c 0
 731 615 674 597 619 558 c 0
 533 496 471 439 380 357 c 0
 375 352 375 346 379 339 c 0
 457 198 514 116 561 70 c 0
 592 40 619 33 652 24 c 0
 673 18 677 15 677 6 c 0
 677 -2 663 -5 647 -5 c 0
 592 -5 579 0 487 0 c 0
 464 0 462 -1 420 -1 c 0
 404 -1 397 2 397 10 c 0
 397 19 408 23 427 27 c 0
 466 36 467 40 448 72 c 2
 308 306 l 2
 301 318 280 323 275 323 c 0
 270 323 267 310 265 302 c 2
 211 110 l 2
 195 53 208 33 252 24 c 0
 272 20 277 15 277 6 c 0
 277 -2 263 -5 247 -5 c 0
 197 -5 188 2 150 2 c 0
 104 2 81 -5 31 -5 c 0
EndSplineSet
EndChar

StartChar: Ocircumflex
Encoding: 212 212 6
Width: 866
Flags: W
HStem: -9 30<152.817 334.498 451.717 647.367> 79 30<141.916 271.242> 312 30<353.151 522.849> 624 21G<498.201 537.123> 632 37<727.116 818.761> 657 30<287.008 467.613>
LayerCount: 2
Fore
SplineSet
537.123046875 643 m 1xe4
 529.509765625 624 l 1
 466.891601562 657 411.891601562 657 376.891601562 657 c 0xf4
 271.891601562 657 167.358398438 603 191.137695312 500 c 0
 214.455078125 399 327.615234375 342 469.615234375 342 c 0
 487.615234375 342 502.383789062 343 531.4609375 347 c 1
 550.684570312 411 561.91015625 462 580.751953125 506 c 0
 613.206054688 582 690.12109375 669 771.12109375 669 c 0xe8
 830.12109375 669 862.201171875 634 873.051757812 587 c 0
 893.368164062 499 795.611328125 381 627.692382812 333 c 1
 596.62890625 199 518.71875 73 440.567382812 39 c 1
 482.569335938 26 521.877929688 16 548.877929688 16 c 0
 644.877929688 16 721.02734375 63 781.787109375 155 c 1
 804.01953125 141 l 1
 740.260742188 36 656.03515625 -15 559.03515625 -15 c 0
 483.03515625 -15 431.571289062 0 388.108398438 15 c 1
 344.802734375 -1 296.649414062 -9 238.649414062 -9 c 0
 156.649414062 -9 107.5703125 13 98.56640625 52 c 0
 91.640625 82 126.407226562 109 193.407226562 109 c 0
 253.407226562 109 314.87109375 81 377.950195312 59 c 1
 423.100585938 93 485.783203125 194 522.848632812 315 c 1
 506.309570312 313 487.541015625 312 470.541015625 312 c 0
 346.541015625 312 182.228515625 361 149.213867188 504 c 0
 125.204101562 608 218.96484375 687 361.96484375 687 c 0
 404.96484375 687 471.350585938 681 537.123046875 643 c 1xe4
831.821289062 588 m 0
 825.587890625 615 804.663085938 632 772.663085938 632 c 0xe8
 691.663085938 632 649.0625 483 635.381835938 369 c 1
 667.303710938 378 699.37890625 395 728.9921875 414 c 0
 795.295898438 456 847.520507812 520 831.821289062 588 c 0
335.491210938 35 m 1
 335.260742188 36 l 1
 270.641601562 69 231.333007812 79 200.333007812 79 c 0
 181.333007812 79 134.256835938 75 139.104492188 54 c 0
 144.18359375 32 175.723632812 21 233.723632812 21 c 0
 272.723632812 21 307.03125 24 335.491210938 35 c 1
EndSplineSet
EndChar

StartChar: Otilde
Encoding: 213 213 7
Width: 583
Flags: W
HStem: -5 35<-4.98178 94.625 217.308 444.209> 622 31<214.633 278.483 385.325 491.821>
LayerCount: 2
Fore
SplineSet
16 -5 m 0
 0 -5 -8 -2 -8 6 c 0
 -8 15 5 20 28 24 c 0
 77 33 121 52 135 99 c 2
 276 560 l 2
 291 608 283 613 239 622 c 0
 219 626 214 633 214 642 c 0
 214 650 228 653 244 653 c 0
 294 653 307 648 348 648 c 0
 394 648 420 653 470 653 c 0
 486 653 493 650 493 642 c 0
 493 631 477 627 454 625 c 0
 402 620 365 606 353 567 c 2
 218 113 l 2
 203 62 210 30 260 30 c 2
 340 30 l 2
 413 30 455 46 481 72 c 0
 506 97 521 121 542 152 c 0
 548 160 550 162 558 162 c 0
 564 162 566 158 566 150 c 0
 566 132 533 39 515 11 c 0
 510 3 501 -5 492 -5 c 0
 341 -5 234 1 141 1 c 0
 92 1 66 -5 16 -5 c 0
EndSplineSet
EndChar

StartChar: Oslash
Encoding: 216 216 8
Width: 770
Flags: W
HStem: -15 29<161.776 234.799> 36 92<157.261 192.044> 640 47<773.672 806.19> 649 20G<503.122 547.66>
VStem: 101.258 107.537<37.5074 111.35>
LayerCount: 2
Fore
SplineSet
616.328125 131 m 1xd8
 617.328125 131 l 1
 640.091796875 184 659.620117188 290 678.609375 394 c 0
 697.291992188 495 720.512695312 598 757.5078125 650 c 0
 774.735351562 675 793.96484375 687 822.96484375 687 c 0
 852.96484375 687 878.889648438 670 885.584960938 641 c 0
 892.049804688 613 877.205078125 595 853.205078125 595 c 0
 835.205078125 595 803.204101562 608 795.81640625 640 c 1
 792.81640625 640 l 1xe8
 762.971679688 622 736.826171875 536 705.766601562 363 c 0
 681.625976562 225 650.795898438 64 576.573242188 -13 c 1
 556.573242188 -13 l 1
 558.02734375 63 544.40234375 161 517.00390625 297 c 0
 496.224609375 400 479.907226562 501 482.82421875 562 c 1
 481.592773438 563 l 1
 458.982421875 518 424.9140625 423 395.848632812 315 c 0
 333.178710938 84 287.03515625 -15 199.03515625 -15 c 0
 153.03515625 -15 110.954101562 20 101.2578125 62 c 0
 92.25390625 101 113.020507812 128 145.020507812 128 c 0
 176.020507812 128 202.791992188 103 208.794921875 77 c 0
 213.874023438 55 203.18359375 32 177.18359375 32 c 0
 172.18359375 32 165.953125 33 160.260742188 36 c 2
 157.260742188 36 l 1
 162.4921875 22 179.33984375 14 193.33984375 14 c 0
 268.33984375 14 314.790039062 129 362.541015625 312 c 0
 417.2890625 521 474.123046875 643 532.12109375 669 c 1
 547.66015625 658 l 1
 544.587890625 615 559.596679688 524 583.302734375 391 c 0
 601.388671875 291 613.936523438 202 616.328125 131 c 1xd8
EndSplineSet
EndChar

StartChar: Ugrave
Encoding: 217 217 9
Width: 820
Flags: W
HStem: -5 29<-19.5254 52.4935 170.739 239.367> 620 31<602.433 683.029 788.486 877.437> 625 33<146.414 239.548>
LayerCount: 2
Fore
SplineSet
4 -5 m 0xc0
 -12 -5 -20 -2 -20 6 c 0
 -20 15 -14 19 9 24 c 0
 72 38 91 63 101 95 c 2
 240 526 l 2
 259 586 261 620 185 625 c 0
 162 627 146 633 146 644 c 0
 146 657 164 658 171 658 c 0xa0
 225 658 266 653 300 653 c 0
 311 653 321 646 326 636 c 2
 555 154 l 2
 558 148 568 135 575 135 c 0
 580 135 582 140 588 155 c 0
 605 198 700 513 707 544 c 0
 718 591 693 610 629 620 c 0
 609 623 602 630 602 639 c 0
 602 647 619 651 635 651 c 0
 671 651 703 647 742 647 c 0
 781 647 800 653 857 653 c 0
 873 653 880 650 880 642 c 0
 880 633 866 624 843 622 c 0
 792 618 782 607 760 555 c 0
 750 531 623 158 610 113 c 0
 604 92 607 82 614 66 c 0
 622 47 636 41 647 33 c 0
 658 25 666 19 666 6 c 0
 666 0 662 0 658 0 c 0
 621 0 598 -5 581 -5 c 0
 560 -5 549 0 539 21 c 0
 467 172 390 369 312 515 c 0
 304 530 295 539 288 539 c 0
 281 539 270 527 264 505 c 0
 237 406 184 241 149 96 c 0
 140 58 160 33 211 23 c 0
 231 19 240 15 240 6 c 0
 240 -2 226 -5 210 -5 c 0
 160 -5 145 0 111 0 c 0
 70 0 54 -5 4 -5 c 0xc0
EndSplineSet
EndChar

StartChar: Uacute
Encoding: 218 218 10
Width: 642
Flags: W
HStem: -15 30<271.067 406.126> 506 36<397.9 510.085> 547 21G<578.014 613.017> 645 35<376.035 515.865>
LayerCount: 2
Fore
SplineSet
613.016601562 549 m 1
 593.478515625 547 l 1
 562.549804688 603 517.853515625 645 444.853515625 645 c 0
 274.853515625 645 142.115234375 332 184.133789062 150 c 0
 200.987304688 77 251.30078125 15 329.30078125 15 c 0
 415.30078125 15 473.604492188 57 518.521484375 118 c 0
 548.055664062 159 601.583984375 265 571.33984375 396 c 0
 554.255859375 470 499.944335938 506 453.944335938 506 c 0
 390.944335938 506 339.103515625 449 362.65234375 347 c 0
 368.423828125 322 379.2734375 288 413.893554688 242 c 1
 394.202148438 232 l 1
 350.197265625 284 336.346679688 331 329.189453125 362 c 0
 304.717773438 468 365.6328125 542 448.6328125 542 c 0
 512.6328125 542 597.868164062 502 622.33984375 396 c 0
 666.897460938 203 547.2265625 -15 338.2265625 -15 c 0
 222.2265625 -15 140.293945312 80 115.360351562 188 c 0
 56.2578125 444 202.7734375 680 440.7734375 680 c 0
 527.7734375 680 596.39453125 621 613.016601562 549 c 1
EndSplineSet
EndChar

StartChar: Ucircumflex
Encoding: 219 219 11
Width: 697
Flags: W
HStem: -14 31<225.188 361.837> 636 28<379.737 504.924>
VStem: 60 85<120.993 344.408> 590 85<296.566 527.326>
LayerCount: 2
Fore
SplineSet
285 -14 m 0
 129 -14 60 105 60 243 c 0
 60 435 200 664 450 664 c 0
 606 664 675 545 675 407 c 0
 675 215 535 -14 285 -14 c 0
288 17 m 0
 469 17 590 251 590 445 c 0
 590 539 549 636 447 636 c 0
 274 636 145 399 145 205 c 0
 145 111 186 17 288 17 c 0
EndSplineSet
EndChar

StartChar: Udieresis
Encoding: 220 220 12
Width: 710
Flags: W
HStem: -15 31<201.786 356.169> 95 84<128.64 163.028> 272 44<698.042 781.456> 282 30<249.133 372.028> 561 88G<455.055 485.638 764.506 790.508> 657 30<364.622 587.686>
VStem: 455.055 20<435.009 561>
LayerCount: 2
Fore
SplineSet
779.12109375 669 m 1xde
 790.5078125 650 l 1
 767.046875 639 749.047851562 626 733.280273438 612 c 1
 795.514648438 572 844.443359375 516 860.374023438 447 c 0
 880.690429688 359 836.775390625 272 751.775390625 272 c 0
 702.775390625 272 672.387695312 304 664.538085938 338 c 0
 657.842773438 367 673.686523438 398 704.299804688 417 c 1
 718.455078125 399 l 1
 689.841796875 380 691.920898438 358 694.921875 345 c 0
 698.846679688 328 714.6171875 316 735.6171875 316 c 0xee
 791.6171875 316 814.379882812 382 795.217773438 465 c 0
 782.982421875 518 751.516601562 559 711.821289062 588 c 1
 660.05859375 522 651.221679688 426 617.849609375 302 c 0
 556.1796875 71 449.03515625 -15 292.03515625 -15 c 0
 186.03515625 -15 105.875 42 90.6376953125 108 c 0
 80.94140625 150 100.24609375 179 133.24609375 179 c 0
 161.24609375 179 188.6328125 160 195.328125 131 c 0
 201.099609375 106 191.409179688 83 163.409179688 83 c 0
 155.409179688 83 138.948242188 85 130.639648438 95 c 1
 128.639648438 95 l 1
 136.48828125 61 195.877929688 16 266.877929688 16 c 0
 391.877929688 16 444.1796875 71 510.006835938 271 c 0
 562.298828125 430 597.364257812 538 678.97265625 609 c 1
 617.123046875 643 541.891601562 657 475.891601562 657 c 0
 270.891601562 657 153.057617188 535 182.377929688 408 c 0
 195.075195312 353 250.541015625 312 307.541015625 312 c 0
 419.541015625 312 461.608398438 407 455.0546875 561 c 1
 475.0546875 561 l 1
 496.221679688 426 457.466796875 282 312.466796875 282 c 0
 229.466796875 282 158.692382812 333 140.454101562 412 c 0
 109.055664062 548 231.96484375 687 469.96484375 687 c 0
 548.96484375 687 633.813476562 666 704.586914062 628 c 1
 725.892578125 644 749.891601562 657 779.12109375 669 c 1xde
EndSplineSet
EndChar

StartChar: Yacute
Encoding: 221 221 13
Width: 625
Flags: W
HStem: -5 29<0.84375 81.063 215.401 277.641> 254 26<304.021 389.915> 630 22<176.044 238.955 362.604 441.345>
VStem: 534 85<387.882 561.288>
LayerCount: 2
Fore
SplineSet
24 -5 m 0
 8 -5 0 -2 0 6 c 0
 0 15 13 20 36 24 c 0
 85 33 113 51 128 100 c 2
 262 537 l 2
 280 596 267 621 201 627 c 0
 181 629 176 633 176 642 c 0
 176 650 191 653 207 653 c 0
 217 653 267 652 296 652 c 0
 317 652 381 656 407 656 c 0
 533 656 619 587 619 472 c 0
 619 343 487 254 346 254 c 0
 333 254 304 256 304 267 c 0
 304 275 315 279 327 280 c 0
 346 282 364 286 382 290 c 0
 467 313 534 376 534 480 c 0
 534 563 481 630 381 630 c 0
 364 630 360 618 351 588 c 2
 205 111 l 2
 188 58 201 35 253 24 c 0
 273 20 278 15 278 6 c 0
 278 -2 264 -5 248 -5 c 0
 198 -5 182 2 147 2 c 0
 99 2 74 -5 24 -5 c 0
EndSplineSet
EndChar

StartChar: Thorn
Encoding: 222 222 14
Width: 692
Flags: W
HStem: -38 48<536.139 643.396> -15 30<268.412 408.549> 96 46<332.114 431.212> 506 36<395.245 507.43> 547 21G<575.36 610.362> 645 35<373.38 512.988>
LayerCount: 2
Fore
SplineSet
610.362304688 549 m 1x7c
 590.82421875 547 l 1
 559.895507812 603 515.198242188 645 442.198242188 645 c 0
 272.198242188 645 139.4609375 332 181.478515625 150 c 0
 198.33203125 77 248.645507812 15 326.645507812 15 c 0x7c
 376.645507812 15 417.413085938 29 451.873046875 53 c 1
 431.33203125 77 410.9453125 96 381.9453125 96 c 0
 356.9453125 96 336.561523438 89 312.640625 67 c 1
 295.715820312 84 l 1
 328.711914062 123 354.325195312 142 390.325195312 142 c 0
 437.325195312 142 465.55859375 115 489.25390625 86 c 1
 497.9453125 96 507.63671875 106 515.866210938 118 c 0
 545.400390625 159 598.928710938 265 568.684570312 396 c 0
 551.600585938 470 497.2890625 506 451.2890625 506 c 0
 388.2890625 506 336.44921875 449 359.997070312 347 c 0
 365.76953125 322 376.618164062 288 411.23828125 242 c 1
 391.546875 232 l 1
 347.541992188 284 333.69140625 331 326.534179688 362 c 0
 302.0625 468 362.978515625 542 445.978515625 542 c 0
 509.978515625 542 595.212890625 502 619.684570312 396 c 0
 649.004882812 269 607.865234375 131 516.103515625 52 c 1
 536.64453125 28 556.799804688 10 587.799804688 10 c 0
 614.799804688 10 650.798828125 23 678.71875 58 c 1
 696.950195312 44 l 1
 661.571289062 -15 617.881835938 -38 582.881835938 -38 c 0xbc
 533.881835938 -38 503.956054688 -8 476.798828125 23 c 1
 436.33984375 -1 388.571289062 -15 335.571289062 -15 c 0
 219.571289062 -15 137.639648438 80 112.705078125 188 c 0
 53.603515625 444 200.118164062 680 438.118164062 680 c 0
 524.118164062 680 593.739257812 621 610.362304688 549 c 1x7c
EndSplineSet
EndChar

StartChar: germandbls
Encoding: 223 223 15
Width: 692
Flags: W
HStem: -165 48<521.888 645.102> -31 46<253.547 278.772> -15 30<219.571 357.732> 506 36<395.245 507.43> 547 21G<575.36 610.362> 645 35<373.38 512.988>
LayerCount: 2
Fore
SplineSet
240.9453125 -31 m 0xdc
 215.9453125 -31 163.561523438 -39 139.640625 -61 c 1
 124.715820312 -43 l 1
 157.711914062 -4 218.325195312 15 254.325195312 15 c 0
 319.223632812 15 387.508329893 -16.3780895982 439.888671875 -45 c 0
 495.580518816 -75.4313983635 538.618164062 -117 586.799804688 -117 c 0
 613.799804688 -117 661.798828125 -105 689.71875 -70 c 1
 705.950195312 -83 l 1
 670.571289062 -142 610.881835938 -165 575.881835938 -165 c 0
 519.881835938 -165 450.06665388 -149.776103277 397.798828125 -117 c 0
 343.164507439 -82.7399153033 296.530273438 -31 240.9453125 -31 c 0xdc
515.866210938 118 m 0
 545.400390625 159 598.928710938 265 568.684570312 396 c 0
 551.600585938 470 497.2890625 506 451.2890625 506 c 0
 388.2890625 506 336.44921875 449 359.997070312 347 c 0
 365.76953125 322 376.618164062 288 411.23828125 242 c 1
 391.546875 232 l 1
 347.541992188 284 333.69140625 331 326.534179688 362 c 0
 302.0625 468 362.978515625 542 445.978515625 542 c 0
 509.978515625 542 595.212890625 502 619.684570312 396 c 0
 651.953397577 256.228602178 600.362304688 110.692382812 497 34.4296875 c 0
 455.55859375 3.8525390625 398.357155816 -15 335.571289062 -15 c 0
 219.571289062 -15 137.639648438 80 112.705078125 188 c 0
 53.603515625 444 200.118164062 680 438.118164062 680 c 0
 524.118164062 680 593.739257812 621 610.362304688 549 c 1
 590.82421875 547 l 1
 559.895507812 603 515.198242188 645 442.198242188 645 c 0
 272.198242188 645 139.4609375 332 181.478515625 150 c 0
 198.33203125 77 248.645507812 15 326.645507812 15 c 0xbc
 388.088138105 15 435.87109375 35.107421875 472 67.0029296875 c 0
 489.116210938 82.11328125 502.38066142 98.3357740035 515.866210938 118 c 0
EndSplineSet
EndChar

StartChar: agrave
Encoding: 224 224 16
Width: 741
Flags: W
HStem: -270 53<519.019 636.357> -14 21<311.161 352.624> 635 29<400.65 530.545>
VStem: 91 85<126.792 353.59> 626 85<290.28 527.22>
LayerCount: 2
Fore
SplineSet
696 -165 m 0
 711 -145 723 -157 716 -171 c 0
 695 -217 628 -270 556 -270 c 0
 485 -270 422 -232 362 -198 c 0
 305 -165 245 -135 179 -135 c 0
 156 -135 134 -138 118 -144 c 0
 98 -152 83 -161 71 -161 c 0
 60 -161 59 -162 59 -152 c 0
 59 -115 253 -59 325 -26 c 0
 335 -22 344 -17 353 -12 c 1
 345 -13 336 -14 326 -14 c 0
 165 -14 91 105 91 243 c 0
 91 435 226 664 481 664 c 0
 637 664 711 545 711 407 c 0
 711 272 638 122 490 29 c 0
 414 -19 364 -51 265 -86 c 1
 319 -89 377 -114 424 -142 c 0
 487 -180 547 -217 596 -217 c 0
 639 -217 673 -196 696 -165 c 0
386 7 m 2
 387 7 l 1
 533 96 626 247 626 445 c 0
 626 539 579 635 468 635 c 0
 299 635 176 399 176 205 c 0
 176 111 228 7 386 7 c 2
EndSplineSet
EndChar

StartChar: aacute
Encoding: 225 225 17
Width: 944
Flags: W
HStem: -12 30<193.051 353.735 749.25 821.114> 95 84<124.64 159.028> 282 30<245.133 371.44> 293 61<621.904 684.852> 557 92G<451.979 482.985 760.506 786.508> 657 30<360.622 583.686>
VStem: 451.979 20<431.937 557>
LayerCount: 2
Fore
SplineSet
775.12109375 669 m 1xee
 786.5078125 650 l 1
 763.046875 639 745.047851562 626 729.280273438 612 c 1
 792.360351562 577 832.366210938 525 844.37109375 473 c 0
 862.840820312 393 816.6171875 316 701.541015625 312 c 1xee
 702.002929688 310 l 1
 738.3125 287 768.23828125 257 775.395507812 226 c 0
 791.094726562 158 730.100585938 93 739.56640625 52 c 0
 744.415039062 31 759.416015625 18 779.416015625 18 c 0
 813.416015625 18 855.3359375 53 901.098632812 119 c 1
 921.791992188 103 l 1
 874.645507812 30 826.341796875 -12 772.341796875 -12 c 0
 725.341796875 -12 671.723632812 21 660.411132812 70 c 0
 642.171875 149 718.784179688 181 704.008789062 245 c 0
 701.931640625 254 690.927734375 293 659.927734375 293 c 0xde
 648.927734375 293 623.00390625 297 610.387695312 304 c 1
 551.71875 73 445.03515625 -15 288.03515625 -15 c 0
 182.03515625 -15 101.875 42 86.6376953125 108 c 0
 76.94140625 150 96.24609375 179 129.24609375 179 c 0
 157.24609375 179 184.6328125 160 191.328125 131 c 0
 197.099609375 106 187.409179688 83 159.409179688 83 c 0
 151.409179688 83 134.948242188 85 126.639648438 95 c 1
 124.639648438 95 l 1
 132.48828125 61 191.877929688 16 262.877929688 16 c 0
 387.877929688 16 435.1796875 71 501.006835938 271 c 0
 553.298828125 430 593.364257812 538 674.97265625 609 c 1
 613.123046875 643 537.891601562 657 471.891601562 657 c 0
 266.891601562 657 149.057617188 535 178.377929688 408 c 0
 191.075195312 353 246.541015625 312 303.541015625 312 c 0
 415.541015625 312 458.532226562 403 451.978515625 557 c 1
 471.978515625 557 l 1
 493.991210938 427 446.466796875 282 308.466796875 282 c 0
 225.466796875 282 154.692382812 333 136.454101562 412 c 0
 105.055664062 548 227.96484375 687 465.96484375 687 c 0
 544.96484375 687 629.813476562 666 700.586914062 628 c 1
 721.892578125 644 745.891601562 657 775.12109375 669 c 1xee
779.370117188 486 m 0
 770.366210938 525 746.82421875 562 707.821289062 588 c 1
 662.98046875 531 646.98828125 453 621.844726562 354 c 1xde
 644.844726562 354 666.229492188 348 685.76953125 337 c 1
 763.921875 345 795.299804688 417 779.370117188 486 c 0
EndSplineSet
EndChar

StartChar: acircumflex
Encoding: 226 226 18
Width: 661
Flags: W
HStem: -5 29<-12.1562 68.063 197.132 252.641 549.334 617.361> 298 20<277.408 323> 622 31<160.117 252.126> 630 22<356.264 436.371>
VStem: 508 83<421.626 578.4>
LayerCount: 2
Fore
SplineSet
11 -5 m 0xd8
 -5 -5 -13 -2 -13 6 c 0
 -13 15 0 20 23 24 c 0
 72 33 100 51 115 100 c 2
 249 538 l 2
 271 608 263 615 188 622 c 0
 168 624 160 629 160 639 c 0
 160 649 178 653 194 653 c 2xe8
 283 652 l 2
 320 652 368 655 394 655 c 0
 496 655 591 612 591 507 c 0
 591 398 504 339 418 312 c 0
 409 309 405 304 409 295 c 0
 423 259 481 134 499 98 c 0
 525 46 545 34 584 27 c 0
 601 24 618 22 618 13 c 0
 618 -2 593 -4 567 -4 c 0
 512 -4 467 1 449 32 c 0
 416 89 371 189 346 249 c 0
 330 288 321 298 285 298 c 0
 256 298 249 294 245 280 c 2
 192 111 l 2
 177 63 184 33 228 24 c 0
 248 20 253 15 253 6 c 0
 253 -2 239 -5 223 -5 c 0
 173 -5 169 2 134 2 c 0
 86 2 61 -5 11 -5 c 0xd8
322 318 m 0
 378 318 508 360 508 508 c 0
 508 576 456 630 386 630 c 0xd8
 357 630 346 618 329 555 c 2
 276 356 l 2
 268 325 278 318 322 318 c 0
EndSplineSet
EndChar

StartChar: atilde
Encoding: 227 227 19
Width: 643
Flags: W
HStem: -15 30<274.257 419.496> 256 43<203.398 327.305> 435 21<535.336 569.424> 644 36<418.316 563.736>
LayerCount: 2
Fore
SplineSet
440.75 143 m 1
 421.672851562 139 l 1
 366.431640625 244 312.661132812 256 258.661132812 256 c 0
 210.661132812 256 156.819335938 212 174.134765625 137 c 0
 190.295898438 67 265.30078125 15 345.30078125 15 c 0
 438.30078125 15 524.448242188 75 497.66796875 191 c 0
 473.196289062 297 306.268554688 340 275.793945312 472 c 0
 242.779296875 615 373.7734375 680 480.7734375 680 c 0
 546.7734375 680 628.161132812 648 647.553710938 564 c 0
 664.407226562 491 603.3359375 435 535.3359375 435 c 1
 530.487304688 456 l 1
 590.102539062 462 629.329101562 500 614.78515625 563 c 0
 600.702148438 624 541.084960938 644 488.084960938 644 c 0
 411.084960938 644 327.3984375 582 348.407226562 491 c 0
 373.802734375 381 546.192382812 336 576.666992188 204 c 0
 607.833984375 69 498.2265625 -15 344.2265625 -15 c 0
 247.2265625 -15 137.068359375 29 110.98046875 142 c 0
 87.8935546875 242 159.734375 299 241.734375 299 c 0
 316.734375 299 402.584960938 252 440.75 143 c 1
EndSplineSet
EndChar

StartChar: adieresis
Encoding: 228 228 20
Width: 548
Flags: W
HStem: -15 30<148.392 282.972> 466 21G<497 504> 625 20G<540.5 549> 635 29<317.172 431.04>
VStem: 176 69<429.938 563.787> 363 77<92.8641 231.92> 490 66<492 629> 490 28<466.864 566.376>
LayerCount: 2
Fore
SplineSet
213 -15 m 0xde
 179 -15 144 -9 110 4 c 0
 93 11 81 16 77 16 c 0
 70 16 63 13 56 10 c 0
 48 5 41 0 36 0 c 0
 30 0 17 11 17 19 c 0
 17 31 52 92 63 171 c 0
 65 185 69 191 79 191 c 0
 90 191 91 179 91 152 c 0
 91 75 127 15 210 15 c 0
 295 15 363 66 363 155 c 0
 363 207 344 242 280 302 c 0
 223 354 176 406 176 482 c 0
 176 588 267 664 385 664 c 0
 406 664 431 658 454 652 c 0
 480 644 498 635 508 635 c 0xde
 517 635 522 637 527 640 c 0
 532 643 537 645 544 645 c 0
 554 645 556 634 556 629 c 0xee
 556 626 533 601 518 498 c 0xed
 515 478 506 466 502 466 c 0
 492 466 490 477 490 492 c 0
 490 585 443 635 373 635 c 0
 302 635 245 570 245 506 c 0
 245 453 270 411 338 348 c 0
 406 286 440 240 440 184 c 0
 440 74 360 -15 213 -15 c 0xde
EndSplineSet
EndChar

StartChar: aring
Encoding: 229 229 21
Width: 712
Flags: W
HStem: -15 31<192.588 334.694> 79 86<137.333 169.724> 329 30<219.002 347.053> 541 114G<423.716 451.255 575.751 624.134 803.775 832.892> 584 50<564.772 761.444> 641 46<218.753 454.004>
VStem: 99.5625 104.229<79.9219 149.357> 428.672 20<482.243 541>
LayerCount: 2
Fore
SplineSet
817.735351562 675 m 1xef
 832.891601562 657 l 1
 796.43359375 620 738.745117188 584 673.745117188 584 c 0
 564.745117188 584 404.584960938 641 311.584960938 641 c 0xef
 186.584960938 641 115.900390625 566 135.754882812 480 c 0
 154.224609375 400 218.690429688 359 280.690429688 359 c 0
 378.690429688 359 418.759765625 428 428.671875 541 c 1
 448.671875 541 l 1xf3
 453.838867188 406 393.616210938 329 280.616210938 329 c 0
 198.616210938 329 117.149414062 383 96.37109375 473 c 0
 66.5888671875 602 177.96484375 687 357.96484375 687 c 0
 467.96484375 687 614.201171875 634 714.201171875 634 c 0
 756.201171875 634 789.814453125 653 817.735351562 675 c 1xef
607.901367188 553 m 1
 624.133789062 539 l 1
 583.138671875 487 570.223632812 413 564.387695312 304 c 0
 558.859375 198 517.25390625 101 445.182617188 45 c 0
 396.956054688 7 344.03515625 -15 272.03515625 -15 c 0
 191.03515625 -15 113.415039062 31 99.5625 91 c 0
 88.4814453125 139 108.478515625 165 143.478515625 165 c 0
 170.478515625 165 197.557617188 143 203.791015625 116 c 0
 209.793945312 90 198.103515625 67 170.103515625 67 c 0
 162.103515625 67 147.641601562 69 139.333007812 79 c 1
 137.333007812 79 l 1
 149.413085938 44 194.877929688 16 257.877929688 16 c 0
 368.877929688 16 421.87109375 81 467.62109375 277 c 0
 501.9140625 423 543.600585938 485 607.901367188 553 c 1
EndSplineSet
EndChar

StartChar: ae
Encoding: 230 230 22
Width: 608
Flags: W
HStem: -5 27<64.4959 142.158 287.086 345.807> 504 21G<66 75.5 624.5 631.5> 614 28<168.805 330.601 418.889 589.863> 646 20G<125.5 130.5 672.5 679>
VStem: 615 25<497.114 562.589>
LayerCount: 2
Fore
SplineSet
88 -5 m 0
 72 -5 64 -2 64 6 c 0
 64 15 78 18 101 22 c 0
 150 31 183 54 197 102 c 2
 319 530 l 2
 338 598 333 614 316 614 c 2
 233 614 l 2
 168 614 137 582 113 553 c 0
 95 532 81 504 70 504 c 0
 62 504 59 506 59 517 c 0
 59 519 61 531 69 548 c 0
 82 575 101 611 111 646 c 0
 114 655 123 666 128 666 c 0
 133 666 140 660 146 654 c 0
 152 648 160 642 222 642 c 2
 579 642 l 2
 640 642 651 649 658 655 c 0
 665 661 670 666 675 666 c 0
 683 666 685 661 685 655 c 0
 685 646 679 634 675 627 c 0
 668 614 650 565 640 511 c 0
 638 500 634 497 629 497 c 0
 620 497 615 506 615 520 c 0
 615 581 598 614 548 614 c 2
 448 614 l 2
 422 614 413 603 392 527 c 2
 271 102 l 2
 257 54 277 31 321 22 c 0
 341 18 346 15 346 6 c 0
 346 -2 332 -5 316 -5 c 0
 266 -5 251 0 209 0 c 0
 162 0 138 -5 88 -5 c 0
EndSplineSet
EndChar

StartChar: ccedilla
Encoding: 231 231 23
Width: 792
Flags: W
HStem: -12 30<280.082 358.396 566.979 639.557> 360 30<91.3457 195.304> 638 20G<245.024 269.678 638.578 730.66> 652 35<126.395 284.057>
VStem: 249.06 20<464.294 509>
LayerCount: 2
Fore
SplineSet
730.66015625 658 m 1xe8
 561.637695312 108 l 2
 552.564453125 78 555.719726562 60 557.3359375 53 c 0
 563.107421875 28 580.416015625 18 598.416015625 18 c 0
 638.416015625 18 683.795898438 64 736.633789062 147 c 1
 760.635742188 134 l 1
 706.64453125 43 654.341796875 -12 591.341796875 -12 c 0
 543.341796875 -12 498.416015625 18 487.333984375 66 c 0
 483.409179688 83 481.099609375 106 487.942382812 137 c 1
 484.711914062 138 l 1
 436.106445312 41 371.03515625 -15 315.03515625 -15 c 0
 267.03515625 -15 226.185546875 19 213.71875 73 c 0
 204.9453125 111 210.787109375 155 245.163085938 240 c 2
 337.755859375 467 l 2
 356.3671875 512 356.44140625 542 350.438476562 568 c 0
 338.895507812 618 267.045898438 652 210.045898438 652 c 0
 102.045898438 652 20.2060546875 582 45.140625 474 c 0
 56.2216796875 426 91.533203125 390 137.533203125 390 c 0
 212.533203125 390 240.989257812 440 249.059570312 509 c 1
 269.059570312 509 l 1
 270.296875 443 232.458984375 360 145.458984375 360 c 0
 78.458984375 360 19.8388671875 406 4.140625 474 c 0
 -24.2568359375 597 82.96484375 687 210.96484375 687 c 0xd8
 301.96484375 687 401.27734375 638 423.671875 541 c 0
 431.521484375 507 433.6796875 463 414.299804688 417 c 2
 294.55859375 130 l 2
 276.716796875 86 271.950195312 59 275.64453125 43 c 0
 278.876953125 29 289.108398438 15 311.108398438 15 c 0
 423.108398438 15 541.155273438 318 570.76171875 415 c 2
 644.66015625 658 l 1
 730.66015625 658 l 1xe8
EndSplineSet
EndChar

StartChar: egrave
Encoding: 232 232 24
Width: 778
Flags: W
HStem: -14 40<241.715 407.423> 620 33<158.558 208.343 316.853 380.113 589.851 651.354 747.997 819.206>
LayerCount: 2
Fore
SplineSet
296 -14 m 0
 167 -14 61 65 118 251 c 2
 208 547 l 2
 223 595 207 614 188 620 c 0
 168 626 157 633 157 642 c 0
 157 650 179 653 195 653 c 0
 223 653 249 650 284 650 c 0
 313 650 339 652 359 652 c 0
 375 652 383 649 382 641 c 0
 381 632 368 628 345 621 c 0
 324 615 295 590 279 535 c 2
 191 238 l 2
 147 90 225 26 323 26 c 0
 469 26 540 143 577 269 c 0
 599 344 628 434 641 474 c 0
 680 593 663 609 615 622 c 0
 603 625 589 631 589 640 c 0
 589 648 604 651 620 651 c 2
 722 650 l 2
 752 650 777 653 798 653 c 0
 814 653 823 650 822 642 c 0
 821 633 807 627 784 622 c 0
 751 614 737 608 699 506 c 0
 671 432 643 346 610 254 c 0
 554 99 475 -14 296 -14 c 0
EndSplineSet
EndChar

StartChar: eacute
Encoding: 233 233 25
Width: 742
Flags: W
HStem: -15 21G<259.035 294.535> 401 30<94.1928 209.031> 497 20G<254.831 283.291 494.193 532.584> 543 55<307.072 422.871> 626 52<61.7338 202.66> 646 41<743.673 770.886>
VStem: 265.213 18.0781<499.013 511.485>
LayerCount: 2
Fore
SplineSet
286.723632812 21 m 1xfa
 289.185546875 19 l 1
 429.028320312 50 503.9375 189 592.916992188 397 c 0
 668.284179688 573 719.96484375 687 790.96484375 687 c 0
 818.96484375 687 845.3515625 668 851.81640625 640 c 0
 857.587890625 615 841.743164062 597 818.743164062 597 c 0
 792.743164062 597 770.818359375 614 763.430664062 646 c 1
 762.430664062 646 l 1xf6
 733.817382812 627 691.1328125 552 622.6875 385 c 0
 559.471679688 230 499.020507812 128 444.794921875 77 c 0
 384.185546875 19 327.03515625 -15 262.03515625 -15 c 0
 256.03515625 -15 248.03515625 -15 213.649414062 -9 c 1
 258.64453125 43 271.100585938 93 298.083984375 262 c 0
 317.91796875 384 356.603515625 459 425.749023438 545 c 1
 422.055664062 548 l 1
 413.749023438 545 397.209960938 543 387.209960938 543 c 0
 290.209960938 543 196.047851562 626 127.047851562 626 c 0
 63.0478515625 626 20.1298828125 578 32.3662109375 525 c 0
 44.37109375 473 92.0673828125 431 154.067382812 431 c 0
 207.067382812 431 244.44921875 464 265.212890625 517 c 1
 283.291015625 508 l 1
 265.296875 443 225.993164062 401 158.993164062 401 c 0
 78.9931640625 401 7.98828125 453 -9.095703125 527 c 0
 -26.4111328125 602 42.04296875 678 139.04296875 678 c 0
 179.04296875 678 209.275390625 664 286.35546875 629 c 0
 325.51171875 611 357.512695312 598 379.512695312 598 c 0
 415.512695312 598 459.049804688 613 492.200195312 647 c 2
 514.12109375 669 l 1
 532.583984375 654 l 1
 453.671875 541 437.372070312 460 418.4609375 347 c 0
 395.08984375 210 347.793945312 90 286.723632812 21 c 1xfa
EndSplineSet
EndChar

StartChar: ecircumflex
Encoding: 234 234 26
Width: 643
Flags: W
HStem: -14 21G<94 110.5> 623 33<79.2707 144.167 258.607 335.951 486.041 529.719 647.387 720.183>
LayerCount: 2
Fore
SplineSet
103 -14 m 0
 85 -14 69 2 80 63 c 0
 119 287 145 439 154 550 c 0
 157 593 156 615 103 623 c 0
 83 626 79 634 79 643 c 0
 79 652 93 656 109 656 c 0
 135 656 173 650 215 650 c 0
 251 650 290 651 312 651 c 0
 328 651 336 648 336 640 c 0
 336 631 319 623 301 621 c 0
 262 616 241 603 233 553 c 2
 166 143 l 2
 162 120 164 112 170 112 c 0
 175 112 182 125 199 146 c 2
 479 492 l 2
 551 580 538 617 510 621 c 0
 489 624 486 632 486 641 c 0
 486 649 500 652 516 652 c 0
 533 652 573 650 607 650 c 0
 648 650 667 656 698 656 c 0
 714 656 721 651 721 643 c 0
 721 634 707 627 684 620 c 0
 649 610 606 591 567 543 c 2
 196 95 l 2
 154 45 118 -14 103 -14 c 0
EndSplineSet
EndChar

StartChar: edieresis
Encoding: 235 235 27
Width: 888
Flags: W
HStem: -15 21G<235.535 294.535 490.035 552.035> 401 30<88.6046 195.72> 497 154G<234.831 263.291 474.193 512.814 655.776 704.776> 543 55<297.849 402.871> 626 52<55.5225 190.31> 647 40<887.863 919.024>
VStem: 245.213 18.0781<499.013 511.485>
LayerCount: 2
Fore
SplineSet
527.03125 24 m 1xe2
 529.4921875 22 l 1
 615.719726562 60 670.6328125 160 727.000976562 323 c 0
 824.126953125 604 863.96484375 687 938.96484375 687 c 0
 965.96484375 687 992.889648438 670 999.81640625 640 c 0
 1005.35644531 616 990.743164062 597 966.743164062 597 c 0
 940.743164062 597 919.818359375 614 912.200195312 647 c 1
 911.200195312 647 l 1xc6
 874.739257812 636 831.05859375 522 748.54296875 286 c 0
 686.407226562 109 605.03515625 -15 499.03515625 -15 c 0
 481.03515625 -15 466.03515625 -15 452.111328125 -11 c 1
 503.028320312 50 526.482421875 126 539.319335938 222 c 0
 560.91796875 384 603.368164062 499 685.587890625 615 c 1
 684.356445312 616 l 1
 603.8203125 601 538.989257812 440 494.387695312 304 c 0
 431.9453125 111 347.03515625 -15 242.03515625 -15 c 0
 229.03515625 -15 208.341796875 -12 193.649414062 -9 c 1
 246.720703125 47 262.095703125 145 278.776367188 259 c 0
 295.765625 376 337.065429688 457 404.517578125 546 c 1
 402.055664062 548 l 1
 393.749023438 545 377.209960938 543 367.209960938 543 c 0
 276.209960938 543 183.047851562 626 117.047851562 626 c 0
 53.0478515625 626 20.1298828125 578 32.3662109375 525 c 0
 44.37109375 473 86.0673828125 431 144.067382812 431 c 0
 197.067382812 431 224.44921875 464 245.212890625 517 c 1
 263.291015625 508 l 1
 245.296875 443 212.993164062 401 148.993164062 401 c 0
 73.9931640625 401 7.98828125 453 -9.095703125 527 c 0
 -26.4111328125 602 22.04296875 678 119.04296875 678 c 0xda
 159.04296875 678 199.275390625 664 276.35546875 629 c 0
 315.51171875 611 337.512695312 598 359.512695312 598 c 0
 395.512695312 598 439.049804688 613 472.200195312 647 c 2xd6
 494.12109375 669 l 1
 512.814453125 653 l 1
 453.360351562 577 413.754882812 480 390.923828125 332 c 0
 371.782226562 207 328.33203125 92 266.4921875 22 c 1
 269.185546875 19 l 1
 368.181640625 58 426.858398438 211 465.078125 327 c 0
 537.209960938 543 612.276367188 651 699.276367188 651 c 0
 710.276367188 651 726.96875 648 752.81640625 640 c 1
 691.821289062 588 677.755859375 467 650.461914062 334 c 0
 623.782226562 207 591.637695312 108 527.03125 24 c 1xe2
EndSplineSet
EndChar

StartChar: igrave
Encoding: 236 236 28
Width: 1024
Flags: W
HStem: -14 21G<98.5 118 456 482> 623 33<71.5117 156.042 260.489 341.968 437.732 518.724 636.437 726.183 838.044 892.704 1018.68 1096.18>
VStem: 535 192<560.5 647>
LayerCount: 2
Fore
SplineSet
111 -14 m 0
 86 -14 83 37 91 78 c 0
 120 226 153 422 165 523 c 0
 175 606 168 612 102 623 c 0
 82 626 71 632 71 643 c 0
 71 654 88 656 108 656 c 0
 134 656 170 650 221 650 c 0
 257 650 293 651 315 651 c 0
 331 651 342 647 342 639 c 0
 342 630 320 622 302 620 c 0
 254 615 246 602 236 539 c 0
 217 415 197 293 177 167 c 0
 170 121 179 122 216 165 c 2
 487 485 l 2
 524 528 535 551 535 570 c 0
 535 602 517 616 467 623 c 0
 447 626 437 633 437 644 c 0
 437 653 457 656 473 656 c 0
 503 656 565 650 604 650 c 0
 642 650 672 656 704 656 c 0
 720 656 727 651 727 643 c 0
 727 634 713 627 690 623 c 0
 627 613 614 597 607 551 c 2
 551 167 l 2
 544 122 554 122 589 166 c 2
 848 490 l 2
 919 579 910 612 863 621 c 0
 842 625 838 629 838 639 c 0
 838 648 853 652 869 652 c 0
 886 652 949 650 983 650 c 0
 1024 650 1043 656 1074 656 c 0
 1090 656 1097 651 1097 643 c 0
 1097 634 1083 624 1060 620 c 0
 1018 612 983 592 943 543 c 2
 573 94 l 2
 538 51 489 -14 475 -14 c 0
 437 -14 459 64 467 112 c 2
 531 492 l 1
 201 97 l 2
 165 54 125 -14 111 -14 c 0
EndSplineSet
EndChar

StartChar: iacute
Encoding: 237 237 29
Width: 811
Flags: W
HStem: -15 30<175.431 289.227> -14 44<540.484 633.153> 63 100<134.914 180.804> 372 30<227.775 337.726> 488 20G<379.486 403.445> 654 33<228.332 369.376 670.415 712.584>
VStem: 92.5625 103.229<69.7227 147.407> 383.291 20.1543<467.374 504.737>
LayerCount: 2
Fore
SplineSet
535.676757812 489 m 1xbf
 537.676757812 489 l 1
 584.893554688 631 648.96484375 687 717.96484375 687 c 0
 757.96484375 687 796.12109375 669 806.509765625 624 c 0
 814.821289062 588 792.438476562 568 765.438476562 568 c 0
 740.438476562 568 712.206054688 582 704.818359375 614 c 0
 702.047851562 626 703.354492188 642 712.583984375 654 c 1
 639.583984375 654 577.2890625 521 535.000976562 323 c 0
 522.083984375 262 505.40234375 161 520.639648438 95 c 0
 529.412109375 57 548.645507812 30 585.645507812 30 c 0
 622.645507812 30 658.873046875 68 713.017578125 154 c 1
 736.481445312 139 l 1
 688.56640625 52 648.803710938 -14 566.803710938 -14 c 0x7f
 503.803710938 -14 457.954101562 20 442.716796875 86 c 0
 439.946289062 98 436.482421875 126 439.01953125 141 c 1
 437.01953125 141 l 1
 391.413085938 44 333.03515625 -15 231.03515625 -15 c 0
 155.03515625 -15 104.106445312 41 92.5625 91 c 0
 83.55859375 130 98.9404296875 163 133.940429688 163 c 0
 160.940429688 163 190.01953125 141 195.791015625 116 c 0
 202.024414062 89 189.02734375 63 161.02734375 63 c 0
 154.02734375 63 140.333984375 66 134.641601562 69 c 1
 160.645507812 30 193.108398438 15 241.108398438 15 c 0
 319.108398438 15 384.712890625 125 427.0859375 249 c 0
 457.307617188 339 471.682617188 437 455.751953125 506 c 0
 433.358398438 603 382.583984375 654 297.583984375 654 c 0
 208.583984375 654 151.12890625 591 172.830078125 497 c 0
 185.06640625 444 222.762695312 402 281.762695312 402 c 0
 352.762695312 402 375.680664062 450 383.291015625 508 c 1
 403.4453125 503 l 1
 399.145507812 422 355.688476562 372 285.688476562 372 c 0
 209.688476562 372 149.375976562 421 131.599609375 498 c 0
 106.896484375 605 177.96484375 687 292.96484375 687 c 0
 413.96484375 687 510.28125 599 535.676757812 489 c 1xbf
EndSplineSet
EndChar

StartChar: icircumflex
Encoding: 238 238 30
Width: 722
Flags: W
HStem: -5 33<-27.3006 66.1781 182.977 229.959 328.069 397.017 528.876 609.02> 622 33<165.227 243.251 355.821 433.625 527.161 575.346 685.556 762.789>
LayerCount: 2
Fore
SplineSet
-5 -5 m 0
 -21 -5 -29 -2 -29 6 c 0
 -29 15 -15 25 9 28 c 0
 56 34 99 53 166 124 c 2
 318 284 l 2
 337 304 350 319 340 351 c 2
 288 529 l 2
 265 609 234 616 196 622 c 0
 177 625 164 634 164 643 c 0
 164 651 186 655 202 655 c 0
 233 655 282 650 328 650 c 0
 365 650 393 652 410 652 c 0
 426 652 434 649 434 641 c 0
 434 632 421 623 397 621 c 0
 346 617 342 601 362 528 c 2
 397 397 l 2
 402 378 410 378 424 394 c 2
 531 520 l 2
 594 595 584 612 551 620 c 0
 539 623 527 631 527 640 c 0
 527 648 541 651 557 651 c 0
 579 651 606 650 634 650 c 0
 670 650 717 656 742 656 c 0
 758 656 766 653 766 645 c 0
 766 636 752 631 729 625 c 0
 691 615 621 568 570 513 c 2
 438 370 l 2
 420 350 417 343 420 331 c 2
 480 111 l 2
 495 55 511 45 585 26 c 0
 605 21 610 15 610 6 c 0
 610 -2 596 -5 580 -5 c 0
 554 -5 483 1 439 1 c 0
 401 1 374 0 352 0 c 0
 336 0 328 3 328 11 c 0
 328 20 352 27 366 31 c 0
 413 43 422 67 410 111 c 2
 366 270 l 2
 362 284 355 285 347 275 c 2
 201 100 l 2
 169 62 174 39 206 30 c 0
 226 24 230 21 230 12 c 0
 230 4 216 -1 200 -1 c 0
 183 -1 147 1 114 1 c 0
 72 1 26 -5 -5 -5 c 0
EndSplineSet
EndChar

StartChar: idieresis
Encoding: 239 239 31
Width: 846
Flags: W
HStem: -226 30<268.901 358.555> 82 30<327.413 404.009> 380 30<118.309 228.79> 638 20G<283.897 309.7 716.339 817.304> 652 35<150.41 317.954>
VStem: 289.7 20<492.272 535>
LayerCount: 2
Fore
SplineSet
726.303710938 658 m 1xf4
 817.303710938 658 l 1xf4
 700.48046875 432 630.189453125 260 581.438476562 77 c 1
 620.744140625 93 664.510742188 120 699.96875 157 c 1
 718.431640625 142 l 1
 666.284179688 82 623.901367188 62 575.442382812 38 c 1
 541.146484375 -82 441.391601562 -226 309.391601562 -226 c 0
 261.391601562 -226 222.388671875 -200 213.384765625 -161 c 0
 185.21875 -39 377.446289062 -1 482.904296875 36 c 1
 505.203125 117 514.19921875 156 540.653320312 232 c 1
 536.73046875 236 l 1
 489.124023438 139 420.284179688 82 364.284179688 82 c 0
 312.284179688 82 271.434570312 116 257.813476562 175 c 0
 246.500976562 224 263.95703125 274 318.639648438 375 c 0
 388.319335938 502 395.700195312 535 387.8515625 569 c 0
 377.231445312 615 302.689453125 652 242.689453125 652 c 0
 123.689453125 652 49.2333984375 589 73.244140625 485 c 0
 83.1708984375 442 124.559570312 410 169.559570312 410 c 0
 236.559570312 410 278.09375 451 289.700195312 535 c 1
 309.700195312 535 l 1
 306.327148438 424 242.485351562 380 170.485351562 380 c 0
 106.485351562 380 45.865234375 426 31.7822265625 487 c 0
 4.078125 607 113.608398438 687 241.608398438 687 c 0xec
 340.608398438 687 434.69140625 626 454.315429688 541 c 0
 468.62890625 479 446.327148438 424 371.801757812 292 c 0
 322.118164062 204 315.122070312 165 320.663085938 141 c 0
 323.89453125 127 336.357421875 112 356.357421875 112 c 0
 425.357421875 112 500.118164062 204 601.251953125 407 c 2
 726.303710938 658 l 1xf4
472.676757812 -2 m 1
 340.52734375 -49 237.608398438 -84 254.922851562 -159 c 0
 259.309570312 -178 280.46484375 -196 302.46484375 -196 c 0
 387.46484375 -196 436.2265625 -117 472.676757812 -2 c 1
EndSplineSet
EndChar

StartChar: eth
Encoding: 240 240 32
Width: 633
Flags: W
HStem: -5 29<78.8438 155.653 301.55 359.641> 620 33<119.308 179.809 285.885 357.642 479.633 530.984 637.286 707.67>
LayerCount: 2
Fore
SplineSet
102 -5 m 0
 86 -5 78 -2 78 6 c 0
 78 15 91 20 114 24 c 0
 163 33 198 60 213 108 c 2
 264 268 l 2
 273 295 271 314 263 342 c 2
 207 548 l 2
 195 593 177 617 146 620 c 0
 127 622 118 633 118 642 c 0
 118 650 137 653 153 653 c 0
 181 653 217 650 261 650 c 0
 290 650 316 652 336 652 c 0
 352 652 359 649 359 641 c 0
 359 632 346 625 322 621 c 0
 284 615 277 607 289 560 c 2
 331 401 l 2
 338 375 343 363 350 363 c 0
 357 363 369 376 386 395 c 0
 430 444 457 481 502 537 c 0
 546 592 541 610 503 620 c 0
 490 623 479 631 479 640 c 0
 479 648 493 651 509 651 c 0
 537 651 557 650 587 650 c 0
 625 650 664 653 685 653 c 0
 701 653 710 650 710 642 c 0
 710 633 695 629 676 623 c 0
 637 611 578 565 549 534 c 0
 499 482 420 392 383 352 c 0
 353 320 344 294 332 256 c 2
 287 108 l 2
 273 63 291 33 335 24 c 0
 355 20 360 15 360 6 c 0
 360 -2 346 -5 330 -5 c 0
 280 -5 264 0 222 0 c 0
 175 0 152 -5 102 -5 c 0
EndSplineSet
EndChar

StartChar: ntilde
Encoding: 241 241 33
Width: 852
Flags: W
HStem: -15 39<169.672 337.378 501.788 696.891> 79 30<171.569 307.979> 280 49<548.612 628.122> 294 49<370.119 446.928> 413 30<207.825 322.253> 499 20G<354.484 384.598> 540 30<667.13 804.741> 628 30<661.567 799.665> 648 39<194.681 407.077>
VStem: 364.751 19.8467<498.089 513.822> 446.928 94.7695<195.636 281> 771.94 20.2305<117.277 162>
LayerCount: 2
Fore
SplineSet
364.750976562 519 m 1xdef0
 384.59765625 511 l 1
 368.219726562 452 340.223632812 413 269.223632812 413 c 0
 204.223632812 413 131.065429688 457 114.672851562 528 c 0
 98.974609375 596 140.96484375 687 274.96484375 687 c 0xdef0
 382.96484375 687 494.430664062 646 586.280273438 612 c 1
 630.662109375 645 678.66015625 658 725.66015625 658 c 0
 806.66015625 658 844.35546875 629 851.512695312 598 c 0
 858.669921875 567 816.903320312 540 748.903320312 540 c 0
 703.903320312 540 658.36328125 551 609.900390625 566 c 1
 580.520507812 520 562.06640625 444 548.384765625 330 c 1
 553.616210938 329 557.616210938 329 559.616210938 329 c 0
 591.384765625 330 625.76953125 337 646.3828125 356 c 1
 664.307617188 339 l 1
 640.92578125 306 607.928710938 280 559.928710938 280 c 0xef70
 555.928710938 280 545.928710938 280 541.697265625 281 c 1
 527.9375 189 491.71484375 112 434.719726562 60 c 1
 495.106445312 41 554.03125 24 600.03125 24 c 0
 707.03125 24 767.025390625 76 771.940429688 163 c 1
 792.170898438 162 l 1
 799.258789062 49 735.03515625 -15 611.03515625 -15 c 0
 560.03515625 -15 509.571289062 0 402.72265625 34 c 1
 360.186523438 6 309.649414062 -9 250.649414062 -9 c 0
 168.649414062 -9 132.646484375 17 124.797851562 51 c 0
 117.640625 82 159.407226562 109 227.407226562 109 c 0
 269.407226562 109 322.870117188 94 376.564453125 78 c 1
 413.944335938 124 432.090820312 197 446.927734375 293 c 1
 442.696289062 294 438.696289062 294 434.696289062 294 c 0
 405.696289062 294 378.388671875 291 347.083984375 262 c 1
 326.390625 278 l 1
 351.848632812 315 390.383789062 343 437.383789062 343 c 0
 442.383789062 343 448.383789062 343 454.615234375 342 c 1
 475.833984375 458 511.057617188 535 555.975585938 583 c 1
 466.818359375 614 370.96875 648 262.96875 648 c 0
 167.96875 648 145.284179688 573 155.672851562 528 c 0
 168.37109375 473 216.296875 443 262.296875 443 c 0
 319.296875 443 344.217773438 465 364.750976562 519 c 1xdef0
810.512695312 598 m 0
 806.818359375 614 786.586914062 628 732.586914062 628 c 0xcf70
 691.586914062 628 659.895507812 618 634.205078125 595 c 1
 678.66796875 580 717.9765625 570 751.9765625 570 c 0
 788.9765625 570 813.745117188 584 810.512695312 598 c 0
348.797851562 51 m 1
 295.641601562 69 266.333007812 79 224.333007812 79 c 0
 187.333007812 79 162.565429688 65 165.797851562 51 c 0
 169.491210938 35 189.723632812 21 243.723632812 21 c 0
 287.723632812 21 322.415039062 31 348.797851562 51 c 1
EndSplineSet
EndChar

StartChar: ograve
Encoding: 242 242 34
Width: 635
Flags: W
HStem: -5 37<134.562 450.185> 493 21G<154 162.5> 617 29<353.776 555.002>
LayerCount: 2
Fore
SplineSet
515 -5 m 0
 418 -5 263 -1 180 -1 c 0
 147 -1 50 -3 -3 -3 c 0
 -9 -3 -5 11 -5 11 c 1
 -2 21 46 73 77 104 c 0
 260 290 370 416 555 601 c 0
 560 606 568 616 546 617 c 0
 502 619 373 614 307 608 c 0
 277 605 221 578 185 518 c 0
 176 503 167 493 158 493 c 0
 150 493 146 502 146 512 c 0
 146 516 149 526 154 537 c 0
 166 564 187 605 196 627 c 0
 203 644 211 653 226 653 c 0
 242 653 277 648 310 647 c 0
 358 646 426 646 468 646 c 0
 545 646 602 647 671 649 c 0
 679 649 688 631 684 627 c 2
 607 550 l 2
 421 364 314 263 143 67 c 0
 129 51 131 40 149 38 c 0
 175 35 207 32 248 32 c 0
 290 32 378 35 422 41 c 0
 490 50 550 82 592 150 c 0
 597 158 603 169 613 169 c 0
 623 169 622 159 622 150 c 0
 622 129 561 36 546 12 c 0
 541 4 533 -5 515 -5 c 0
EndSplineSet
EndChar

StartChar: oacute
Encoding: 243 243 35
Width: 813
Flags: W
HStem: -6.5 27<252.91 344.419 518.441 600.559> 174.5 27<42.4185 149.839> 412.5 27<403.945 514.154>
VStem: 458.772 104.507<218.086 280.541> 461.391 26.0533<54.6518 114.197>
LayerCount: 2
Fore
SplineSet
458.771861886 163.609375 m 1xf0
 455.293208628 222.629948994 472.50704379 315.5 531.472968499 315.5 c 0
 546.873680846 315.5 558.379569734 310.017578125 563.27891407 288.662109375 c 0xf0
 571.076539513 254.676847285 531.204433629 195.631278085 487.443896429 143.58203125 c 1
 485.499769999 104.68440263 487.777926282 93.6093561889 490.977674704 79.662109375 c 0
 502.172016537 30.8759765625 536.115116669 20.5 560.400258107 20.5 c 0
 595.077095227 20.5 661.536132812 58.6201171875 737.6953125 191.844726562 c 1
 760.165039062 176.51953125 l 1
 694.78515625 54.3857421875 625.740701597 -6.5 558.338806568 -6.5 c 0
 508.532040989 -6.5 475.207182208 31.7880859375 464.756282879 77.3369140625 c 0
 463.050140852 84.7731028333 461.284179688 95.6474609375 461.390625 114.197265625 c 5xe8
 410.92578125 39.1123046875 358.123085116 -9.5 290.688828969 -9.5 c 0
 204.784115018 -9.5 154.243955138 87.8764880342 176.501495404 196.245117188 c 1
 157.731411049 183.816691385 135.579790703 174.5 108.044921875 174.5 c 0
 84.53125 174.5 60.001953125 179.404296875 35.771484375 190.870117188 c 1
 39.318359375 213.938476562 l 1
 60.205078125 206.102539062 79.28515625 201.5 98.119140625 201.5 c 0
 155.142788807 201.5 184.586914062 240.448242188 208.188476562 279.916015625 c 1
 259.453125 370.530273438 350.629629406 439.5 442.397686312 439.5 c 0
 471.198804215 439.5 531.031367534 439.353515625 573.861808412 370.5703125 c 1
 557.78462162 361.916015625 l 1
 526.638651119 401.486328125 492.163688725 412.5 462.20082059 412.5 c 0
 414.934959027 412.5 369.578172406 387.202148438 334.953745071 341.90625 c 0
 266.969519097 251.6640625 225.427970707 119.491210938 238.237310356 63.6630859375 c 0
 243.115302558 42.400390625 256.974779008 17.5 288.774901269 17.5 c 0
 363.599159099 17.5 419.580446859 100.666421322 458.771861886 163.609375 c 1xf0
EndSplineSet
EndChar

StartChar: ocircumflex
Encoding: 244 244 36
Width: 512
Flags: W
HStem: -14 63<69.8247 138.767 301.169 370.612> 353 56<297.773 366.719>
VStem: 17 78<19 107.834> 370 88<311 410>
LayerCount: 2
Fore
SplineSet
68 -14 m 0
 43 -14 17 8 17 30 c 0
 17 101 94 216 207 315 c 0
 279 378 324 409 345 409 c 0
 355 409 366 403 373 395 c 0
 391 371 384 380 385 380 c 0
 387 380 389 382 391 386 c 0
 410 418 412 421 408 416 c 1
 412 423 416 426 420 426 c 0
 438 426 458 415 458 405 c 0
 458 401 456 394 451 380 c 2
 339 83 l 2
 331 62 336 49 352 49 c 0
 376 49 415 75 440 109 c 0
 442 112 446 114 449 114 c 0
 454 114 456 111 456 103 c 0
 456 94 433 60 413 40 c 0
 375 5 336 -14 304 -14 c 0
 283 -14 261 6 261 25 c 0
 261 31 263 40 267 48 c 1
 255 24 294 111 314 153 c 0
 321 167 320 177 312 168 c 0
 190 32 128 -14 68 -14 c 0
124 49 m 0
 153 49 215 100 288 187 c 0
 338 246 370 299 370 323 c 0
 370 328 364 336 357 342 c 0
 349 348 339 353 332 353 c 0
 308 353 259 325 225 292 c 0
 158 227 95 129 95 83 c 0
 95 63 107 49 124 49 c 0
EndSplineSet
EndChar

StartChar: otilde
Encoding: 245 245 37
Width: 574
Flags: W
HStem: -12 27<181.976 265.93> 171.5 27<472.593 554.148> 435 27<277.131 348.887> 494.212 20G<91.0996 121.051> 658 29<384.142 450.587>
VStem: 382.033 86.4262<238.985 396.813>
LayerCount: 2
Fore
SplineSet
218.630528386 -12 m 0
 165.431640625 -12 118.495117188 24.744140625 105.719726562 80.4482421875 c 0
 85.2214402508 169.826857162 129.819972646 332.210707747 189.381835938 443.499023438 c 1
 155.782970075 451.680678728 121.900041328 466.078149261 91.099609375 494.716796875 c 1
 104.321289062 514.211914062 l 1
 137.779727895 483.433710798 168.971754216 472.932128636 200.779296875 467.841796875 c 1
 250.857742386 571.928384829 327.291832756 687 412.728108446 687 c 0
 463.01845342 687 487.822182957 651.866021981 487.9375 604.110351562 c 0
 488.152674926 518.630884089 405.481326828 435 265.539709012 435 c 1
 229.061024187 351.354428864 146.661810183 141.285045479 165.18359375 60.4873046875 c 0
 170.790039062 36.0283203125 184.833007812 15 212.780859088 15 c 0
 291.41548283 15 360.267264949 94.0625487034 409.851474763 226.1328125 c 1
 391.430412248 258.532787262 382.064382756 281.741698546 382.03276894 324.72265625 c 0
 381.98938807 381.7109375 410.87815535 417.5 439.255992385 417.5 c 0
 449.28125 417.5 464.903320312 405.05859375 468.458984375 389.662109375 c 0
 476.043105423 356.808359124 479.287720978 310.276120943 449.685546875 231.712890625 c 1
 470.904805981 206.145727289 499.004632004 198.5 521.784179688 198.5 c 0
 533.215820312 198.5 543.798828125 200.498046875 549.930664062 203.045898438 c 1
 561.66796875 179.576171875 l 1
 551.381835938 173.962890625 536.18359375 171.5 527.7109375 171.5 c 0
 493.904712348 171.5 465.014648438 180.5078125 434.903320312 204.5 c 1
 378.696045992 71.609738292 304.134731468 -12 218.630528386 -12 c 0
459.358398438 625.837890625 m 0
 454.813476562 645.524414062 439.357214415 658 416.072291503 658 c 0
 371.850685884 658 330.724182133 584.351796611 277.131077443 462 c 1
 393.91358798 462 477.084436128 549.05513943 459.358398438 625.837890625 c 0
EndSplineSet
EndChar

StartChar: odieresis
Encoding: 246 246 38
Width: 441
Flags: W
HStem: -8 32<102.201 167.915> 376 38<283.609 342.902> 687 20G<251 262.5>
VStem: 23 59<37.917 151.523> 348 66<250.708 374.712>
LayerCount: 2
Fore
SplineSet
108 -8 m 0
 56 -8 23 24 23 74 c 0
 23 107 31 151 46 195 c 2
 172 576 l 2
 179 595 182 613 182 630 c 0
 182 637 175 642 157 647 c 0
 138 652 126 658 126 662 c 0
 126 668 130 672 142 676 c 0
 172 687 245 707 257 707 c 0
 268 707 273 704 273 697 c 0
 273 685 271 678 266 664 c 0
 240 596 154 345 126 257 c 0
 121 243 129 240 138 252 c 0
 217 356 290 414 340 414 c 0
 383 414 414 383 414 340 c 0
 414 187 243 -8 108 -8 c 0
134 24 m 0
 160 24 214 70 261 132 c 0
 309 196 348 288 348 336 c 0
 348 359 335 376 319 376 c 0
 277 376 225 330 155 234 c 0
 111 172 82 116 82 91 c 0
 82 55 106 24 134 24 c 0
EndSplineSet
EndChar

StartChar: divide
Encoding: 247 247 39
Width: 656
Flags: W
HStem: -11 27<271.743 368.129> 173.614 27.0908<42.4185 154.072> 412.5 27<403.41 487.856>
LayerCount: 2
Fore
SplineSet
180.513060437 200.513671875 m 1
 163.396654642 183.496539848 139.933282463 173.614257812 108.044921875 173.614257812 c 0
 84.53125 173.614257812 60.001953125 178.53515625 35.771484375 190.0390625 c 1
 39.318359375 213.185546875 l 1
 60.205078125 205.322265625 79.28515625 200.705078125 98.119140625 200.705078125 c 0
 149.8828125 200.705078125 182.410027299 225.977578728 203.078553857 270.784179688 c 0
 247 366 342.150544766 439.5 430.49853287 439.5 c 0
 480.698242188 439.5 522.19921875 416.889648438 534.94921875 361.662109375 c 0
 542.709170974 328.080005662 522.108198972 298.5 490.416992188 298.5 c 0
 466.869140625 298.5 449.292149711 309.16015625 444.450607621 330.337890625 c 0
 434.325536876 374.618164062 500.127929688 356.901367188 492.408203125 390.336914062 c 0
 489.641601562 402.321289062 475.451171875 412.5 452.21293619 412.5 c 0
 323.257453878 412.5 225.367906523 156.698031261 244.574999112 72.3759765625 c 0
 252.72805541 36.5830078125 280.703773851 16 312.077082657 16 c 0
 372.2568899 16 470.591796875 70.2998046875 560.530273438 221.384765625 c 1
 583.955078125 206.0234375 l 1
 495.856445312 54.49609375 398.129061788 -11 310.022860644 -11 c 0
 248.422313223 -11 199.285400026 32.4990234375 182.713321775 105.224609375 c 0
 175.480992689 136.955756295 175.312880518 169.374428871 180.513060437 200.513671875 c 1
EndSplineSet
EndChar

StartChar: oslash
Encoding: 248 248 40
Width: 365
Flags: W
HStem: -15 56<108.614 189.401> 387 27<221.985 309>
VStem: 30 72<47.4375 198.008>
LayerCount: 2
Fore
SplineSet
114 -15 m 0
 78 -15 29 28 30 90 c 0
 32 210 121 414 291 414 c 0
 327 414 346 399 346 382 c 0
 346 360 330 333 316 333 c 0
 305 333 299 344 292 357 c 0
 284 372 273 387 251 387 c 0
 187 387 102 208 102 98 c 0
 102 54 121 41 150 41 c 0
 193 41 213 60 239 84 c 0
 248 93 251 97 259 97 c 0
 265 97 267 91 267 84 c 0
 267 63 195 -15 114 -15 c 0
EndSplineSet
EndChar

StartChar: ugrave
Encoding: 249 249 41
Width: 839
Flags: W
HStem: -8 27<281.405 373.029 560.544 630.324> 174.5 27<70.8157 177.805> 409 32<426.256 518.032> 667 20G<659.288 739.733>
LayerCount: 2
Fore
SplineSet
565.022460938 358 m 1
 569.041739517 370 654.675148347 656.05255966 663.901660618 687 c 1
 739.733398438 687 l 1
 556.243539819 96.3134765625 l 2
 544.788754705 62.3199593232 551.310197134 19 588.780984111 19 c 0
 629.420277266 19 682.051757812 57.126953125 761.09765625 190.407226562 c 1
 785.515625 174.990234375 l 1
 716.72265625 52.09765625 658.04169854 -8 588.708195579 -8 c 0
 523.45529764 -8 490.1953125 49.3017578125 499.750976562 116 c 1
 447.296097218 40.3800309475 393.103664366 -11 316.099615231 -11 c 0
 227.809142121 -11 181.206354958 89.44855123 205.058283467 196.696289062 c 1
 187.388714623 183.099116475 164.650080883 174.5 136.44140625 174.5 c 0
 112.927734375 174.5 88.3984375 179.404296875 64.1689453125 190.870117188 c 1
 67.7158203125 213.938476562 l 1
 88.6015625 206.102539062 107.681640625 201.5 126.515625 201.5 c 0
 174.990357926 201.5 210.976301734 231.771365509 236.58203125 277.391601562 c 0
 288 369 378.059266096 441 468.795397542 441 c 0
 514.673076411 441 552.64453125 411.897460938 565.022460938 358 c 1
443.677530939 92.5400390625 m 0
 508.470970534 170.786132812 552.770507812 286.084960938 535.387695312 361.837890625 c 0
 528.552734375 391.626953125 506.079624631 409 476.825428386 409 c 0
 423.16378161 409 354.476640813 351.32421875 308.758649156 251.130859375 c 0
 264.913749054 156.0234375 256.720671899 99.693359375 265.561081732 61.162109375 c 0
 270.250604216 40.7236328125 285.523579246 19 317.150681632 19 c 0
 364.675769909 17.9873046875 402.371494832 42.4111328125 443.677530939 92.5400390625 c 0
EndSplineSet
EndChar

StartChar: uacute
Encoding: 250 250 42
Width: 503
Flags: W
HStem: -14 47<62.6266 158.393> 388 32<265.168 334.427> 685 20G<514.5 522>
VStem: 15 68<34.7048 153.79> 291 68<12.3987 140.285> 449 81<619.242 695.192>
LayerCount: 2
Fore
SplineSet
526 668 m 2
 364 107 l 2
 361 96 359 86 359 76 c 0
 359 61 363 54 373 54 c 0
 399 54 444 86 471 123 c 0
 474 127 476 128 479 128 c 0
 484 128 486 125 485 120 c 0
 485 82 378 -14 335 -14 c 0
 313 -14 291 9 291 31 c 0
 291 36 292 41 295 57 c 0
 300 79 311 128 313 139 c 0
 314 148 311 153 307 147 c 0
 215 31 152 -14 80 -14 c 0
 41 -14 15 15 15 58 c 0
 15 133 68 245 141 327 c 0
 193 386 249 420 292 420 c 0
 309 420 312 419 349 395 c 0
 367 384 373 381 374 379 c 2
 378 386 l 1
 445 611 l 2
 449 627 449 627 449 631 c 0
 449 645 442 653 421 661 c 0
 391 671 391 671 391 675 c 0
 391 684 401 689 425 693 c 0
 466 699 511 705 518 705 c 0
 526 705 530 700 530 691 c 0
 530 684 529 677 526 668 c 2
117 33 m 0
 206 33 356 217 356 326 c 0
 356 365 338 388 306 388 c 0
 230 388 83 179 83 71 c 0
 83 42 91 33 117 33 c 0
EndSplineSet
EndChar

StartChar: ucircumflex
Encoding: 251 251 43
Width: 621
Flags: W
HStem: -11 27<196.526 302.674> 412.5 27<412.465 495.438>
VStem: 123.548 54.6941<26.2157 151.656> 500.548 27<349.337 406.731>
LayerCount: 2
Fore
SplineSet
152.927273118 216.689453125 m 1
 209.312843946 335.978374134 339.157227453 439.5 458.047851562 439.5 c 0
 498.686523438 439.5 527.547851562 421.802734375 527.547851562 385.809570312 c 0
 527.547851562 317.746060786 415.268994025 222.564793329 220.342469644 192.499023438 c 1
 196.563476467 150.239037172 178.241905964 102.511540493 178.241905964 72.701171875 c 0
 178.241905964 36.7734375 201.74607352 16 233.147115819 16 c 0
 320.685141317 16 417.702508014 82.193359375 529.041992188 192.383789062 c 1
 546.930664062 174.49609375 l 1
 431.014648438 57.8291015625 331.097731967 -11 227.211417457 -11 c 0
 157.811858229 -11 123.547851562 32.26953125 123.547851562 98.8662109375 c 0
 123.547851562 129.404057609 130.141077502 161.31484117 142.149414062 192.453125 c 1
 96.5294168053 197.537350615 52.202323617 223.608195092 30 262.990234375 c 1
 50.5283203125 278.213867188 l 1
 72.5430636906 236.828044312 110.462647405 219.734921816 152.927273118 216.689453125 c 1
237.515625 223.409179688 m 1
 383.153320312 244.329101562 500.547851562 327.236914194 500.547851562 384 c 0
 500.547851562 405.313476562 480.225585938 412.5 463.047851562 412.5 c 0
 397.553655338 412.5 320.27120794 339.628349822 237.515625 223.409179688 c 1
EndSplineSet
EndChar

StartChar: udieresis
Encoding: 252 252 44
Width: 398
Flags: W
HStem: -15 54<114.321 204.509> 389 25<245.386 302.578>
VStem: 31 71<49.7638 197.764> 308 58<304.961 388.233>
LayerCount: 2
Fore
SplineSet
123 -15 m 0
 80 -15 31 42 31 89 c 0
 31 223 150 414 292 414 c 0
 339 414 366 393 366 359 c 0
 366 275 249 240 138 219 c 0
 130 217 126 217 123 209 c 0
 113 180 102 143 102 112 c 0
 102 65 120 39 155 39 c 0
 203 39 235 69 257 93 c 0
 264 101 270 104 275 104 c 0
 281 104 285 100 285 94 c 0
 285 92 285 89 283 86 c 0
 243 21 188 -15 123 -15 c 0
145 242 m 0
 175 242 308 277 308 357 c 0
 308 374 298 389 281 389 c 0
 226 389 138 278 138 248 c 0
 138 242 140 242 145 242 c 0
EndSplineSet
EndChar

StartChar: yacute
Encoding: 253 253 45
Width: 679
Flags: W
HStem: 97.1104 27.0986<316.737 450.41> 658 29<465.993 537.46>
LayerCount: 2
Fore
SplineSet
390.051932119 97.1103515625 m 0
 354.904861818 97.1103515625 323.631794335 104.615067435 297.005415116 116.76171875 c 1
 266.775797507 8.16889329949 236.534044194 -100.411796447 206.299804688 -209 c 1
 130.428710938 -209 l 1
 166.199505848 -84.3131126193 201.970613134 40.3734623865 237.741210938 165.060546875 c 1
 224.808182336 182.119959334 216.276240071 201.062106382 211.163085938 223.28515625 c 0
 197.871032979 281.053630712 230.80525194 332.267466301 293.4327401 369.444335938 c 1
 348.20890825 563.537219255 384.054419606 687 490.578125 687 c 0
 540.747070312 687 572.252929688 648.592773438 579.27734375 618.162109375 c 0
 609.029708601 488.825067343 463.348812543 409.014870332 368.014979271 366.681640625 c 1
 346.804379962 292.113751514 325.58841678 217.546315557 304.385733532 142.975585938 c 1
 331.455309244 129.695757691 356.887181991 124.208984375 390.125118993 124.208984375 c 0
 428.698453345 124.208984375 472.727539062 140.612304688 505.6796875 177.694335938 c 1
 525.849609375 156.826171875 l 1
 481.708984375 111.499023438 437.682142085 97.1103515625 390.051932119 97.1103515625 c 0
374.614316706 403.913085938 m 1
 460.630805828 440.123676869 575.925410775 516.071124836 554.740234375 607.837890625 c 0
 545.13671875 649.43359375 523.490234375 658 499.965820312 658 c 0
 446.600347832 658 422.363936834 572.471679688 409.302968844 526.932617188 c 0
 398.323167362 491.24395484 387.423413935 448.401708491 374.614316706 403.913085938 c 1
EndSplineSet
EndChar

StartChar: thorn
Encoding: 254 254 46
Width: 404
Flags: W
HStem: -290 40<-71.4156 -2.42511> 362 38<114.643 200 278.308 376> 585 21G<504 518> 665 41<384.765 469.489>
VStem: 482 68<591.03 652.538>
LayerCount: 2
Fore
SplineSet
-64 -290 m 0
 -114 -290 -147 -273 -147 -240 c 0
 -147 -220 -121 -198 -108 -198 c 0
 -98 -198 -89 -212 -76 -226 c 0
 -64 -239 -48 -250 -24 -250 c 0
 14 -250 33 -225 66 -115 c 2
 200 339 l 2
 204 352 200 357 186 357 c 2
 124 356 l 2
 115 356 111 361 111 368 c 0
 111 379 120 393 130 394 c 2
 200 398 l 2
 209 399 216 406 219 418 c 2
 227 450 l 2
 275 640 386 706 456 706 c 0
 515 706 550 677 550 636 c 0
 550 602 527 585 509 585 c 0
 499 585 492 602 482 624 c 0
 470 651 452 665 423 665 c 0
 366 665 344 634 304 503 c 0
 296 477 291 455 283 429 c 0
 280 419 278 416 278 409 c 0
 278 402 282 400 288 400 c 0
 328 400 364 403 398 403 c 0
 402 403 405 400 405 392 c 0
 405 383 394 363 376 363 c 2
 285 362 l 2
 271 362 263 358 260 346 c 0
 213 195 169 41 130 -110 c 0
 102 -217 -8 -290 -64 -290 c 0
EndSplineSet
EndChar

StartChar: ydieresis
Encoding: 255 255 47
Width: 732
Flags: W
HStem: -219 31<199.161 310.472> -127 27<471.548 609.833> -72 27<218.943 378.357> 173.614 27.0908<18.4086 125.094> 407.5 32<370.254 469.656>
LayerCount: 2
Fore
SplineSet
515.265625 368.309570312 m 1
 518.4482354 377.234943997 524.184276808 393.907045623 534.1484375 422.450195312 c 1
 599.052734375 422.450195312 l 1
 547.997464272 256.19695192 496.942290078 89.9436126198 445.886959515 -76.3095703125 c 1
 476.217125099 -90.4727114137 511.75327108 -100 543.369140625 -100 c 0
 573.220703125 -100 610.934570312 -92.0087890625 636.162109375 -70.728515625 c 1
 652.380859375 -94.1533203125 l 1
 613.345703125 -122.418945312 578.854492188 -127 545.294921875 -127 c 0
 509.914258387 -127 467.20229225 -118.504138009 438.181962373 -104.482421875 c 1
 403.103289026 -185.520622517 343.4508837 -219 263.548284538 -219 c 0
 155.706108431 -219 114.249922713 -120.442401954 186.118345966 -70.7353515625 c 0
 217.399723217 -49.013671875 254.828426154 -45 293.461004604 -45 c 0
 313.898285903 -45 366.240544355 -50.5267021617 387.699643068 -58.4423828125 c 1
 414.197369672 23.2431711875 428 66 441.836914062 111.6875 c 1
 389.728515625 35.6083984375 332.138372962 -11 256.579958402 -11 c 0
 176.777292791 -11 128.788978119 92.6740528416 151.65280522 195.977539062 c 1
 133.305496972 181.366290472 112.249140149 173.614257812 84.03515625 173.614257812 c 0
 60.521484375 173.614257812 35.9921875 178.53515625 11.76171875 190.0390625 c 1
 15.30859375 213.185546875 l 1
 36.1943359375 205.322265625 55.2744140625 200.705078125 74.1083984375 200.705078125 c 0
 130.953125 200.705078125 162.893823192 241.512695312 185.755826286 280.706054688 c 0
 239.162535625 371.698242188 333.436069032 439.5 412.063097989 439.5 c 0
 458.019796435 439.5 499.297851562 412.223632812 515.265625 368.309570312 c 1
289.76214071 18.9541015625 m 0
 409.689272602 46.8642578125 511.418692034 264.767578125 488.72825574 364.171875 c 0
 480.947652889 398.250976562 453.083072081 407.5 424.053387918 407.5 c 0
 367.538120794 407.5 305.967933541 357.610351562 255.659119644 247.009765625 c 0
 214.688580053 156.54296875 204.670823674 95.0400390625 213.052394977 58.3251953125 c 0
 221.428066125 21.6305521265 253.540727025 10.5248603347 289.76214071 18.9541015625 c 0
380.763671875 -86.0283203125 m 1
 356 -76 311.605907041 -72 291.402203002 -72 c 0
 228.595648526 -72 170.209708992 -97.060096159 181.386204055 -145.837890625 c 0
 187.10218948 -170.77734375 214.63623764 -188 247.81648134 -188 c 0
 286.501826025 -188 346.0078125 -174.928710938 380.763671875 -86.0283203125 c 1
EndSplineSet
EndChar

StartChar: Amacron
Encoding: 256 256 48
Width: 576
Flags: W
HStem: -290 30<154.014 304.965> 77 24<238.618 285.032> 346 58<449.724 543.861> 358 33<438.793 521.718> 386 28<321.54 377.231>
VStem: 8 69<-218 -145.263> 159 57<107.243 242.532> 361 73<-212.345 -144.614> 389 52<249.247 357.886>
LayerCount: 2
Fore
SplineSet
217 -290 m 0xd7
 100 -290 8 -248 8 -180 c 0
 8 -135 116 -95 207 -65 c 0
 212 -63 213 -60 209 -56 c 0
 179 -31 161 -15 161 6 c 0
 161 25 183 46 211 67 c 0
 218 73 219 77 219 79 c 0
 219 81 216 83 211 85 c 0
 170 105 159 133 159 178 c 0
 159 268 244 414 351 414 c 0xcf
 379 414 389 406 397 402 c 0
 406 397 415 391 425 391 c 0xd7
 447 391 496 404 523 404 c 0
 531 404 545 397 545 381 c 0
 545 356 535 346 527 346 c 0xe7
 508 346 464 358 449 358 c 0
 442 358 434 355 437 344 c 0
 440 333 441 321 441 308 c 0xd680
 441 205 349 77 260 77 c 0
 250 77 243 71 238 65 c 0
 230 55 227 46 227 36 c 0
 227 12 237 0 271 -23 c 0
 305 -46 366 -84 395 -105 c 0
 424 -126 434 -143 434 -163 c 0
 434 -233 309 -290 217 -290 c 0xd7
257 101 m 0
 317 101 389 274 389 339 c 0xce80
 389 359 374 386 354 386 c 0
 292 386 220 235 216 149 c 0
 216 123 235 101 257 101 c 0
247 -260 m 0
 327 -260 361 -227 361 -191 c 0xc7
 361 -171 350 -148 320 -130 c 0
 309 -122 276 -100 262 -93 c 0
 251 -87 240 -83 234 -83 c 0
 226 -83 217 -85 209 -87 c 0
 129 -112 77 -141 77 -182 c 0
 77 -226 165 -260 247 -260 c 0
EndSplineSet
EndChar

StartChar: amacron
Encoding: 257 257 49
Width: 747
Flags: W
HStem: -11 27<475.254 547.192> 414 27<431.673 504.94> 442.697 26.2031<200.662 251.225 322.994 376.883> 509.255 20G<109.521 145.352> 658 29<386.582 463.244>
LayerCount: 2
Fore
SplineSet
266.829101562 268.471679688 m 1
 334.674804688 379.3515625 411.000840081 441 476.234210756 441 c 0
 519.362439479 441 552.645602087 418.2109375 561.396018521 379.73046875 c 0
 568.396932898 348.946289062 562.999244381 307.926757812 546.136795708 264.809570312 c 2
 481.518559438 99.6337890625 l 2
 470.623250034 70.539768301 457.298122538 16 500.463748655 16 c 0
 550.933879975 16 620.293945312 68.32421875 697.469726562 191.380859375 c 1
 719.921875 176.067382812 l 1
 644.095703125 53.2607421875 568.66720481 -11 502.375026373 -11 c 0
 461.360537123 -11 428.747726355 12.6298828125 417.89713248 60.3408203125 c 0
 410.214241664 94.130859375 416.633926122 148.31640625 434.124103108 188.297851562 c 2
 503.322431141 346.423828125 l 2
 509.825425221 361.57421875 513.993812458 374.971679688 511.33952916 386.64453125 c 0
 508.259010589 400.19140625 497.850151452 414 479.136485486 414 c 0
 391.496700832 414 268.666015625 268.987304688 205.372070312 54.927734375 c 2
 189.92578125 3 l 1
 116.076171875 3 l 1
 161.124693167 149.566713144 206.180964612 296.125676136 251.224609559 442.697265625 c 1
 202.616127769 450.878449686 160.664095678 463.136904831 109.521484375 510.692382812 c 1
 122.9140625 529.254882812 l 1
 167.789178118 488.400760649 214.099257389 472.975674322 259.577852215 468.900390625 c 1
 311.990055624 630.052349563 350.302520621 687 425.848357775 687 c 0
 469.566534866 687 495.518855752 650.716218787 501.778296989 623.162109375 c 0
 528.844185938 504.017853965 384.399414062 442.032226562 314.087890625 440.983398438 c 1
 266.829101562 268.471679688 l 1
322.994140625 470 m 1
 332.006835938 470 344.300398739 471.106826845 354.438449898 473.459960938 c 0
 415.066542773 487.533203125 493.238092043 543.84765625 475.376896625 621.837890625 c 0
 470.884958066 641.454101562 453.759018496 658 430.200801153 658 c 0
 350.579746195 658 352.6615043 572.644653806 322.994140625 470 c 1
EndSplineSet
EndChar

StartChar: Abreve
Encoding: 258 258 50
Width: 476
Flags: W
HStem: -14 41<197.084 272.208> 374 47<327.266 408> 687 20G<245 255>
VStem: 388 66<231.211 370.688>
LayerCount: 2
Fore
SplineSet
36 -18 m 0
 26 -18 19 -4 19 8 c 0
 19 28 24 45 32 75 c 2
 173 558 l 2
 180 581 188 612 188 626 c 0
 188 639 167 645 151 650 c 0
 141 653 133 656 133 661 c 0
 133 666 135 670 150 676 c 0
 170 684 238 707 252 707 c 0
 258 707 269 707 269 697 c 0
 269 686 267 679 264 670 c 2
 128 200 l 2
 125 190 130 191 134 197 c 0
 222 327 326 421 386 421 c 0
 430 421 454 386 454 348 c 0
 454 245 391 115 322 42 c 0
 307 26 250 -14 213 -14 c 0
 198 -14 174 8 174 23 c 0
 174 33 188 52 200 52 c 0
 212 52 220 46 227 40 c 0
 235 33 242 27 253 27 c 0
 311 27 388 214 388 326 c 0
 388 357 375 374 350 374 c 0
 278 374 145 168 98 78 c 0
 65 14 52 -18 36 -18 c 0
EndSplineSet
EndChar

StartChar: abreve
Encoding: 259 259 51
Width: 490
Flags: W
HStem: -11 27<250.248 318.737> 316.5 27<87.1568 197.994> 559.5 92<331.058 402.011>
VStem: 320.215 90.1982<568.856 640.127>
LayerCount: 2
Fore
SplineSet
374.763671875 651.5 m 0
 395.280273438 651.5 418.993164062 626.1484375 410.413085938 597.638671875 c 0
 404.12890625 576.740234375 383.840820312 559.5 359.569335938 559.5 c 0
 331.931640625 559.5 311.952148438 583.005859375 320.21484375 610.790039062 c 0
 326.79296875 632.911132812 349.438476562 651.5 374.763671875 651.5 c 0
240.259548781 350.3125 m 1
 219.125708017 329.147340869 192.182279312 316.5 155.733398438 316.5 c 0
 132.205078125 316.5 104.682617188 321.44921875 80.4609375 332.87109375 c 1
 84.0078125 355.94140625 l 1
 104.946289062 348.143554688 127.025390625 343.5 145.807617188 343.5 c 0
 202.374608283 343.5 239.815577159 384.12109375 263.114518946 422.5 c 1
 331.822954751 422.5 l 1
 242.380852844 128.46484375 l 2
 229.096428892 85.1720069944 229.937705194 16 279.442914905 16 c 0
 328.40131139 16 373.45703125 74.2431640625 443.48828125 184.387695312 c 1
 465.971679688 169.052734375 l 1
 393.625 46.7158203125 339.865156218 -11 281.329794297 -11 c 0
 235.925084457 -11 197.845703125 16.6044921875 185.52734375 70.208984375 c 0
 176.385742188 109.985351562 181.602539062 164.973632812 204.321768305 235.170898438 c 0
 216.302503435 273.54995732 228.27117056 311.941084208 240.259548781 350.3125 c 1
EndSplineSet
EndChar

StartChar: Aogonek
Encoding: 260 260 52
Width: 347
Flags: W
HStem: -14 66<69.9297 149.411> 513 100<268.771 332.298>
VStem: 49 81<4.91327 69.5589> 255 90<525.614 599.468>
LayerCount: 2
Fore
SplineSet
290 513 m 0
 270 513 255 532 255 552 c 0
 255 584 279 613 311 613 c 0
 332 613 345 591 345 570 c 0
 345 540 320 513 290 513 c 0
88 -14 m 0
 65 -14 49 4 49 20 c 0
 49 25 49 30 52 36 c 0
 107 146 142 248 171 321 c 0
 173 327 173 333 166 333 c 0
 155 333 112 313 88 295 c 0
 81 290 73 293 73 300 c 0
 73 317 139 375 223 413 c 0
 241 421 263 392 259 382 c 2
 137 93 l 2
 132 82 130 72 130 64 c 0
 130 54 139 52 146 52 c 0
 173 52 218 99 256 137 c 0
 257 138 258 139 260 139 c 0
 263 139 266 137 266 134 c 0
 266 92 149 -14 88 -14 c 0
EndSplineSet
EndChar

StartChar: aogonek
Encoding: 261 261 53
Width: 724
Flags: W
HStem: -219 31<141.318 252.854> -127 27<416.955 551.05> -72 27<161.484 320.834> 296 27<277.692 390.428> 561 92<540.345 612.153>
VStem: 529.794 90.7617<570.356 641.627>
LayerCount: 2
Fore
SplineSet
584.90625 653 m 0
 605.4296875 653 629.126953125 627.6484375 620.555664062 599.138671875 c 0
 614.271484375 578.240234375 593.984375 561 569.711914062 561 c 0
 542.109375 561 521.525390625 584.466796875 529.793945312 612.290039062 c 0
 536.369140625 634.411132812 559.362304688 653 584.90625 653 c 0
236.041475937 -45 m 0
 256.443862796 -45 308.651972519 -50.5375831557 330.055868661 -58.4560546875 c 1
 449.529296875 343.438476562 l 1
 414 309 388.323129132 296 342.909010003 296 c 0
 323.571784121 296 293.433550392 301.03125 273.573383286 311.328125 c 1
 277.082212576 334.384765625 l 1
 295.968993706 326.736328125 321.505151333 323 338.032413923 323 c 0
 404.040935842 323 444.473668728 378.719726562 471.84350381 421 c 1
 541.69921875 421 l 1
 492.541582094 254.894391646 443.380169936 88.7925587935 394.224913406 -77.3154296875 c 1
 424.415212082 -91.4530507998 453.797036346 -100 485.176088493 -100 c 0
 514.844726562 -100 552.559570312 -92.009765625 577.786132812 -70.728515625 c 1
 594.005859375 -94.1533203125 l 1
 555.041992188 -122.42578125 523.44921875 -127 487.083229041 -127 c 0
 452.053064146 -127 410.927982109 -116.611303803 382.322925789 -104.557617188 c 1
 342.791683052 -191.530554841 285.887690982 -219 206.159179688 -219 c 0
 97.6905739512 -219 55.5960350937 -120.544880604 128.1640625 -70.7255859375 c 0
 159.430664062 -48.0322265625 200.340820312 -45 236.041475937 -45 c 0
323.102539062 -86.0283203125 m 1
 301 -77 254.117359704 -72 233.988375824 -72 c 0
 171.030915709 -72 112.126163773 -97.077919732 123.383789062 -145.836914062 c 0
 129.140625 -170.77734375 156.880859375 -188 190.309570312 -188 c 0
 229.161461819 -188 288.364257812 -174.915039062 323.102539062 -86.0283203125 c 1
EndSplineSet
EndChar

StartChar: Cacute
Encoding: 262 262 54
Width: 356
Flags: W
HStem: -290 41<-52.5346 15.2304> 513 100<302.771 366.298>
VStem: 289 90<525.614 599.468>
LayerCount: 2
Fore
SplineSet
324 513 m 0
 304 513 289 532 289 552 c 0
 289 584 313 613 345 613 c 0
 366 613 379 591 379 570 c 0
 379 540 354 513 324 513 c 0
-46 -290 m 0
 -93 -290 -124 -266 -124 -247 c 0
 -124 -230 -104 -207 -85 -207 c 0
 -73 -207 -64 -216 -54 -227 c 0
 -44 -238 -30 -249 -7 -249 c 0
 29 -249 50 -209 69 -151 c 2
 212 288 l 2
 219 310 216 321 204 321 c 0
 193 321 169 310 139 295 c 0
 135 293 125 295 125 301 c 0
 125 306 127 309 134 316 c 0
 193 369 225 383 284 414 c 0
 300 419 320 399 315 386 c 0
 301 350 289 314 276 275 c 2
 143 -128 l 2
 118 -203 14 -290 -46 -290 c 0
EndSplineSet
EndChar

StartChar: cacute
Encoding: 263 263 55
Width: 720
Flags: W
HStem: -11 27<471.876 542.999> 219.806 27.1865<351.836 391.828> 412.5 27<440.664 518.68> 441.197 26.2031<202.659 253.212 324.94 379.769> 507.755 20G<111.521 147.352> 656.5 29<400.834 465.108>
LayerCount: 2
Fore
SplineSet
263.159179688 253.100585938 m 1
 333.681640625 365.095703125 413.978342463 439.5 497.924297247 439.5 c 0
 539.819201162 439.5 574.586495275 408.713483895 579.015625 372.866210938 c 0
 586.342798366 313.592183199 499.240271407 236.179064148 392.880859375 233.390625 c 1
 436.819335938 210.298828125 465.561264908 180.644879051 473.320086303 146.625 c 0
 484.836518412 96.130859375 456.799161754 75.6123046875 463.949128221 44.2626953125 c 0
 467.766639091 27.5283203125 480.897017592 16 502.312062722 16 c 0
 541.895864889 16 602.958007812 60.1142578125 673.3984375 183.393554688 c 1
 697.780273438 168 l 1
 626.982421875 45.1591796875 566.499107659 -11 500.256628895 -11 c 0
 457.936766439 -11 413.847081545 7.9111328125 404.006558976 51.0576171875 c 0
 390.920716489 108.434570312 428.390994377 131.059570312 419.171071471 171.483398438 c 0
 414.449285897 192.19140625 392.911282644 219.018554688 348.190348172 219.805664062 c 1
 351.836492209 246.9921875 l 1
 447.255166386 253.388750586 543.41242791 317.899899389 529.883727589 377.212890625 c 0
 523.282715894 406.16015625 501.236421185 412.5 487.9366122 412.5 c 0
 407.325460134 412.5 266.475477518 268.583984375 206.364257812 53.40234375 c 2
 191.905273438 1.5 l 1
 118.076171875 1.5 l 1
 163.12058413 148.066772046 208.173223091 294.625317386 253.212459152 441.197265625 c 1
 204.615211898 449.381140536 162.665099242 461.635971657 111.521484375 509.192382812 c 1
 124.9140625 527.754882812 l 1
 169.789422823 486.900537871 216.098728937 471.476495825 261.561025278 467.400390625 c 1
 313.943825661 628.552164161 352.234870858 685.5 427.738444967 685.5 c 0
 471.432146613 685.5 497.321124721 649.205078125 503.625875111 621.662109375 c 0
 530.832409457 502.802699001 387.541433028 440.487511475 317.054834074 439.484375 c 1
 299.013015654 377.355724232 280.417135834 315.663529208 263.159179688 253.100585938 c 1
324.940429688 468.5 m 1
 333.948242188 468.5 346.236122865 469.606822813 356.368515639 471.959960938 c 0
 416.962666121 486.033203125 495.090451364 542.34765625 477.239255464 620.337890625 c 0
 472.749831699 639.954101562 455.633480017 656.5 432.088451647 656.5 c 0
 395.851651287 656.5 363.614417831 607.701642066 324.940429688 468.5 c 1
EndSplineSet
EndChar

StartChar: Ccircumflex
Encoding: 264 264 56
Width: 421
Flags: W
HStem: -21 60<279.19 329.898> -15 21G<35 48> 178 25<140 182> 372 43<305.122 392.5> 686 20G<262 273>
VStem: 14 52<-14.429 65.1875> 368 70<317.284 385.16>
LayerCount: 2
Fore
SplineSet
287 -21 m 0xbe
 255 -21 238 -4 224 28 c 2
 186 134 l 2
 178 156 162 178 140 178 c 0
 131 178 119 150 113 136 c 0
 105 117 73 35 66 16 c 0
 58 -6 56 -15 40 -15 c 0x7e
 30 -15 14 -5 14 7 c 0
 14 13 16 29 22 49 c 2
 189 567 l 2
 197 592 199 608 199 624 c 0
 199 632 191 639 177 644 c 0
 164 649 151 654 151 658 c 0
 151 663 153 667 157 669 c 0
 187 684 254 706 270 706 c 0
 276 706 286 706 286 696 c 0
 286 685 286 682 283 673 c 2
 148 262 l 2
 143 247 152 251 157 258 c 0
 225 353 312 415 379 415 c 0
 406 415 438 400 438 370 c 0
 438 300 302 207 234 188 c 0
 227 186 226 184 229 177 c 2
 275 68 l 2
 281 54 293 39 308 39 c 0
 333 39 360 68 378 97 c 0
 385 109 389 110 394 110 c 0
 396 110 400 103 400 98 c 0
 400 56 318 -21 287 -21 c 0xbe
182 203 m 0
 265 203 368 296 368 340 c 0
 368 360 356 372 332 372 c 0
 276 372 170 248 170 220 c 0
 170 212 174 203 182 203 c 0
EndSplineSet
EndChar

StartChar: ccircumflex
Encoding: 265 265 57
Width: 573
Flags: W
HStem: -11 27<181.607 252.141> 361.529 27.1885<96.5278 160.34> 658 29<389.435 462.641>
LayerCount: 2
Fore
SplineSet
172.189453125 388.717773438 m 1
 241.328742909 544.36632236 340.824737109 687 421.6484375 687 c 0
 465.550494655 687 493.613612397 662.331537485 501.336914062 612.4296875 c 0
 517.231646543 509.396534286 403.214804394 387.002870829 240.222566378 361.58984375 c 1
 208.123975347 277.130277617 150.751052449 128.854981696 166.479492188 60.3857421875 c 0
 172.090820312 35.95703125 185.923004443 16 213.439771838 16 c 0
 260.704545451 16 302.944057995 72.2529296875 371.913457468 182.387695312 c 1
 394.204101562 167.071289062 l 1
 318.877906452 44.681640625 274.173861202 -11 213.367625096 -11 c 0
 167.415039062 -11 121.396484375 17.6748046875 108.169921875 75.2080078125 c 0
 95.5791015625 129.985351562 106.776367188 211.103515625 134.8046875 293.33984375 c 0
 141.916772138 316.045236785 151.180891538 338.847877129 160.33984375 361.529296875 c 1
 128.969364571 362.570699776 96.9759850729 370.930336816 65.2255859375 389.903320312 c 1
 72.318359375 413.05859375 l 1
 111.495423101 390.089154729 141.616166308 388.717773438 172.189453125 388.717773438 c 1
248.6640625 393.87109375 m 17
 396.052734375 429.137695312 494.229557863 528.052331477 471.654296875 625.837890625 c 0
 467.109375 645.524414062 451.623046875 658 428.036132812 658 c 0
 399.248046875 658 374.872435846 636.4921875 356.087348145 610.392578125 c 0
 318.017901904 558.803750097 283.900148885 475.265996169 248.6640625 393.87109375 c 17
EndSplineSet
EndChar

StartChar: Cdotaccent
Encoding: 266 266 58
Width: 333
Flags: W
HStem: -14 59<77.5 147.804>
VStem: 41 80<12.7088 75.4984> 243 91<628.404 697.792>
LayerCount: 2
Fore
SplineSet
86 -14 m 0
 69 -14 41 8 41 30 c 0
 41 33 42 39 43 42 c 2
 233 583 l 2
 240 602 243 619 243 636 c 0
 243 648 228 660 210 664 c 0
 196 667 188 672 188 677 c 0
 188 682 190 687 194 688 c 0
 232 697 306 709 322 709 c 0
 328 709 334 704 334 694 c 0
 334 686 331 675 328 666 c 2
 126 90 l 2
 122 79 121 69 121 61 c 0
 121 51 124 45 131 45 c 0
 159 45 213 102 238 137 c 0
 246 148 258 160 264 160 c 0
 269 160 269 155 269 147 c 0
 269 80 139 -14 86 -14 c 0
EndSplineSet
EndChar

StartChar: cdotaccent
Encoding: 267 267 59
Width: 1032
Flags: W
HStem: -11 27<734.363 806.347> 297.5 27<31.6336 137.677> 412.5 27<412.585 487.752 688.144 762.996>
VStem: 99.0225 73.7008<1.5 66.3443>
LayerCount: 2
Fore
SplineSet
735.701929692 439.5 m 0
 779.977303518 439.5 811.404465457 416.830078125 820.197496934 378.446289062 c 0
 826.991139701 348.79296875 822.045181053 305.915039062 800.669420723 251.893554688 c 2
 740.011896017 99.3408203125 l 2
 728.755854672 69.5092093396 716.468696054 16 760.025232425 16 c 0
 810.641080176 16 880.067382812 68.0634765625 957.435546875 191.413085938 c 1
 979.65625 177.015625 l 1
 908.098632812 53.2890625 834.454811078 -11 760.947129554 -11 c 0
 722.788562629 -11 687.796342805 13.5712890625 677.140067763 60.0888671875 c 0
 667.796620911 100.873046875 673.321196428 145.6875 692.429167618 187.583984375 c 2
 761.052155809 340.134765625 l 2
 771.51102039 364.319335938 772.337615917 374.810546875 769.947296146 385.241210938 c 0
 766.110920435 401.986328125 752.211473531 412.5 735.628022327 412.5 c 0
 637.61615952 412.5 509.868251976 240.254882812 446.579236097 1.5 c 1
 375.113731758 1.5 l 1
 486.189693754 336.537109375 l 2
 491.94960588 354.3515625 498.93190692 368.694335938 495.335730145 384.337890625 c 0
 491.512968948 400.961914062 478.399274028 412.5 459.79017755 412.5 c 0
 362.760504722 412.5 233.501386061 238.243164062 172.723275654 1.5 c 1
 99.0224609375 1.5 l 1
 134.425975788 117.034755303 169.836628914 232.56237233 205.235708897 348.1015625 c 1
 175.656533388 314.881129908 134.637015692 297.5 87.6552734375 297.5 c 0
 68.2490234375 297.5 46.8564453125 302.697265625 27.60546875 312.825195312 c 1
 31.1494140625 335.874023438 l 1
 49.9384765625 328.1328125 65.953125 324.5 82.7294921875 324.5 c 0
 149.387025227 324.5 199.874507555 380.115234375 227.578099761 422.5 c 1
 292.530031347 422.5 l 1
 278.63371724 371.332523941 264.992758577 319.897011284 250.692382812 268.971679688 c 1
 318.729492188 379.877929688 394.42411042 439.5 460.859889409 439.5 c 0
 499.211004469 439.5 536.124815777 418.814453125 545.355456651 378.662109375 c 0
 550.686185359 355.47557273 547.400390625 317.067382812 542.186523438 292.125 c 1
 589.476849769 378.695508309 663.660827201 439.5 735.701929692 439.5 c 0
EndSplineSet
EndChar

StartChar: numbersign
Encoding: 35 35 60
Width: 774
Flags: W
HStem: -2 36<-65.5571 19.2766 174.666 236.336 322.738 399.463 603.742 672.496> 240 45<327.996 462.133> 653 20G<673 685.5>
LayerCount: 2
Fore
SplineSet
-44 -5 m 0
 -60 -5 -69 -1 -67 11 c 0
 -65 24 -53 30 -38 33 c 0
 1 42 62 64 94 100 c 0
 226 248 348 392 475 539 c 0
 510 579 526 624 538 624 c 0
 572 624 602 630 626 645 c 0
 648 659 667 673 679 673 c 0
 692 673 693 645 687 613 c 2
 588 114 l 2
 579 68 597 46 646 32 c 0
 662 28 673 25 673 12 c 0
 673 2 654 -3 642 -3 c 0
 603 -3 534 2 490 2 c 0
 450 2 381 -2 341 -2 c 0
 329 -2 321 3 322 12 c 0
 322 23 335 31 349 34 c 0
 397 44 422 58 432 100 c 2
 462 221 l 2
 465 234 458 240 446 240 c 2
 294 240 l 2
 281 240 272 232 265 222 c 2
 196 133 l 2
 147 72 161 47 212 34 c 0
 224 31 237 24 237 12 c 0
 236 3 220 -2 205 -2 c 0
 166 -2 129 1 90 1 c 0
 50 1 -4 -5 -44 -5 c 0
340 285 m 2
 460 285 l 2
 471 285 476 288 478 299 c 2
 526 518 l 2
 528 528 530 536 524 536 c 0
 522 536 516 533 511 528 c 2
 328 304 l 2
 316 290 316 285 340 285 c 2
EndSplineSet
EndChar

StartChar: dollar
Encoding: 36 36 61
Width: 1060
Flags: W
HStem: -21 55<220.547 387.688> -13 55<733.818 824.174> 168 50<747.111 784.671> 254 55<290.885 427.032> 528 142G<481.366 546.719 864.197 897.138> 644 55<391.665 681.97>
VStem: 481.366 50<366.588 528>
LayerCount: 2
Fore
SplineSet
884.96484375 690 m 1x36
 912.354492188 645 l 1
 885.125 633 866.895507812 621 847.358398438 606 c 1
 898.208007812 572 939.98046875 534 953.6015625 475 c 0
 968.146484375 412 936.383789062 346 848.770507812 327 c 1
 849.232421875 325 l 1
 921.388671875 294 963.086914062 239 973.475585938 194 c 0
 986.635742188 137 969.565429688 68 910.185546875 22 c 0
 880.725585938 -2 841.265625 -13 789.265625 -13 c 0
 706.265625 -13 665.875 45 657.333007812 82 c 0
 646.482421875 129 665.3984375 203 781.934570312 218 c 1
 801.478515625 168 l 1
 744.6328125 163 713.944335938 127 723.87109375 84 c 0
 730.797851562 54 755.567382812 42 778.567382812 42 c 0x76
 840.567382812 42 860.63671875 124 843.552734375 198 c 0
 834.086914062 239 812.852539062 279 781.00390625 300 c 1
 766.927734375 296 745.388671875 294 728.388671875 294 c 0
 715.388671875 294 702.465820312 298 692.00390625 300 c 1
 626.1796875 74 494.112304688 -21 323.112304688 -21 c 0
 207.112304688 -21 125.645507812 33 108.330078125 108 c 0
 96.787109375 158 120.859375 201 167.859375 201 c 0
 211.859375 201 243.478515625 168 251.328125 134 c 0
 258.0234375 105 247.411132812 73 209.02734375 66 c 1
 209.2578125 65 l 1
 231.106445312 44 259.415039062 34 293.415039062 34 c 0
 397.415039062 34 467.564453125 81 537.159179688 282 c 0
 590.14453125 438 630.134765625 529 728.28125 602 c 1
 657.508789062 640 595.584960938 644 541.584960938 644 c 4xb6
 365.584960938 644 200.82421875 565 237.30078125 407 c 0
 250.921875 348 304.92578125 309 359.92578125 309 c 0
 432.92578125 309 510.688476562 375 481.366210938 528 c 1
 531.366210938 528 l 1x3a
 562.071289062 395 511.624023438 254 366.624023438 254 c 0
 316.624023438 254 266.315429688 264 223.927734375 296 c 0
 187.694335938 323 155.3046875 368 144.684570312 414 c 0
 120.674804688 518 180.743164062 600 268.892578125 647 c 4
 342.658203125 687 435.887695312 699 519.887695312 699 c 4
 598.887695312 699 701.119140625 685 785.27734375 641 c 1
 815.4296875 662 843.428710938 675 884.96484375 690 c 1x36
838.447265625 480 m 0
 831.751953125 509 817.288085938 537 794.670898438 557 c 1
 755.983398438 508 735.219726562 455 708.3046875 368 c 1
 724.536132812 367 760.228515625 364 782.537109375 354 c 1
 833.228515625 364 851.607421875 423 838.447265625 480 c 0
EndSplineSet
EndChar

StartChar: percent
Encoding: 37 37 62
Width: 1060
Flags: W
HStem: -21 42<215.95 376.75> -13 38<740.417 834.954> 195 39<747.111 782.93> 268 41<297.028 425.142> 508 20G<481.366 535.719 852.618 889.473> 660 39<379.196 672.541>
VStem: 108.33 142.998<80.9238 173.25> 481.366 39<371.961 528>
LayerCount: 2
Fore
SplineSet
697.3046875 361 m 1x7f
 713.536132812 360 760.228515625 356 782.537109375 346 c 1
 833.228515625 356 871.607421875 423 858.447265625 480 c 0
 847.392578125 527.8828125 828.53515625 565.380859375 791 590.822265625 c 0
 727.051757812 634.16796875 647.803710938 660 531.584960938 660 c 0
 294.584960938 660 208.82421875 565 245.30078125 407 c 0
 258.921875 348 304.92578125 309 359.92578125 309 c 0
 442.92578125 309 510.688476562 395 481.366210938 528 c 1
 520.366210938 528 l 1
 551.071289062 395 504.624023438 268 359.624023438 268 c 0
 309.624023438 268 260.315429688 288 217.927734375 320 c 0
 181.694335938 347 153.3046875 380 142.684570312 426 c 0
 118.674804688 530 190.743164062 602 278.892578125 649 c 0
 352.658203125 689 435.887695312 699 519.887695312 699 c 0
 613.700195312 699 732.87890625 673.10546875 818 625.115234375 c 0
 880.100585938 590.104492188 937.363782551 545.33422092 953.6015625 475 c 0
 968.146484375 412 936.383789062 346 848.770507812 327 c 1
 849.232421875 325 l 1
 921.388671875 294 963.086914062 239 973.475585938 194 c 0
 986.635742188 137 969.565429688 68 910.185546875 22 c 0
 880.725585938 -2 841.265625 -13 789.265625 -13 c 0
 706.265625 -13 665.875 45 657.333007812 82 c 0
 646.482421875 129 665.3984375 219 781.934570312 234 c 1
 787.478515625 195 l 1
 730.6328125 190 704.942382812 127 714.87109375 84 c 0
 721.797851562 54 751 25 787 25 c 0
 849 25 888.086917954 102.654383899 878.552734375 178 c 0
 871.086914062 237 812.852539062 286 781.00390625 307 c 1
 766.927734375 303 745.388671875 302 728.388671875 302 c 0
 715.388671875 302 698.465820312 305 688.00390625 307 c 1
 697.3046875 361 l 1x7f
878.96484375 692 m 1
 897.354492188 657 l 1
 859.266601562 640.21484375 846.747070312 632.081054688 820 607.206054688 c 0
 756.526367188 548.174804688 733.908203125 453.951171875 706.11328125 338 c 0
 648.202148438 96.419921875 507.578463776 -21 323.112304688 -21 c 0
 207.112304688 -21 125.645507812 33 108.330078125 108 c 0
 96.787109375 158 120.859375 201 167.859375 201 c 0
 211.859375 201 243.478515625 168 251.328125 134 c 0
 260.349300955 94.9257816279 233.173096647 71.9201106123 189.2578125 63 c 5
 211.106445312 42 234.415039062 21 293.415039062 21 c 0xbf
 397.415039062 21 457.564453125 81 527.159179688 282 c 0
 587.069335938 458.388671875 640.926589081 542.226925186 761 624.388047426 c 0
 800.851659362 651.656841002 826.271484375 672.970703125 878.96484375 692 c 1
EndSplineSet
EndChar

StartChar: ampersand
Encoding: 38 38 63
Width: 700
Flags: W
HStem: -4 32<-22.7487 44.68 251.281 332.308> 331 33<331.227 407.717> 619 35<171.24 225.901> 626 28<366.115 485.33>
VStem: 448 153<141.524 276.925> 524 133<458.978 594.668>
LayerCount: 2
Fore
SplineSet
-7 -5 m 0xd8
 -18 -5 -24 -1 -24 7 c 0
 -24 16 -12 26 5 31 c 0
 54 44 74 53 88 96 c 2
 229 551 l 2
 244 596 229 608 189 619 c 0
 176 622 171 627 171 634 c 0
 171 645 184 654 199 654 c 0xe8
 258 654 279 647 327 647 c 0
 372 647 402 654 467 654 c 0
 590 654 657 607 657 526 c 0xd4
 657 445 568 382 474 364 c 0
 468 363 465 356 471 354 c 0
 548 327 601 282 601 197 c 0
 601 50 454 -4 277 -4 c 0
 225 -4 184 1 134 1 c 0
 92 1 35 -5 -7 -5 c 0xd8
359 364 m 0
 389 364 412 372 438 382 c 1
 485 416 524 468 524 536 c 0
 524 582 491 626 444 626 c 0xd4
 415 626 401 618 393 593 c 2
 332 389 l 2
 327 371 336 364 359 364 c 0
287 28 m 0
 369 38 448 137 448 226 c 0xc8
 448 286 414 331 352 331 c 0
 324 331 312 326 306 308 c 2
 242 101 l 2
 238 85 236 64 244 52 c 0
 252 41 267 28 287 28 c 0
EndSplineSet
EndChar

StartChar: quotesingle
Encoding: 39 39 64
Width: 912
Flags: W
HStem: -21 55<431.133 588.885> 244 55<508.881 616.001> 319 55<406.92 514.372> 623 21G<379.509 404.594> 632 55<601.983 719.606> 644 55<174.919 389.553>
VStem: 423.483 51.8467<116 209.75>
LayerCount: 2
Fore
SplineSet
411.043945312 668 m 1xe6
 399.43359375 623 l 1xf2
 359.584960938 644 309.584960938 644 283.584960938 644 c 0xe6
 192.584960938 644 89.3583984375 606 112.907226562 504 c 0
 130.453125 428 203.45703125 389 256.611328125 384 c 1
 328.364257812 541 515.658203125 687 667.658203125 687 c 0xea
 745.658203125 687 801.737304688 665 814.896484375 608 c 0
 843.29296875 485 642.155273438 321 389.6171875 319 c 1
 359.778320312 249 359.399414062 190 370.942382812 140 c 0
 385.025390625 79 440.415039062 34 502.415039062 34 c 0
 602.415039062 34 659.946289062 101 643.092773438 174 c 0
 631.549804688 224 592.932617188 244 568.932617188 244 c 0
 504.932617188 244 470.552734375 198 475.330078125 108 c 1
 423.483398438 116 l 1
 411.087890625 226 472.234375 299 583.234375 299 c 0
 670.234375 299 736.776367188 262 753.629882812 189 c 0
 766.790039062 132 736.873046875 71 687.337890625 30 c 0
 641.880859375 -7 572.112304688 -21 501.112304688 -21 c 0
 376.112304688 -21 259.106445312 44 232.325195312 160 c 0
 219.627929688 215 219.391601562 268 237.770507812 327 c 1
 143.153320312 347 45.224609375 403 22.3681640625 502 c 0
 -0.71875 602 86.8876953125 699 263.887695312 699 c 0
 302.887695312 699 351.349609375 697 411.043945312 668 c 1xe6
405.688476562 375 m 1
 406.919921875 374 l 1
 529.458007812 376 753.216796875 481 726.897460938 595 c 0
 721.818359375 617 703.35546875 632 672.35546875 632 c 0xea
 585.35546875 632 463.443359375 519 405.688476562 375 c 1
EndSplineSet
EndChar

StartChar: parenleft
Encoding: 40 40 65
Width: 912
Flags: W
HStem: -21 38<447.149 576.056> 258 41<509.985 606.911> 638 21G<382.509 407.217> 649 38<612.884 725.005> 667 39<193.758 381.009>
VStem: 423.483 38.8467<116 203.244>
LayerCount: 2
Fore
SplineSet
-36 625 m 1024,0,-1
666.658203125 687 m 0,1,-1
 744.658203125 687 801.737304688 665 814.896484375 608 c 0,4,-1
 849.549103566 457.901413705 592.865234375 306.291992188 320 320.66796875 c 0,7,-1
 175.086914062 328.302734375 51.7788796594 374.610950466 22.3681640625 502 c 0,10,-1
 -0.71875 602 86.8876953125 706 263.887695312 706 c 0,13,-1
 302.887695312 706 351.349609375 703 411.043945312 674 c 1,16,-1
 402.43359375 638 l 1,17,-1
 362.584960938 659 307.584960938 667 281.584960938 667 c 0,20,-1
 190.584960938 667 86.8956364641 605.399923504 112.907226562 504 c 0,23,-1
 138.297468013 405.022254652 196.942382812 366.774414062 332 359.984375 c 0,26,-1
 481.709960938 352.458007812 777.05078125 450.26953125 743.897460938 595 c 0,29,-1
 733.818359375 639 703.35546875 649 672.35546875 649 c 0,32,-1
 582.39453125 649 440.119140625 501.94140625 395.939453125 348 c 0,35,-1
 374.267578125 272.483398438 360.583007812 202.197265625 374.942382812 140 c 0,38,-1
 389.025390625 79 440.415039062 17 502.415039062 17 c 4,41,-1
 602.415039062 17 659.946289062 101 643.092773438 174 c 0,44,-1
 631.549804688 224 592.932617188 258 568.932617188 258 c 0,47,-1
 504.932617188 258 457.552734375 202 462.330078125 112 c 1,50,-1
 423.483398438 116 l 1,51,-1
 411.087890625 226 472.234375 299 583.234375 299 c 0,54,-1
 670.234375 299 736.776367188 262 753.629882812 189 c 0,57,-1
 766.790039062 132 736.873046875 71 687.337890625 30 c 0,60,-1
 641.880859375 -7 572.112304688 -21 501.112304688 -21 c 0,63,-1
 376.112304688 -21 249.106445312 44 222.325195312 160 c 0,66,-1
 207.000976562 226.379882812 225.708007812 323.532226562 246.025390625 385 c 0,69,-1
 303.21484375 558.017578125 508.9609375 687 666.658203125 687 c 0,1,-1
EndSplineSet
EndChar

StartChar: parenright
Encoding: 41 41 66
Width: 698
Flags: W
HStem: -14 39<249.048 402.031> 436 21G<599.5 612.5> 627 20G<691 702.5> 628 36<400.142 529.701>
VStem: 32 153<144.114 337.347> 537 40<142.881 190.27> 590 39<436.36 512.242>
LayerCount: 2
Fore
SplineSet
288 -14 m 0xde
 147 -14 32 99 32 251 c 0
 32 490 232 664 479 664 c 0xde
 524 664 560 654 588 644 c 0
 613 636 626 631 642 631 c 0
 651 631 658 632 667 637 c 0
 677 643 686 647 696 647 c 0xee
 709 647 712 637 704 625 c 0
 678 592 643 508 629 458 c 0
 626 445 619 436 606 436 c 0
 593 436 588 456 590 483 c 0
 592 512 585 544 568 570 c 0
 547 604 514 628 477 628 c 0
 305 628 185 381 185 186 c 0
 185 75 240 25 325 25 c 0
 407 25 474 81 537 166 c 0
 547 179 553 192 563 192 c 0
 573 192 580 181 577 166 c 0
 562 107 512 -9 495 -9 c 0
 483 -9 478 -3 470 2 c 0
 462 7 453 11 434 11 c 0
 419 11 402 5 380 -1 c 0
 357 -7 326 -14 288 -14 c 0xde
EndSplineSet
EndChar

StartChar: asterisk
Encoding: 42 42 67
Width: 991
Flags: W
HStem: -17 55<216.481 375.601 529.838 713.88> 87 55<214.514 350.515> 230 58<247.297 410.891> 534 59G<461.98 514.789 805.474 837.594> 644 55<275.271 533.833>
LayerCount: 2
Fore
SplineSet
825.7421875 613 m 1
 853.592773438 566 l 1
 825.59375 553 814.903320312 543 795.674804688 518 c 1
 847.526367188 458 885.995117188 391 901.462890625 324 c 0
 946.944335938 127 806.112304688 -21 626.112304688 -21 c 0
 562.112304688 -21 500.341796875 -9 450.6484375 7 c 1
 405.341796875 -9 360.189453125 -17 298.189453125 -17 c 0
 253.189453125 -17 216.265625 -13 187.725585938 -2 c 0
 152.724609375 11 130.415039062 34 124.181640625 61 c 0
 117.486328125 90 132.407226562 112 160.174804688 126 c 0
 182.635742188 137 212.481445312 142 247.481445312 142 c 0
 325.481445312 142 386.17578125 113 446.640625 85 c 1
 482.252929688 117 512.862304688 175 564.618164062 306 c 0
 598.995117188 391 625.98828125 456 696.05859375 525 c 1
 616.588867188 605 504.584960938 644 402.584960938 644 c 0
 313.584960938 644 253.6640625 622 212.4375 584 c 0
 171.209960938 546 148.676757812 492 164.375976562 424 c 0
 182.153320312 347 242.774414062 288 329.774414062 288 c 0
 419.774414062 288 504.153320312 347 461.98046875 534 c 1
 511.98046875 534 l 1
 517.59765625 514 518.521484375 510 521.291992188 498 c 0
 563.771484375 314 441.165039062 230 344.165039062 230 c 0
 206.165039062 230 102.00390625 300 71.529296875 432 c 0
 50.7509765625 522 90.0517578125 590 147.125 633 c 0
 212.8125 682 302.887695312 699 383.887695312 699 c 0
 520.887695312 699 652.123046875 646 744.592773438 566 c 1
 777.590820312 592 785.205078125 598 825.7421875 613 c 1
527.952148438 49 m 1
 528.413085938 47 l 1
 550.029296875 40 583.415039062 34 609.415039062 34 c 0
 744.415039062 34 847.096679688 135 800.692382812 336 c 0
 791.458007812 376 776.377929688 411 757.758789062 444 c 1
 756.758789062 444 l 1
 737.686523438 401 723.615234375 345 711.00390625 300 c 0
 682.013671875 196 622.715820312 102 527.952148438 49 c 1
376.490234375 51 m 1
 376.258789062 52 l 1
 329.025390625 79 289.178710938 87 253.178710938 87 c 0
 240.178710938 87 210.333007812 82 214.2578125 65 c 0
 218.875 45 241.491210938 38 284.491210938 38 c 0
 318.491210938 38 348.567382812 42 376.490234375 51 c 1
EndSplineSet
EndChar

StartChar: plus
Encoding: 43 43 68
Width: 991
Flags: W
HStem: -17 34<235.022 374.588 516.723 691.818> 116 36<219.229 307.546> 240 37<263.847 406.709> 514 20G<461.98 527.781 797.904 833.309> 667 32<290.847 495.41>
VStem: 461.98 39<330.021 529>
LayerCount: 2
Fore
SplineSet
124.181640625 61 m 0
 117.486328125 90 132.407226562 117 160.174804688 131 c 0
 182.635742188 142 212.481445312 152 247.481445312 152 c 0
 340.76171875 152 394.865234375 98.9541015625 459 59.458984375 c 0
 492.610138502 38.7613744923 556.587890625 16 609.415039062 16 c 0
 744.415039062 16 847.096679688 135 800.692382812 336 c 0
 786.910885365 395.696503327 760.058839075 440.980494956 728.051287616 483 c 0
 652.696144313 581.92621209 528.623046875 667 402.584960938 667 c 0
 313.584960938 667 243.6640625 642 202.4375 604 c 0
 161.209960938 566 148.676757812 492 164.375976562 424 c 0
 182.153320312 347 247.774414062 277 334.774414062 277 c 0
 424.774414062 277 504.153320312 342 461.98046875 529 c 1
 500.98046875 534 l 1
 554.58203125 343.150390625 463.905273438 240 344.165039062 240 c 0
 206.165039062 240 97.00390625 300 66.529296875 432 c 0
 45.7509765625 522 90.0517578125 590 147.125 633 c 0
 212.8125 682 302.887695312 699 383.887695312 699 c 0
 536.167232725 699 673.120855524 633.159664091 768 544.005047029 c 0
 830.470213541 485.303970024 883.452814349 402.012204884 901.462890625 324 c 0
 946.944335938 127 806.112304688 -21 626.112304688 -21 c 0
 539.012836824 -21 464.863799768 -1.599197812 411 30.9842468001 c 0
 365.20065259 58.6893197069 302.517578125 116 254.178710938 116 c 0
 215.178710938 116 210.333007812 82 214.2578125 65 c 0
 218.875 45 241.491210938 17 284.491210938 17 c 0
 336.720703125 17 379.384765625 32.54296875 413 52.2412109375 c 0
 491.950195312 98.505859375 489.888671875 149.754882812 551.618164062 306 c 4
 590.004882812 400.913085938 632.563476562 487.275390625 715 556.9140625 c 0
 751.142578125 587.446289062 775.065429688 598.09765625 820.7421875 615 c 1
 839.592773438 585 l 1
 799.486328125 566.37890625 786.442382812 539.459960938 765.165039062 499 c 0
 738.186523438 447.69921875 727.924804688 360.377929688 711.00390625 300 c 0
 675.362304688 172.138671875 601.236977493 88.8164950038 487 26.7502242322 c 0
 435.266793262 -1.35702516937 379.973116989 -17 298.189453125 -17 c 0
 253.189453125 -17 216.265625 -13 187.725585938 -2 c 0
 152.724609375 11 130.415039062 34 124.181640625 61 c 0
EndSplineSet
EndChar

StartChar: comma
Encoding: 44 44 69
Width: 785
Flags: W
HStem: -7 37<-45.7656 34.0679 248.479 386.437> 616 34<143.147 204.725 381.072 505.437>
VStem: 589 159<272.56 495.558>
LayerCount: 2
Fore
SplineSet
311 -7 m 0
 242 -7 149 3 114 3 c 0
 75 3 14 -3 -31 -3 c 0
 -40 -3 -48 2 -46 11 c 0
 -42 22 -33 30 -18 32 c 0
 38 42 55 55 68 97 c 2
 211 553 l 2
 223 598 205 606 157 619 c 0
 145 622 140 629 143 640 c 0
 146 649 158 655 167 655 c 0
 213 655 273 650 314 650 c 0
 353 650 389 654 455 654 c 0
 642 654 748 535 748 384 c 0
 748 175 554 -7 311 -7 c 0
311 30 m 0
 456 30 589 220 589 401 c 0
 589 557 529 616 440 616 c 0
 394 616 376 604 367 572 c 2
 232 123 l 2
 210 53 262 30 311 30 c 0
EndSplineSet
EndChar

StartChar: hyphen
Encoding: 45 45 70
Width: 826
Flags: W
HStem: -21 55<346.276 510.23> 234 55<425.939 533.724> 317 78<438.071 516.092> 632 55<254.075 332.064 522.682 635.896> 644 55<165.264 331.602>
VStem: 335.483 51.3086<116 191.125>
LayerCount: 2
Fore
SplineSet
334.581054688 683 m 1xec
 331.663085938 635 l 1
 302.81640625 643 284.584960938 644 252.584960938 644 c 0xec
 169.584960938 644 124.358398438 606 137.517578125 549 c 0
 152.754882812 483 225.295898438 459 307.680664062 453 c 1
 298.899414062 582 447.658203125 687 580.658203125 687 c 0xf4
 667.658203125 687 716.4296875 662 729.126953125 607 c 0
 747.596679688 527 631.530273438 419 437.37890625 398 c 1
 438.071289062 395 l 1
 489.45703125 389 521.534179688 380 526.61328125 358 c 0
 531.923828125 335 513.079101562 317 464.079101562 317 c 0
 439.079101562 317 413.462890625 324 397.846679688 331 c 1
 308.465820312 298 266.473632812 220 286.096679688 135 c 0
 299.71875 76 352.415039062 34 423.415039062 34 c 0
 511.415039062 34 579.409179688 86 560.016601562 170 c 0
 550.08984375 213 511.241210938 234 486.241210938 234 c 0
 428.241210938 234 390.552734375 198 386.791992188 106 c 1
 335.483398438 116 l 1
 333.165039062 230 387.54296875 289 501.54296875 289 c 0
 599.54296875 289 656.470703125 246 673.32421875 173 c 0
 683.712890625 128 669.254882812 91 645.950195312 62 c 0
 600.110351562 5 509.112304688 -21 431.112304688 -21 c 0
 302.112304688 -21 174.260742188 39 147.249023438 156 c 0
 123.931640625 257 189.307617188 342 334.534179688 380 c 1
 334.072265625 382 l 2
 329.91796875 387 325.533203125 393 323.37890625 398 c 1
 175.532226562 406 66.3720703125 463 45.8251953125 552 c 0
 27.5869140625 631 95.8876953125 699 227.887695312 699 c 0
 266.887695312 699 298.349609375 697 334.581054688 683 c 1xec
429.219726562 455 m 1
 431.680664062 453 l 1
 564.294921875 472 653.364257812 541 639.512695312 601 c 4
 634.202148438 624 618.35546875 632 587.35546875 632 c 4xf4
 511.35546875 632 434.133789062 542 429.219726562 455 c 1
EndSplineSet
EndChar

StartChar: period
Encoding: 46 46 71
Width: 826
Flags: W
HStem: -21 28<370.448 484.475> 259 30<431.971 520.623> 405 30<251.077 494.347> 657 21G<317.24 333.825> 657 21G<317.24 333.825> 670 29<192.219 331.602>
VStem: 335.483 34.3086<116 187.041>
LayerCount: 2
Fore
SplineSet
587.35546875 663 m 0xe6
 504.755859375 663 438.791397255 527.852271099 432.941457648 429 c 0
 432.267142224 417.605418938 435.928710938 385.901367188 438.071289062 375 c 1
 489.45703125 374 521.534179688 370 526.61328125 348 c 0
 531.923828125 325 489.238902728 314.412368872 471.079101562 320 c 0
 445.079101562 328 433.462890625 337 417.846679688 344 c 1
 328.465820312 311 266.473632812 220 286.096679688 135 c 0
 299.71875 76 352.415039062 7 423.415039062 7 c 0
 511.415039062 7 584.409179688 86 565.016601562 170 c 0
 555.08984375 213 526.241210938 259 481.241210938 259 c 0
 423.241210938 259 373.552734375 205 369.791992188 113 c 1
 335.483398438 116 l 1
 333.165039062 230 387.54296875 289 501.54296875 289 c 0
 599.54296875 289 656.470703125 246 673.32421875 173 c 0
 683.712890625 128 669.254882812 91 645.950195312 62 c 0
 600.110351562 5 509.112304688 -21 431.112304688 -21 c 0
 302.112304688 -21 154.260742188 39 127.249023438 156 c 0
 103.931640625 257 189.307617188 342 334.534179688 380 c 1
 334.072265625 382 l 1
 323.61490758 394.586194921 324.454716691 410.007827551 315.387073864 426 c 0
 234.841570833 568.054291177 430.452108889 677 580.658203125 687 c 0
 667.466038521 692.779248561 716.4296875 662 729.126953125 607 c 0
 750.794804211 513.147604241 594.614257812 405 378 405 c 0
 206.369140625 405 69.9877563361 447.338442897 45.8251953125 552 c 0
 27.5869140625 631 95.8876953125 699 227.887695312 699 c 0xe6
 266.887695312 699 298.349609375 698 334.581054688 684 c 1
 331.663085938 657 l 1xf2
 302.81640625 665 284.584960938 670 252.584960938 670 c 0
 169.584960938 670 124.358398438 606 137.517578125 549 c 0
 156.810166434 465.434641527 258.450195312 435 368 435 c 0
 523.221679688 435 623.902968354 524.440172987 639.512695312 601 c 0
 644.202148438 624 638.35546875 663 587.35546875 663 c 0xe6
EndSplineSet
EndChar

StartChar: slash
Encoding: 47 47 72
Width: 663
Flags: W
HStem: 0 36<-22.6269 58.4549 247.161 450.019> 313 41<325.191 456.047> 432 210G<536.5 544.5 625 635.5> 494 21G<603 609.5> 615 34<164.308 226.5 400.461 567.276>
VStem: 461 34<221.105 308.38> 591 31<494.02 583.653>
LayerCount: 2
Fore
SplineSet
-11 -5 m 0xe6
 -24 -5 -29 2 -27 10 c 0
 -26 18 -15 27 1 31 c 0
 52 44 72 54 85 96 c 2
 225 551 l 2
 239 596 229 609 183 619 c 0
 167 623 162 631 164 640 c 0
 167 648 179 655 206 655 c 0
 231 655 291 649 331 649 c 2xce
 496 650 l 2
 586 650 619 662 631 662 c 0
 640 662 649 654 649 642 c 0xe6
 649 619 624 558 622 514 c 0
 622 501 613 494 606 494 c 0
 600 494 593 500 591 512 c 0
 584 586 572 615 521 615 c 2
 443 615 l 2xde
 410 615 391 600 374 543 c 2
 326 379 l 2
 321 360 327 354 344 354 c 6
 435 354 l 2
 470 355 492 378 513 412 c 0
 520 424 532 432 541 432 c 0
 548 432 552 423 546 408 c 0
 534 380 523 355 516 329 c 0
 508 303 502 278 495 248 c 0
 490 230 484 221 477 221 c 0
 467 221 460 233 461 246 c 0
 463 289 454 313 429 313 c 2
 329 313 l 2
 313 313 301 305 297 289 c 2
 246 114 l 2
 231 61 245 36 297 36 c 2
 384 36 l 2
 411 36 440 46 464 62 c 0
 491 80 514 118 538 155 c 0
 545 164 548 168 556 168 c 0
 564 168 566 161 566 145 c 0
 566 124 538 46 512 9 c 0
 505 0 494 -4 483 -4 c 0
 448 -4 245 0 129 0 c 0
 88 0 30 -5 -11 -5 c 0xe6
EndSplineSet
EndChar

StartChar: zero
Encoding: 48 48 73
Width: 1042
Flags: W
HStem: -21 55<233.467 391.057> 299 84<675.728 791.234> 314 125<848.809 906.542> 336 55<268.285 391.584> 535 144G<435.448 482.828 641.403 691.501 896.773 932.886> 570 91<603.582 855.701> 644 55<280.362 497.22>
VStem: 435.75 47.0781<439.24 526>
LayerCount: 2
Fore
SplineSet
915.887695312 699 m 1x83
 951.583984375 657 l 1
 906.896484375 608 831.669921875 570 753.669921875 570 c 0x85
 601.669921875 570 483.584960938 644 379.584960938 644 c 0x83
 263.584960938 644 198.053710938 577 217.676757812 492 c 0
 234.76171875 418 292.995117188 391 332.995117188 391 c 0
 381.995117188 391 435.145507812 425 435.75 535 c 1x99
 482.828125 526 l 1
 500.377929688 411 432.692382812 336 334.692382812 336 c 0
 304.692382812 336 273.076171875 343 240.61328125 358 c 0
 187.841796875 383 140.298828125 433 125.984375 495 c 0
 109.130859375 568 143.125976562 620 206.353515625 658 c 0
 258.96484375 690 334.887695312 699 425.887695312 699 c 0x93
 536.887695312 699 674.66015625 661 780.66015625 661 c 0x85
 814.66015625 661 877.659179688 674 915.887695312 699 c 1x83
667.439453125 558 m 1
 710.750976562 522 l 1
 689.370117188 489 685.912109375 452 673.842773438 370 c 1
 713.99609375 378 757.841796875 383 804.841796875 383 c 1xc1
 817.0703125 408 838.913085938 439 870.913085938 439 c 0
 901.913085938 439 923.9921875 417 929.071289062 395 c 0
 938.305664062 355 909.924804688 322 847.771484375 314 c 1xa1
 856.775390625 275 867.546875 250 872.625 241 c 1
 808.627929688 215 l 1
 803.087890625 226 799.548828125 237 796.778320312 249 c 0
 792.622070312 267 791.852539062 279 791.234375 299 c 1xc1
 744.234375 299 701.388671875 294 661.466796875 285 c 1
 625.02734375 66 478.112304688 -21 326.112304688 -21 c 0
 210.112304688 -21 135.645507812 33 118.330078125 108 c 0
 106.787109375 158 133.859375 201 180.859375 201 c 0
 224.859375 201 256.478515625 168 264.328125 134 c 0
 271.0234375 105 260.411132812 73 222.02734375 66 c 1
 222.2578125 65 l 1
 236.720703125 50 264.415039062 34 309.415039062 34 c 0
 413.415039062 34 464.637695312 111 496.473632812 220 c 0
 497.01171875 222 498.319335938 225 498.625976562 228 c 1
 438.013671875 196 395.86328125 162 378.25 143 c 1
 334.938476562 179 l 1
 363.08984375 213 428.544921875 276 528.694335938 323 c 1
 578.217773438 468 615.3671875 515 667.439453125 558 c 1
EndSplineSet
EndChar

StartChar: Ccaron
Encoding: 268 268 74
Width: 721
Flags: W
HStem: -14 64<532.81 590.273> 356 58<70.8475 157.696> 372 42<552.54 611.814>
LayerCount: 2
Fore
SplineSet
30 -17 m 0xa0
 20 -17 12 1 12 13 c 0
 12 19 21 46 35 84 c 2
 127 325 l 2
 133 342 126 356 110 356 c 0
 90 356 70 352 38 310 c 0
 33 304 25 304 23 314 c 0
 22 326 31 353 40 364 c 0
 63 392 94 413 139 414 c 0xc0
 166 414 201 402 185 360 c 2
 128 212 l 2
 124 202 133 201 137 208 c 0
 222 339 299 414 364 414 c 0
 402 414 436 381 414 317 c 2
 378 212 l 2
 374 202 383 201 387 208 c 0
 471 345 553 414 618 414 c 0
 655 414 689 378 662 308 c 2
 576 86 l 2
 565 60 569 50 581 50 c 0
 613 50 682 121 692 131 c 0
 693 132 694 132 695 132 c 0
 699 132 703 128 703 123 c 0
 703 112 699 102 685 87 c 0
 641 37 586 -14 523 -14 c 0
 507 -14 485 9 493 32 c 2
 609 331 l 2
 619 357 604 371 589 372 c 0
 567 373 530 351 486 297 c 0
 455 259 383 151 343 78 c 0
 308 14 280 -17 264 -17 c 0
 254 -17 246 -2 246 10 c 0
 246 16 255 46 269 84 c 2
 362 334 l 2
 374 365 351 374 342 375 c 0
 320 377 283 353 239 299 c 0
 208 261 136 151 96 78 c 0
 61 14 46 -17 30 -17 c 0xa0
EndSplineSet
EndChar

StartChar: ccaron
Encoding: 269 269 75
Width: 755
Flags: W
HStem: -11 27<458.459 529.348> 299 27<30.6336 136.636> 414 27<411.494 486.42>
LayerCount: 2
Fore
SplineSet
250.38671875 268.471679688 m 1
 318.240234375 379.372070312 393.774659481 441 459.031373033 441 c 0
 502.212961833 441 535.535585398 418.2109375 544.296631435 379.73046875 c 0
 551.3060502 348.946289062 545.900834927 307.926757812 529.018872422 264.809570312 c 2
 464.322140899 99.6337890625 l 2
 453.404567986 70.5198225601 440.083612137 16 483.290343858 16 c 0
 533.821783965 16 603.241210938 68.32421875 680.416992188 191.380859375 c 1
 702.890625 176.052734375 l 1
 630.068359375 53.2685546875 555.544483852 -11 485.202973414 -11 c 0
 446.12209342 -11 411.480414988 12.66015625 400.624399458 60.3408203125 c 0
 392.931205928 94.130859375 399.359658615 148.31640625 416.871081862 188.297851562 c 2
 486.151529046 346.423828125 l 2
 492.662422663 361.57421875 496.836843358 374.97265625 494.17933576 386.64453125 c 0
 491.049490132 400.391601562 477.581551987 414 458.957661144 414 c 0
 371.199777002 414 251.205549772 268.966796875 188.033490492 54.927734375 c 2
 172.693658309 3 l 1
 99.0166015625 3 l 1
 134.027409751 118.524507002 169.051847665 234.035384279 204.05418776 349.568359375 c 1
 174.555484428 316.353317306 133.611299146 299 86.6552734375 299 c 0
 67.2490234375 299 45.8564453125 304.197265625 26.60546875 314.325195312 c 1
 30.1494140625 337.374023438 l 1
 48.9384765625 329.6328125 64.953125 326 81.7294921875 326 c 0
 148.382313247 326 198.736262883 381.615234375 226.366582764 424 c 1
 295.078672484 424 l 1
 279.939880381 372.209374875 263.529601834 321.506396927 250.38671875 268.471679688 c 1
EndSplineSet
EndChar

StartChar: Dcaron
Encoding: 270 270 76
Width: 486
Flags: W
HStem: -14 64<261.62 346.77> 372 42<314.76 371.499>
VStem: 45 15<305.93 319.102>
LayerCount: 2
Fore
SplineSet
41 -16 m 0
 25 -16 9 11 16 28 c 2
 132 312 l 2
 144 341 147 356 134 356 c 0
 114 356 92 352 60 310 c 0
 55 304 47 304 45 314 c 0
 44 326 58 352 66 364 c 0
 86 394 121 413 166 414 c 0
 187 414 208 395 199 371 c 2
 133 201 l 2
 129 191 138 190 142 197 c 0
 224 337 315 414 376 414 c 0
 418 414 450 367 423 304 c 2
 331 86 l 2
 320 60 324 50 336 50 c 0
 368 50 440 108 450 118 c 0
 451 119 452 119 453 119 c 0
 457 119 461 115 461 110 c 0
 461 105 459 99 457 96 c 0
 405 33 340 -14 277 -14 c 0
 259 -14 236 8 246 30 c 0
 285 119 325 208 360 297 c 0
 381 352 371 371 352 372 c 0
 330 373 295 348 251 294 c 0
 220 256 137 128 72 15 c 0
 60 -7 52 -16 41 -16 c 0
EndSplineSet
EndChar

StartChar: dcaron
Encoding: 271 271 77
Width: 691
Flags: W
HStem: -11 27<275.51 373.05> 173.614 27.0908<42.251 150.758 559.187 652.12> 407.5 32<400.99 496.258>
LayerCount: 2
Fore
SplineSet
541.642842505 222.568359375 m 1
 560.488115124 211.256282516 585.405097048 204.71875 606.1953125 204.71875 c 0
 630.750976562 204.71875 645.327148438 207.736328125 661.19921875 220.106445312 c 1
 677.229492188 197.48046875 l 1
 658.740234375 182.984375 640.26171875 177.627929688 609.122070312 177.627929688 c 0
 587.659788666 177.627929688 561.288747694 181.491132348 535.30252686 196.383789062 c 1
 488.784704259 60.7533458097 414.561717781 -11 316.324638611 -11 c 0
 251.491736621 -11 200.743039848 26.544921875 182.773804039 105.224609375 c 0
 175.514256751 137.003831729 175.376139161 169.449963403 180.587020352 200.624023438 c 1
 161.988012404 181.6555094 134.349508116 173.614257812 102.044921875 173.614257812 c 0
 78.66015625 173.614257812 59.1767578125 178.77734375 35.771484375 190.038085938 c 1
 39.3193359375 213.185546875 l 1
 60.2060546875 205.322265625 79.28515625 200.705078125 98.119140625 200.705078125 c 0
 151.858398438 200.705078125 184.477866859 234.368164062 205.450052961 273.74609375 c 0
 253.673673713 365.71875 344.52600589 439.5 441.041099724 439.5 c 0
 539.952415875 439.5 570.288522712 330.10185553 541.642842505 222.568359375 c 1
519.27386771 353.620117188 m 1
 508.814665122 385.921920554 488.490983711 407.5 451.046410547 407.5 c 0
 444.394943499 407.5 437.748323047 406.6953125 431.136598079 405.16796875 c 0
 323.740898357 380.341796875 223.733348129 164.55078125 242.711645028 81.4130859375 c 0
 250.365387931 47.88671875 274.774779243 16 314.413141523 16 c 0
 382.148997732 16 459.531030578 66.5243625165 504.349262911 210.592773438 c 1
 488.146696471 229.573755248 479.335672645 249.632545857 474.72978192 269.809570312 c 0
 465.845951632 308.721227765 485.938175795 347.598014833 519.27386771 353.620117188 c 1
EndSplineSet
EndChar

StartChar: Dcroat
Encoding: 272 272 78
Width: 404
Flags: W
HStem: -14 30<102.297 172.621> 384 30<224.128 297.114>
VStem: 27 64<28.3919 194.428> 308 64<212.641 372.016>
LayerCount: 2
Fore
SplineSet
118 -14 m 0
 69 -14 27 41 27 99 c 0
 27 224 133 414 267 414 c 0
 334 414 372 362 372 296 c 0
 372 176 272 -14 118 -14 c 0
134 16 m 0
 214 16 308 211 308 324 c 0
 308 359 299 384 265 384 c 0
 188 384 91 210 91 78 c 0
 91 34 107 16 134 16 c 0
EndSplineSet
EndChar

StartChar: dcroat
Encoding: 273 273 79
Width: 767
Flags: W
HStem: -11 77<343.372 468.026> 298.342 27.125<94.7776 201.397> 414 27<475.203 554.243>
LayerCount: 2
Fore
SplineSet
411.33168192 66 m 0
 430.300184826 66 447.413262934 65.8918146106 469.036588333 61.9169921875 c 1
 520.111249742 95.6163135686 590.876984181 276.666308308 568.946289062 372.479492188 c 0
 563.303710938 397.131835938 548.063476562 414 522.337337709 414 c 0
 434.787301218 414 317.071885092 268.256835938 252.080575637 53.203125 c 2
 172.279296875 -209 l 1
 98.416015625 -209 l 1
 155.147509559 -22.3388463936 211.912771535 164.288539172 268.623255122 350.970703125 c 1
 239.92585718 311.755698985 199.755585956 298.341796875 150.798828125 298.341796875 c 0
 131.392578125 298.341796875 110 303.563476562 90.75 313.73828125 c 1
 94.29296875 336.893554688 l 1
 113.08203125 329.116210938 129.096679688 325.466796875 145.873046875 325.466796875 c 0
 212.511856319 325.466796875 262.960352852 380.315429688 290.55115826 422.927734375 c 1
 358.850423099 423.892578125 l 1
 344.470184775 374.348059031 329.623017201 325.706682314 316.252929688 274.736328125 c 1
 383.889648438 386.163085938 457.349512126 441 522.410869329 441 c 0
 565.748046875 441 618.798828125 416.286132812 635.717773438 342.536132812 c 0
 657.769625132 246.408884783 607.863851342 108.395165922 528.517863885 44.4892578125 c 1
 572.922440806 27.9823003531 616.419411529 5.29138208395 651.788085938 -30.564453125 c 1
 636.217773438 -48.478515625 l 1
 579.50382502 -7.32730889828 549.440428662 12.8731023652 497.142115082 17.03515625 c 1
 471.412364683 0.0980778833654 442.369694012 -11 411.797059673 -11 c 0
 362.326727193 -11 338.196745536 4.0810546875 334.592728629 19.837890625 c 0
 329.951528869 40.126953125 356.909575336 66 411.33168192 66 c 0
EndSplineSet
EndChar

StartChar: Emacron
Encoding: 274 274 80
Width: 508
Flags: W
HStem: -286 29<-72.9731 -7.40878> -279 26<85 151.699> -14 34<198.697 271.416> 378 37<300.236 378.923>
VStem: 403 74<192.684 358.203>
LayerCount: 2
Fore
SplineSet
-59 -286 m 0xb8
 -66 -286 -75 -284 -75 -277 c 0
 -75 -267 -57 -259 -45 -257 c 0xb8
 -17 -252 -2 -246 7 -220 c 2
 200 319 l 2
 210 347 209 353 189 350 c 0
 157 345 137 340 109 327 c 0
 98 322 88 326 88 334 c 0
 88 345 95 351 103 355 c 0
 124 366 166 387 219 401 c 0
 228 403 234 407 237 417 c 0
 256 480 267 506 297 506 c 0
 308 506 318 499 315 487 c 2
 298 429 l 2
 294 416 298 410 303 411 c 0
 320 414 333 415 347 415 c 0
 447 415 477 360 477 290 c 0
 477 163 347 -14 215 -14 c 0
 203 -14 187 -4 174 4 c 0
 162 12 156 11 147 -14 c 2
 81 -209 l 2
 71 -237 88 -250 122 -253 c 0
 135 -254 152 -258 152 -268 c 0
 152 -276 138 -279 123 -279 c 0
 92 -279 58 -277 40 -279 c 0x78
 7 -283 -23 -286 -59 -286 c 0xb8
234 20 m 0
 296 20 403 175 403 281 c 0
 403 356 375 377 327 378 c 0
 315 378 303 378 289 376 c 1
 197 106 l 2
 189 82 189 61 194 46 c 0
 200 29 213 20 234 20 c 0
EndSplineSet
EndChar

StartChar: emacron
Encoding: 275 275 81
Width: 774
Flags: W
HStem: -11 27<232.118 318.404> 173.614 27.0908<19.5629 126.256> 407.5 32<371.663 469.78>
LayerCount: 2
Fore
SplineSet
438.35546875 -119.5 m 1
 479.645507812 -57.7109375 653.960267938 136.765686615 700.75390625 198.356445312 c 1
 720.602539062 182.23046875 l 1
 689.280273438 139.044921875 631.323242188 67.6240234375 551.083268983 -25.5205078125 c 0
 470.327841455 -119.708007812 426.257990786 -194.696289062 419.576241844 -209 c 1
 345.063970384 -209 l 1
 378.571979731 -101.701978008 415.17220615 4.40445353671 445.104492188 114.379882812 c 1
 393.018554688 38.3486328125 333.311388645 -11 257.86743779 -11 c 0
 178.007952204 -11 129.929680536 92.6226324745 152.829296454 195.977539062 c 1
 134.464324299 181.367812213 113.402189677 173.614257812 85.189453125 173.614257812 c 0
 61.67578125 173.614257812 37.146484375 178.53515625 12.916015625 190.0390625 c 1
 16.462890625 213.185546875 l 1
 37.3486328125 205.322265625 56.4287109375 200.705078125 75.2626953125 200.705078125 c 0
 132.107421875 200.705078125 164.081338385 241.512695312 186.967735502 280.706054688 c 0
 240.431430422 371.698242188 334.805554785 439.5 413.516479697 439.5 c 0
 459.530806671 439.5 500.829101562 411.224609375 516.826171875 367.319335938 c 1
 523.180664062 383.581054688 529.485784963 404.606047838 535.718933702 422.453125 c 1
 600.219255468 422.453125 l 1
 546.351923465 243.846324879 496.96989044 64.6409086957 438.35546875 -119.5 c 1
291.085025873 18.9541015625 m 0
 411.14012141 46.8642578125 512.979057655 264.767578125 490.263440063 364.171875 c 0
 482.474535218 398.250976562 454.580222578 407.5 425.519563405 407.5 c 0
 368.943993833 407.5 307.308110474 357.610351562 256.945616487 247.009765625 c 0
 215.931360854 156.54296875 205.902915412 95.0400390625 214.293429949 58.3251953125 c 0
 220.422086109 31.5078125 243.374466225 16 265.890194144 16 c 0
 274.354454386 16 282.767286702 17.0205078125 291.085025873 18.9541015625 c 0
EndSplineSet
EndChar

StartChar: Ebreve
Encoding: 276 276 82
Width: 500
Flags: W
HStem: -286 29<116.027 181.575> -272 26<284.637 338.699> -14 36<73.5 168.146> 387 33<295.336 362.714>
VStem: 25 70<22.7031 140.388>
LayerCount: 2
Fore
SplineSet
134 -286 m 0xb8
 127 -287 114 -285 114 -277 c 0
 114 -267 132 -259 144 -257 c 0xb8
 172 -253 198 -236 207 -211 c 0
 247 -104 288 3 328 110 c 0
 334 125 328 138 312 120 c 0
 238 37 167 -14 95 -14 c 0
 52 -14 25 12 25 47 c 0
 25 131 92 246 172 331 c 0
 224 386 293 420 342 420 c 0
 373 420 389 407 399 394 c 0
 409 383 413 372 420 372 c 0
 428 372 434 378 439 388 c 2
 448 407 l 2
 455 423 465 428 475 428 c 0
 483 428 487 415 478 390 c 2
 283 -199 l 2
 274 -227 283 -243 309 -246 c 0
 322 -247 339 -251 339 -261 c 0
 339 -269 325 -272 310 -272 c 0x78
 244 -272 162 -281 134 -286 c 0xb8
120 22 m 0
 173 22 275 115 317 188 c 0
 346 238 372 296 372 337 c 0
 372 363 359 387 333 387 c 0
 271 387 94 176 95 61 c 0
 95 34 101 22 120 22 c 0
EndSplineSet
EndChar

StartChar: ebreve
Encoding: 277 277 83
Width: 574
Flags: W
HStem: 278.5 27<473.907 544.171> 297.698 27.2812<31.2498 137.452> 427 20G<440.815 477.565>
VStem: 409.54 101.137<368.383 437.774>
LayerCount: 2
Fore
SplineSet
451.512695312 343.538085938 m 1x70
 468.5390625 318.529296875 484.59085697 305.5 515.731445312 305.5 c 0
 524.446289062 305.5 532.401367188 306.53515625 542.83984375 309.1953125 c 1
 551.21484375 284.70703125 l 1
 542.712890625 280.205078125 534.004882812 278.5 522.658203125 278.5 c 0xb0
 481.984722683 278.5 444.747849543 297.325595399 424.935473597 327.77734375 c 1
 354.539319863 286.874433597 281.484375 210.563476562 209.926757812 131.83984375 c 1
 196.703125 87.7255859375 183.476529548 45.6134672736 170.251835043 1.5 c 1
 100.62109375 1.5 l 1
 135.292239438 118.801095157 170.020000364 236.045575077 204.65598035 353.381835938 c 1
 176.38667155 318.591064073 134.51304521 297.698242188 87.271484375 297.698242188 c 0
 67.865234375 297.698242188 46.47265625 302.94921875 27.2216796875 313.182617188 c 1
 30.765625 336.471679688 l 1
 49.5546875 328.649414062 65.568359375 324.979492188 82.3447265625 324.979492188 c 0
 148.991074386 324.979492188 199.162256231 381.172851562 226.69079079 424 c 1
 295.150227506 424 l 1
 272.36740891 346.071506 245.623046875 268.78125 224.962890625 189.73046875 c 1
 283.81985473 259.834858036 343.703347791 315.291034401 409.539517104 355.978515625 c 1
 398.338083599 405.049402291 417.52734375 447 464.102539062 447 c 3
 491.02734375 447 510.676757812 433.854492188 510.676757812 412.626953125 c 3
 510.676757812 396.997070312 504.235868597 382.939216082 495.071289062 374 c 0
 480.21875 359.512695312 472.365234375 354.025390625 451.512695312 343.538085938 c 1x70
EndSplineSet
EndChar

StartChar: Edotaccent
Encoding: 278 278 84
Width: 405
Flags: W
HStem: 359 55<116.072 199.277 326.029 387.933>
VStem: 362 66<304.11 354.991>
LayerCount: 2
Fore
SplineSet
70 -17 m 0
 60 -17 45 -5 45 7 c 0
 45 23 54 46 68 84 c 2
 160 324 l 2
 166 341 167 359 154 359 c 0
 135 359 115 353 106 348 c 0
 98 343 89 346 89 356 c 0
 89 366 100 381 117 393 c 0
 133 405 156 414 180 414 c 0
 235 414 224 369 200 309 c 2
 155 196 l 2
 150 186 163 183 167 190 c 0
 247 327 334 419 381 419 c 0
 415 419 428 396 428 369 c 0
 428 332 406 288 378 288 c 0
 367 288 362 302 362 323 c 0
 362 343 357 355 343 355 c 0
 330 355 308 340 275 297 c 0
 245 258 173 148 132 75 c 0
 96 11 86 -17 70 -17 c 0
EndSplineSet
EndChar

StartChar: edotaccent
Encoding: 279 279 85
Width: 512
Flags: W
HStem: -11 27<165.572 268.003> 511 20G<297.489 309.623>
VStem: 104.959 92.5566<67.7304 129.065> 268.941 68.9189<421.044 525.587>
LayerCount: 2
Fore
SplineSet
299.046875 390.57421875 m 5
 248.001953125 309.555664062 196.105201106 274.861088858 132.051757812 245.032226562 c 1
 118.356445312 269.475585938 l 1
 174.996491736 291.301883364 236.693950771 338.065375069 283.517578125 420.302734375 c 1
 274.655500285 436.126397838 269.062327913 451.886158789 268.94140625 472.90234375 c 0
 268.71875 511.239257812 291.043945312 531 303.934570312 531 c 0
 315.310546875 531 332.485351562 523.447265625 337.860351562 500.162109375 c 0
 343.224963624 476.791313454 339.732521052 440.743304171 316.17578125 409.928710938 c 1
 365.795306174 350.510110022 402.562789616 287.969326207 416.42578125 227.5625 c 0
 430.66015625 165.543945312 421.575195312 105.76171875 379.443359375 55.8515625 c 0
 343.13671875 10.9619140625 290.7421875 -11 223.065429688 -11 c 0
 167.757177992 -11 104.958984375 18.5100907172 104.958984375 81.98828125 c 0
 104.958984375 113.711914062 124.322265625 136 148.434570312 136 c 0
 169.978515625 136 191.709960938 125.311523438 197.515625 100.162109375 c 0
 208.928710938 50.7255859375 145.14453125 75.7822265625 152.444335938 44.162109375 c 0
 156.23046875 27.7646484375 188.055664062 16 214.139648438 16 c 0
 223.916992188 16 233.411132812 17.0869140625 242.536132812 19.2080078125 c 0
 323.255859375 37.9716796875 374.2421875 137.178710938 341.806640625 278.662109375 c 0
 333.234573898 316.045758956 315.470332316 353.305254115 299.046875 390.57421875 c 5
EndSplineSet
EndChar

StartChar: Eogonek
Encoding: 280 280 86
Width: 348
Flags: W
HStem: -14 48<55 161.143> 368 46<214.801 275.411>
VStem: 136 57<250.765 338.857> 195 61<63.8505 178.411>
LayerCount: 2
Fore
SplineSet
70 -14 m 0
 40 -14 16 4 16 30 c 0
 16 61 35 76 44 76 c 0
 53 76 63 67 75 57 c 0
 89 46 105 34 135 34 c 0
 171 34 194 65 195 95 c 0
 195 124 184 160 166 193 c 0
 148 225 136 255 136 275 c 0
 136 353 235 414 269 414 c 0
 295 414 325 387 325 373 c 0
 325 361 303 336 291 336 c 0
 284 336 278 344 270 352 c 0
 262 360 251 368 233 368 c 0
 211 368 193 348 193 319 c 0
 193 302 212 254 226 227 c 0
 240 200 256 153 256 123 c 0
 256 44 150 -14 70 -14 c 0
EndSplineSet
EndChar

StartChar: eogonek
Encoding: 281 281 87
Width: 545
Flags: W
HStem: -11 27<220.395 290.645> 277.5 27<41.3098 147.975> 497.5 27<158.808 254.111 333.93 473.304> 636.5 20G<293.456 375.086> 636.5 20G<293.456 375.086>
LayerCount: 2
Fore
SplineSet
205.656586946 332.484375 m 1xf0
 176.691955812 298.312433149 143.704519208 277.5 97.3212890625 277.5 c 0
 77.9150390625 277.5 56.5224609375 282.697265625 37.2724609375 292.825195312 c 1
 40.8173828125 315.8828125 l 1
 59.8642578125 308.212890625 83.6767578125 304.5 100.395507812 304.5 c 0
 166.582735849 304.5 208.493504339 376.52650571 231.673531023 422.438476562 c 1
 239.152565011 447.459209836 246.634934818 472.478229483 254.110956202 497.5 c 1
 220.528723406 497.5 186.946490609 497.5 153.364257812 497.5 c 1
 158.808190013 524.5 l 1
 192.599040858 524.5 226.389891704 524.5 260.180742549 524.5 c 1
 273.490876219 568.50015981 286.801357409 612.499972099 300.111622988 656.5 c 1
 375.0859375 656.5 l 1
 361.368398889 612.499019006 347.643069467 568.505828823 333.930378685 524.5 c 1
 382.210421727 524.5 430.49046477 524.5 478.770507812 524.5 c 1
 473.303710938 497.5 l 1
 424.830369295 497.5 376.357027652 497.5 327.883686009 497.5 c 1
 288.475434878 367.804868452 249.068283096 238.108637557 209.660452036 108.413085938 c 0
 196.691940177 63.2515607802 210.428657895 16 250.270671277 16 c 0
 302.50566681 16 344.845986852 77.4521484375 416.141601562 188.393554688 c 1
 438.651367188 173.040039062 l 1
 367.775390625 48.720703125 315.966389892 -11 248.226881455 -11 c 0
 207.51466517 -11 168.494060236 15.619140625 156.342773438 69.2548828125 c 0
 146.065429688 114.000976562 157.100585938 174.109375 175.183526736 233.323242188 c 0
 185.342417325 266.375749273 195.490837818 299.438726454 205.656586946 332.484375 c 1xf0
EndSplineSet
EndChar

StartChar: Ecaron
Encoding: 282 282 88
Width: 325
Flags: W
HStem: -14 73<60.8284 151.5> 360 38<80.8539 146.133 231.865 342.906> 490 20G<245 255.5>
VStem: 37 306
LayerCount: 2
Fore
SplineSet
78 -14 m 0
 61 -14 37 9 37 23 c 0
 37 45 44 59 51 79 c 2
 146 346 l 2
 149 355 142 358 136 358 c 2
 96 360 l 2
 79 361 78 369 78 374 c 0
 78 377 94 398 112 398 c 2
 148 398 l 2
 162 398 165 401 172 416 c 2
 196 465 l 2
 204 481 240 510 250 510 c 0
 261 510 263 491 258 478 c 2
 232 411 l 2
 229 402 234 400 245 400 c 0
 272 400 302 395 320 392 c 0
 341 388 343 384 343 377 c 0
 343 374 339 366 324 365 c 0
 295 363 269 361 240 360 c 0
 219 359 212 353 209 345 c 2
 120 99 l 2
 111 74 115 59 138 59 c 0
 165 59 203 95 224 115 c 0
 238 129 251 126 251 118 c 0
 251 109 244 97 233 85 c 0
 181 28 104 -14 78 -14 c 0
EndSplineSet
EndChar

StartChar: ecaron
Encoding: 283 283 89
Width: 747
Flags: W
HStem: -11 27<194.999 270.891 475.546 536.684> 296 27<9.67114 115.37>
LayerCount: 2
Fore
SplineSet
182.889484147 345.776367188 m 1
 152.867453861 315.865708539 111.72035429 296 65.6923828125 296 c 0
 46.2861328125 296 24.8935546875 301.197265625 5.6435546875 311.325195312 c 1
 9.1865234375 334.374023438 l 1
 27.9755859375 326.6328125 43.990234375 323 60.7666015625 323 c 0
 127.419757779 323 177.783991591 378.615234375 205.418452252 421 c 1
 277.097123162 421 l 1
 187.407112655 127.958984375 l 1
 172.828340494 84.070125912 175.522609775 16 224.978997931 16 c 0
 320.831880225 16 427.424437246 188.376953125 485.899448802 421 c 1
 560.203136406 421 l 1
 469.974735557 125.946289062 l 2
 459.056567454 90.720703125 460.569880847 66.419921875 464.06796296 51.1630859375 c 0
 468.296509807 32.7265625 479.767619341 19 501.436132971 19 c 0
 548.061706644 19 597.044921875 69.154296875 669.64453125 186.423828125 c 1
 694.072265625 171 l 1
 626.166992188 53.1337890625 568.663140317 -8 497.38995979 -8 c 0
 426.860691756 -8 406.150390625 60.24609375 407.5 131.599609375 c 1
 351.83656153 45.1572570501 294.017315474 -11 223.911917974 -11 c 4
 181.920381532 -11 142.322014411 16.4140625 128.694433291 75.837890625 c 0
 119.8046875 114.428710938 126.094638487 160.173828125 142.483046477 214.057617188 c 0
 155.951751375 257.963974846 169.421324653 301.869464125 182.889484147 345.776367188 c 1
EndSplineSet
EndChar

StartChar: Gcircumflex
Encoding: 284 284 90
Width: 500
Flags: W
HStem: -14 61<282.057 368.12>
LayerCount: 2
Fore
SplineSet
86 -14 m 0
 63 -14 36 22 43 39 c 2
 148 292 l 2
 157 314 161 333 151 333 c 0
 140 333 108 306 79 280 c 0
 76 277 66 279 66 283 c 0
 66 288 67 298 78 313 c 0
 128 380 204 418 233 418 c 0
 243 418 262 399 255 385 c 0
 211 294 172 199 132 109 c 0
 120 82 115 55 129 55 c 0
 149 55 202 112 258 174 c 0
 333 259 410 367 427 398 c 0
 434 411 444 414 452 414 c 0
 464 414 479 391 474 380 c 2
 346 86 l 2
 335 60 337 47 349 47 c 0
 375 47 433 97 463 127 c 0
 464 128 465 128 466 128 c 0
 470 128 475 124 475 119 c 0
 475 114 469 103 453 84 c 0
 415 37 358 -14 295 -14 c 0
 278 -14 259 15 267 33 c 0
 295 93 333 175 343 203 c 0
 349 219 338 219 331 211 c 0
 192 59 120 -14 86 -14 c 0
EndSplineSet
EndChar

StartChar: gcircumflex
Encoding: 285 285 91
Width: 612
Flags: W
HStem: -11 27<206.228 295.347> 174.618 27.0898<491.668 575.019> 297.5 27<11.6336 117.89> 419.5 20G<424.784 450.181>
VStem: 391.515 87.7454<259.315 427.418>
LayerCount: 2
Fore
SplineSet
468.390625 231.934570312 m 1
 491.579676727 210.568736411 516.049088418 201.708007812 538.89453125 201.708007812 c 0
 549.588867188 201.708007812 561.426757812 203.825195312 570.767578125 207.33203125 c 1
 582.720703125 182.86328125 l 1
 570.0546875 177.221679688 555.090820312 174.618164062 539.821289062 174.618164062 c 0
 512.428061261 174.618164062 483.912321483 184.51779461 457.496959024 204.6015625 c 1
 403.710590548 65.9170011839 340.46973428 -11 242.50267362 -11 c 0
 198.555276754 -11 146.504640013 19.6904296875 131.564170505 85.3056640625 c 0
 121.088867188 131.05078125 132.308483867 190.098632812 150.95503382 247.293945312 c 0
 161.439379138 280.070572571 171.912158378 312.858765907 182.403967174 345.627929688 c 1
 153.328620506 315.574604979 113.150697055 297.5 67.6552734375 297.5 c 0
 48.2490234375 297.5 26.8564453125 302.697265625 7.60546875 312.825195312 c 1
 11.1494140625 335.874023438 l 1
 29.9384765625 328.1328125 45.953125 324.5 62.7294921875 324.5 c 0
 129.378657409 324.5 179.629004355 380.115234375 207.20247516 422.5 c 1
 278.726246524 422.5 l 1
 190.219741421 128.501953125 l 2
 184.887592774 112.197265625 180.802096415 81.8720703125 186.382994782 57.36328125 c 0
 191.606738882 34.42578125 216.224249991 16 244.558488419 16 c 0
 306.2480706 16 386.284505843 76.5660043776 430.283546178 227.501953125 c 1
 409.628330761 258.530582028 391.635517003 302.369443842 391.515370117 352.783203125 c 0
 391.398254491 402.705078125 409.188214944 439.5 440.3796875 439.5 c 0
 459.981552522 439.5 472.57421875 419.559570312 479.260742188 390.499023438 c 0
 490.880572136 339.998826426 483.489911434 265.891187803 468.390625 231.934570312 c 1
EndSplineSet
EndChar

StartChar: Gbreve
Encoding: 286 286 92
Width: 389
Flags: W
HStem: -14 57<69.5 169> 333 85<94.5 170.719>
VStem: 319 52<220.119 382.481>
LayerCount: 2
Fore
SplineSet
93 -14 m 0
 46 -14 14 57 36 115 c 2
 101 288 l 2
 111 315 115 333 99 333 c 0
 90 333 62 309 41 286 c 0
 34 278 30 278 28 278 c 0
 23 278 21 281 21 283 c 0
 21 291 23 299 33 313 c 0
 82 380 133 418 162 418 c 0
 178 418 194 398 188 379 c 2
 98 119 l 2
 83 73 94 43 128 43 c 0
 225 43 319 165 319 280 c 0
 319 302 310 327 295 344 c 0
 286 354 283 365 283 377 c 0
 283 395 314 418 342 418 c 0
 356 418 371 395 371 349 c 0
 371 261 345 176 276 96 c 0
 213 22 147 -14 93 -14 c 0
EndSplineSet
EndChar

StartChar: gbreve
Encoding: 287 287 93
Width: 882
Flags: W
HStem: -11 27<206.067 291.37 473.972 564.717> 175.5 27<761.671 844.991> 296 27<11.6336 117.826> 421 20G<694.633 720.131>
VStem: 661.232 88.0284<260.278 428.875>
LayerCount: 2
Fore
SplineSet
738.390625 232.81640625 m 1
 761.585059553 211.38862396 786.044514264 202.5 808.89453125 202.5 c 0
 820.5859375 202.5 830.501953125 204.561523438 840.751953125 208.137695312 c 1
 852.720703125 183.717773438 l 1
 840.0546875 178.094726562 825.090820312 175.5 809.821289062 175.5 c 0
 782.39324991 175.5 753.955989983 185.396648363 727.47619618 205.383789062 c 1
 673.129761937 66.2539321193 610.238711636 -11 511.62737179 -11 c 0
 462.866684019 -11 403.567382812 36.0458984375 397.01953125 111 c 1
 355.370664581 38.9787013265 315.284251391 -11 242.959356181 -11 c 0
 198.837281352 -11 146.579758654 19.541015625 131.579905179 84.837890625 c 0
 121.088867188 130.360351562 132.327176967 189.12109375 151.047841466 246.038085938 c 0
 161.542176712 278.640160763 172.035348271 311.243399275 182.530431056 343.844726562 c 1
 153.178139667 314.902353978 112.822284409 296 67.6552734375 296 c 0
 48.2490234375 296 26.8564453125 301.197265625 7.60546875 311.325195312 c 1
 11.1494140625 334.374023438 l 1
 29.9384765625 326.6328125 45.953125 323 62.7294921875 323 c 0
 129.385705312 323 179.835782592 378.615234375 207.518849825 421 c 1
 279.326907122 421 l 1
 190.46861472 127.955078125 l 2
 185.115272352 111.729492188 181.013537348 81.5517578125 186.616618142 57.162109375 c 0
 191.861125087 34.3359375 216.576483554 16 245.023342238 16 c 0
 312.96579853 16 370.079130233 94.11328125 419.71488533 246.03515625 c 2
 476.463812716 421 l 1
 547.994922731 421 l 1
 459.136630329 127.955078125 l 2
 453.783287961 111.729492188 449.681552957 81.5517578125 455.284633751 57.162109375 c 0
 460.529140697 34.3359375 485.244499164 16 513.691357848 16 c 0
 575.647419676 16 655.951902089 76.7832643963 700.15461803 228.250976562 c 1
 679.415107806 259.385816976 661.352986739 303.382175242 661.232349883 353.975585938 c 0
 661.114768756 404.07421875 678.975439065 441 710.290888541 441 c 0
 729.970665205 441 742.57421875 421 749.260742188 391.853515625 c 0
 760.880402963 341.203483645 753.489943027 266.873756911 738.390625 232.81640625 c 1
EndSplineSet
EndChar

StartChar: Gdotaccent
Encoding: 288 288 94
Width: 599
Flags: W
HStem: -14 57<68.5625 145.372 292.659 383.362>
VStem: 521 59<233.927 383.402>
LayerCount: 2
Fore
SplineSet
551 420 m 0
 565 420 580 395 580 349 c 0
 580 261 543 171 466 80 c 0
 412 17 360 -14 313 -14 c 0
 265 -14 248 53 258 116 c 1
 209 47 128 -14 93 -14 c 0
 42 -14 9 40 46 141 c 2
 106 304 l 2
 113 322 110 332 99 332 c 0
 92 332 62 319 41 295 c 0
 35 288 27 286 25 286 c 0
 21 286 16 289 16 293 c 0
 16 298 16 304 28 319 c 0
 79 380 142 418 171 418 c 0
 182 418 198 404 190 381 c 2
 99 120 l 2
 83 74 95 43 128 43 c 0
 179 43 264 157 270 186 c 0
 276 213 296 310 302 335 c 0
 306 353 314 369 325 376 c 0
 341 386 355 397 382 397 c 0
 396 397 392 348 382 322 c 0
 364 275 352 239 341 214 c 0
 331 191 322 157 320 143 c 0
 310 82 317 41 350 41 c 0
 424 41 521 179 521 288 c 0
 521 304 515 317 508 329 c 0
 499 344 488 356 488 365 c 0
 488 386 530 420 551 420 c 0
EndSplineSet
EndChar

StartChar: gdotaccent
Encoding: 289 289 95
Width: 746
Flags: W
HStem: -8 27<148.304 236.764 419.749 501.641> 412.413 27.0869<265.104 336.322 512.21 576.93>
LayerCount: 2
Fore
SplineSet
413.9375 347.197265625 m 1
 441.184570312 397.325195312 484.765539091 439.5 530.992029318 439.5 c 0
 580.317382812 439.5 616.111328125 419.879882812 628.875 364.403320312 c 0
 636.695330851 330.389760104 616.502202758 298.001953125 585.034179688 298.001953125 c 0
 560.55859375 298.001953125 543.408593815 310.674804688 539.011524534 329.955078125 c 0
 528.395037508 376.49609375 589.987304688 355.563476562 582.256835938 389.166992188 c 0
 579.518554688 401.069335938 567.147460938 412.413085938 541.825416481 412.413085938 c 0
 464.017864343 412.413085938 383.940660783 144.470731781 400.221581539 64.3251953125 c 0
 405.889200928 36.4253975526 429.857499264 19 453.387290832 19 c 0
 517.687529888 19 582.920898438 86.455078125 651.216796875 199.391601562 c 1
 674.67578125 184.008789062 l 1
 608.252929688 64.2841796875 537.338294912 -8 450.339069274 -8 c 0
 405.17056203 -8 353.835528404 16.3952394579 341.916992188 82 c 1
 294.319335938 18.134765625 246.382726957 -11 201.141601562 -11 c 0
 151.641601562 -11 110.6484375 13.7197265625 99.2890625 63.1015625 c 0
 90.9669400651 99.2780947282 111.754313091 133.515625 141.204101562 133.515625 c 0
 162.796875 133.515625 184.25390625 123.766601562 190.0546875 98.5537109375 c 0
 200.7734375 51.9609375 138.62890625 69.974609375 145.907226562 38.3388671875 c 0
 149.640625 22.1083984375 168.12890625 16.0966796875 188.215820312 16.0966796875 c 0
 194.375976562 16.0966796875 200.384765625 16.7998046875 206.206346261 18.14453125 c 0
 316.933865823 43.8046875 370.004681306 301.573242188 356.641115322 360.161132812 c 0
 349.940450398 389.53515625 335.229973299 409.5 307.516139371 409.5 c 0
 260.170906502 409.5 187.500976562 368.461914062 106.334960938 235.10546875 c 1
 82.919921875 250.459960938 l 1
 168.006835938 390.42578125 239.174198669 436.5 307.589730488 436.5 c 0
 359.877647629 436.5 402.059903883 403.992092731 413.9375 347.197265625 c 1
EndSplineSet
EndChar

StartChar: uni0122
Encoding: 290 290 96
Width: 450
Flags: W
HStem: -14 60<34.3837 69.1983 282.163 333.565> 351 63<113.485 171.5 347.995 422.276>
VStem: 368 22<103.978 139.742>
LayerCount: 2
Fore
SplineSet
14 -14 m 0
 -6 -14 -27 -2 -27 24 c 0
 -27 47 1 87 18 87 c 0
 28 87 32 78 34 69 c 0
 38 53 45 46 53 46 c 0
 62 45 72 50 80 58 c 0
 120 99 142 128 184 176 c 0
 189 181 189 188 187 194 c 2
 149 334 l 2
 145 349 142 351 134 351 c 0
 124 351 103 335 78 299 c 0
 75 295 70 283 61 283 c 0
 56 283 54 290 54 300 c 0
 54 339 117 414 161 414 c 0
 182 414 194 398 203 363 c 2
 228 257 l 2
 230 247 235 246 242 255 c 2
 312 355 l 2
 332 383 366 414 402 414 c 0
 428 414 452 387 453 371 c 0
 454 356 429 316 412 316 c 0
 404 316 398 323 394 333 c 0
 387 351 381 356 372 356 c 0
 356 356 338 342 315 314 c 0
 296 292 274 266 249 228 c 0
 244 220 242 210 247 193 c 2
 281 70 l 2
 286 52 295 46 302 46 c 0
 321 46 348 77 368 126 c 0
 372 136 376 140 381 140 c 0
 386 140 390 138 390 118 c 0
 390 81 344 -14 286 -14 c 0
 249 -14 235 9 223 53 c 2
 201 144 l 2
 197 160 193 160 185 150 c 0
 153 110 121 66 88 27 c 0
 60 -6 38 -14 14 -14 c 0
EndSplineSet
EndChar

StartChar: uni0123
Encoding: 291 291 97
Width: 652
Flags: W
HStem: -219 31<136.388 247.601> -127 27<409.67 546.462> -72 27<156.461 313.787> -11 27<170.676 246.312> 296 27<-14.339 92.2224>
LayerCount: 2
Fore
SplineSet
158.902978033 346.127929688 m 1
 127.659404629 313.200628915 88.0243986224 296 41.6826171875 296 c 1
 22.2763671875 296 0.8837890625 301.197265625 -18.3671875 311.325195312 c 1
 -14.8232421875 334.374023438 l 1
 3.9658203125 326.6328125 19.98046875 323 36.7568359375 323 c 1
 103.40740011 323 153.697391889 378.615234375 181.291648025 421 c 1
 252.865067186 421 l 1
 163.30554391 127.958984375 l 1
 148.686001756 83.8721934213 150.477134061 16 200.823735669 16 c 1
 296.53716456 16 402.974643356 188.376953125 461.36458142 421 c 1
 536.1328125 421 l 1
 441.640698826 94.9111328125 l 17
 423.946823399 32.3788895077 405.824938728 -23.8302518684 383.855205451 -76.251953125 c 1
 414.183362392 -90.4056139488 448.758188977 -100 480.4140625 -100 c 1
 510.265625 -100 547.978515625 -92.009765625 573.206054688 -70.728515625 c 1
 589.42578125 -94.1533203125 l 1
 550.4609375 -122.42578125 518.868164062 -127 482.33984375 -127 c 1
 447.106191907 -127 403.910371586 -116.601069486 375.257367227 -104.552734375 c 1
 339.252996702 -185.570930129 280.545379777 -219 200.771427956 -219 c 1
 92.8245302299 -219 51.5244563932 -120.454566115 123.406382529 -70.7255859375 c 1
 154.420013263 -48.0322265625 194.998206256 -45 230.663348836 -45 c 1
 251.081959488 -45 303.399724435 -50.5186867823 324.837574826 -58.4423828125 c 1
 331.211074972 -38.8774560843 370 76 388.724609375 139.270507812 c 1
 334.03515625 53.291015625 265.848818364 -11 199.758208174 -11 c 1
 157.827763924 -11 118.287007247 16.4140625 104.679252474 75.837890625 c 1
 95.7939453125 114.428710938 102.084208693 160.173828125 118.448773694 214.057617188 c 1
 131.933371275 258.081191886 145.419081032 302.103654408 158.902978033 346.127929688 c 1
317.907771463 -87.0283203125 m 1
 295.430267911 -76.5189399102 250.193044374 -72 228.605912109 -72 c 0
 165.824532017 -72 107.496363162 -97.0672247354 118.663816515 -145.837890625 c 0
 124.37601255 -170.77734375 151.891807116 -188 185.050054098 -188 c 0
 223.709887571 -188 283.174956726 -175.928474884 317.907771463 -87.0283203125 c 1
EndSplineSet
EndChar

StartChar: Hcircumflex
Encoding: 292 292 98
Width: 409
Flags: W
HStem: -290 60<-78.8674 0.824156> 355 59<89.9391 145.807>
VStem: 37 28<263.771 317.558> 179 59<86.9963 303.333> 339 52<266.321 417.861>
LayerCount: 2
Fore
SplineSet
-59 -290 m 0
 -79 -290 -104 -276 -104 -248 c 0
 -104 -221 -84 -198 -65 -198 c 0
 -52 -198 -43 -207 -34 -215 c 0
 -25 -223 -16 -230 -4 -230 c 0
 43 -230 97 -163 141 -74 c 0
 171 -12 179 63 179 154 c 0
 179 301 141 355 121 355 c 0
 101 355 72 314 65 290 c 0
 63 283 54 261 46 261 c 0
 41 261 37 274 37 289 c 0
 37 350 95 414 140 414 c 0
 172 414 194 391 207 348 c 0
 225 290 244 211 238 78 c 0
 237 54 244 58 253 75 c 0
 297 159 339 271 339 404 c 0
 339 410 352 423 358 423 c 0
 366 423 391 404 391 380 c 0
 391 256 291 53 143 -130 c 0
 73 -217 -4 -290 -59 -290 c 0
EndSplineSet
EndChar

StartChar: hcircumflex
Encoding: 293 293 99
Width: 685
Flags: W
HStem: -11 36<398.176 498.297> 128 27.6348<276.598 347.042> 285.5 27<72.6475 178.942> 306.5 27<280.98 396.267> 456.5 20G<194.079 220.022 497.839 517.22>
VStem: 351.033 67.8225<26.2017 125.867>
LayerCount: 2
Fore
SplineSet
258.495117188 133.235351562 m 5xdc
 285.071289062 149.02734375 321.169700766 155.634765625 337.303361136 155.634765625 c 4
 386.297944412 155.634765625 415.525193746 128.8671875 421.974344493 100.530273438 c 4
 428.209684511 73.13671875 413.599929722 63.326171875 418.85522328 40.236328125 c 4
 420.906258321 31.23046875 431.889937953 25 440.347555089 25 c 4
 484.683773402 25 544.932617188 57.4208984375 602.720703125 174.375 c 5
 626.833984375 159.920898438 l 5
 554.469726562 12.1708984375 485.18395506 -11 419.546963871 -11 c 4
 377.393356432 -11 357.496381596 5.5771484375 351.032718809 33.837890625 c 4
 344.346538069 63.068359375 361.24822777 75.802734375 355.751066872 99.837890625 c 4
 352.138536286 115.633789062 334.933061206 128 319.39743824 128 c 4
 276.284101197 128 242.947042026 110.57421875 208.570920764 56.314453125 c 4
 177.186523438 7.478515625 151.873046875 -6 127.572265625 -6 c 4
 114.25 -6 104.797851562 2.5634765625 102.416992188 12.9287109375 c 4
 96.1764888912 40.0839194841 117.377870079 74.4193687067 203.767435396 119.879882812 c 5
 221.642378118 138.048206388 338 256 396.786132812 316.84375 c 5
 385.028320312 311.831054688 361.608062797 306.5 346.281476787 306.5 c 4xdc
 309.330663389 306.5 271.59880508 320.048623656 240.046568888 341.049804688 c 5
 216.159097164 307.085305393 172.082803152 285.5 130.620117188 285.5 c 4
 111.151367188 285.5 87.5654296875 290.453125 67.6474609375 300.786132812 c 5
 72.984375 323.92578125 l 5
 91.99609375 316.040039062 105.826171875 312.5 122.694335938 312.5 c 4xec
 167.993523767 312.5 195.914033376 331.415692476 216.287456371 358.166992188 c 5
 196.07460463 377.192331869 180.312484291 400.290322488 175.453125 421.337890625 c 4
 168.92868091 449.587570343 180.513720034 476.5 207.644085118 476.5 c 4
 232.400658544 476.5 251.397886877 453.291992188 257.258816253 427.662109375 c 4
 261.810928362 407.763785239 257.779822185 385.648182847 253.182867844 366.524414062 c 5
 277.986125449 342.048848221 309.94243249 333.5 338.428528 333.5 c 4
 363.622357163 333.5 389.530222031 338.718391899 410.957770902 350.91796875 c 5
 444.674680231 418.659908256 486.304626102 439.5 509.374023438 439.5 c 4
 525.06640625 439.5 540.76171875 432.65234375 544.22265625 417.662109375 c 4
 551.542724962 385.949343567 515.772670911 355.429435891 445.969519534 330.280273438 c 5
 384.117642683 267.518363111 323.941083694 204.172623947 258.495117188 133.235351562 c 5xdc
EndSplineSet
EndChar

StartChar: Hbar
Encoding: 294 294 100
Width: 413
Flags: W
HStem: -34 52<213.458 278.008> -20 21G<10 14.5> 52 46<110 124.025> 366 48<130.433 222.183>
VStem: -2 29<-19.9905 31.5369> 46 52<258.541 337.997> 309 48<40.6212 139.279>
LayerCount: 2
Fore
SplineSet
404 406 m 0x7e
 404 396 391 375 372 356 c 2
 110 98 l 1
 113 98 l 2
 143 98 168 77 193 56 c 0
 216 37 237 18 260 18 c 0
 305 18 309 69 309 114 c 0
 309 138 312 143 324 143 c 0
 338 143 357 124 357 92 c 0
 357 36 262 -34 226 -34 c 0xbe
 193 -34 165 -8 140 16 c 0
 120 35 103 52 90 52 c 0
 50 52 27 25 27 -6 c 0
 27 -19 17 -20 12 -20 c 0
 8 -20 -1 -7 -2 6 c 0
 -3 20 3 41 22 59 c 2
 290 319 l 1
 272 320 252 330 231 340 c 0
 205 353 178 366 146 366 c 0
 122 366 98 342 98 322 c 0
 98 312 100 298 108 286 c 0
 113 278 113 274 108 268 c 0
 99 258 73 246 67 246 c 0
 60 246 46 258 46 280 c 0
 46 316 64 338 96 368 c 0
 119 390 169 414 191 414 c 0
 213 414 235 406 257 398 c 0
 281 389 303 379 320 379 c 0
 340 379 350 385 365 400 c 0
 372 407 385 418 395 418 c 0
 399 418 404 412 404 406 c 0x7e
EndSplineSet
EndChar

StartChar: nacute
Encoding: 324 324 101
Width: 984
Flags: W
HStem: -6 35<188.179 303.826> 37.9629 38.7383<484.605 765.049> 459 49<344.47 493.304> 679 20G<814.728 849.728> 679 20G<814.728 849.728>
VStem: 641.24 19.0889<265.43 268.421>
LayerCount: 2
Fore
SplineSet
688.395507812 76.701171875 m 3xe4
 740.448242188 76.701171875 782.458984375 103.69140625 818.025390625 125 c 1
 831.329101562 95 l 1
 790.18359375 59.3125 734.331054688 37.962890625 673.006835938 37.962890625 c 3
 560.115234375 37.962890625 484.340820312 40.1953125 399.71484375 80.3466796875 c 0
 304.03515625 125.743164062 221.033203125 201.681640625 206.075195312 306 c 0
 188.583007812 428 292.11328125 508 398.11328125 508 c 0
 468.365234375 508 546.149414062 467.9140625 593.157226562 416.881835938 c 0
 619.483398438 388.302734375 647.830078125 340.583007812 660.329101562 301 c 1
 641.240234375 204 l 1
 641.31640625 268.420898438 596.788085938 339.563476562 571.02734375 376 c 0
 533.741210938 428.736328125 460.319335938 459 404.677734375 459 c 0
 340.677734375 459 287.314453125 395 299.072265625 313 c 0
 311.509765625 226.250976562 362.1171875 152.53125 433.8359375 116.028320312 c 0
 508.469726562 78.04296875 586.305664062 76.701171875 688.395507812 76.701171875 c 3xe4
709.950195312 0 m 1
 552.950195312 0 l 1
 589.720703125 124.376953125 610.961914062 185.926757812 653.641601562 316 c 0
 696.745117188 447.369140625 737.376953125 542.173828125 783.000976562 644 c 1
 716.215820312 600.712890625 662.434570312 542.7265625 603.791992188 420 c 0
 561.666992188 331.842773438 520.2109375 253.313476562 457.483398438 145 c 0
 418.364257812 77.4521484375 337.897460938 -6 253.272460938 -6 c 0
 161.272460938 -6 92.9306640625 35 82.177734375 110 c 0
 74.865234375 161 106.129882812 201 153.129882812 201 c 0
 197.129882812 201 228.291992188 165 233.166992188 131 c 0
 237.325195312 102 208.483398438 73 169.486328125 66 c 1
 172.298828125 46.333984375 221.45703125 29 244.637695312 29 c 0
 302.25390625 29 352.249023438 79.5849609375 391.061523438 126 c 0
 460.017578125 208.461914062 503.690429688 314.022460938 554.89453125 413 c 0
 591.471679688 483.702148438 630.654296875 557.146484375 676.205078125 605 c 0
 726.606445312 658 783.727539062 699 845.727539062 699 c 0xf4
 853.727539062 699 881.014648438 697 903.874023438 691 c 1
 916.311523438 674 l 1
 848.40625 492 803.34765625 332 738.89453125 105 c 0
 728.78515625 70.505859375 718.6875 35.998046875 709.950195312 0 c 1
EndSplineSet
EndChar

StartChar: uni0145
Encoding: 325 325 102
Width: 1060
Flags: W
HStem: -21 42<189.989 352.258> -13 38<713.902 809.901> 195 39<732.711 773.131> 268 41<296.107 422.044> 508 20G<497.901 546.436 882.669 918.607> 660 39<405.705 702.762>
VStem: 88.1201 145.272<84.1875 177.857> 497.901 39<392.55 528>
LayerCount: 2
Fore
SplineSet
699.229492188 361 m 1x7f
 715.373046875 360 761.715820312 356 783.149414062 346 c 1
 834.715820312 356 878.956054688 423 870.783203125 480 c 0
 863.91796875 527.8828125 848.340820312 565.380859375 813.03125 590.822265625 c 0
 752.875976562 634.16796875 675.887695312 660 559.668945312 660 c 0
 322.668945312 660 228.596679688 565 251.25 407 c 0
 259.708984375 348 302.30078125 309 357.30078125 309 c 0
 440.30078125 309 515.587890625 395 497.901367188 528 c 1
 536.901367188 528 l 1
 555.970703125 395 498.412109375 268 353.412109375 268 c 0
 303.412109375 268 255.853515625 288 216.265625 320 c 0
 182.39453125 347 156.891601562 380 150.295898438 426 c 0
 135.384765625 530 213.752929688 602 306.013671875 649 c 0
 383.279296875 689 467.383789062 699 551.383789062 699 c 0
 645.196289062 699 762.109375 673.10546875 843.032226562 625.115234375 c 0
 902.069335938 590.104492188 955.416015625 545.333984375 965.5 475 c 0
 974.533203125 412 936.99609375 346 847.720703125 327 c 1
 848.0078125 325 l 1
 917.452148438 294 954.337890625 239 960.790039062 194 c 0
 968.962890625 137 945.856445312 68 882.451171875 22 c 0
 850.891601562 -2 810.469726562 -13 758.469726562 -13 c 0
 675.469726562 -13 640.153320312 45 634.848632812 82 c 0
 628.109375 129 654.899414062 219 772.748046875 234 c 1
 774.879882812 195 l 1
 717.596679688 190 686.39453125 127 692.561523438 84 c 0
 696.86328125 54 723.528320312 25 759.528320312 25 c 0
 821.528320312 25 867.409179688 102.654296875 864.466796875 178 c 0
 862.163085938 237 808.215820312 286 778.204101562 307 c 1
 763.778320312 303 742.151367188 302 725.151367188 302 c 0
 712.151367188 302 695.491210938 305 685.204101562 307 c 1
 699.229492188 361 l 1x7f
909.848632812 692 m 1
 925.17578125 657 l 1
 885.619140625 640.21484375 872.388671875 632.081054688 843.46484375 607.206054688 c 0
 774.827148438 548.174804688 743.96484375 453.951171875 706.025390625 338 c 0
 626.979492188 96.419921875 476.083007812 -21 291.616210938 -21 c 0
 175.616210938 -21 98.8740234375 33 88.1201171875 108 c 0
 80.9521484375 158 108.786132812 201 155.786132812 201 c 0
 199.786132812 201 228.517578125 168 233.392578125 134 c 0
 238.995117188 94.92578125 209.806640625 71.919921875 165.111328125 63 c 5
 185.122070312 42 206.59375 21 265.59375 21 c 0xbf
 369.59375 21 434.9921875 81 522.171875 282 c 0
 597.514648438 458.388671875 658.70703125 542.2265625 785.967773438 624.387695312 c 0
 828.206054688 651.657226562 855.490234375 672.970703125 909.848632812 692 c 1
EndSplineSet
EndChar

StartChar: uni0146
Encoding: 326 326 103
Width: 912
Flags: W
HStem: -21 38<420.82 550.133> 258 41<500.948 596.53> 638 21G<409.281 434.82> 649 38<636.462 750.939> 667 39<222.761 406.898>
VStem: 403.667 38.4971<116 191>
LayerCount: 2
Fore
SplineSet
-11.2841796875 625 m 1024,0,-1
696.797851562 687 m 0,1,-1
 774.797851562 687 829.952148438 665 838.125 608 c 0,4,-1
 859.645507812 457.901367188 589.697265625 306.291992188 318.08984375 320.66796875 c 0,7,-1
 173.844726562 328.302734375 54.587890625 374.611328125 36.322265625 502 c 0,10,-1
 21.984375 602 118.689453125 706 295.689453125 706 c 0,13,-1
 334.689453125 706 382.889648438 703 440.046875 674 c 1,16,-1
 428.286132812 638 l 1,17,-1
 390.275390625 659 335.974609375 667 309.974609375 667 c 0,20,-1
 218.974609375 667 109.896484375 605.400390625 127.037109375 504 c 0,23,-1
 143.767578125 405.022460938 199.06640625 366.774414062 333.529296875 359.984375 c 0,26,-1
 482.581054688 352.458007812 786.479492188 450.26953125 765.98828125 595 c 0,29,-1
 759.758789062 639 730.170898438 649 699.170898438 649 c 0,32,-1
 609.209960938 649 454.068359375 501.94140625 396.420898438 348 c 0,35,-1
 368.141601562 272.483398438 348.30859375 202.197265625 357.225585938 140 c 0,38,-1
 365.971679688 79 411.9375 17 473.9375 17 c 4,41,-1
 573.9375 17 638.817382812 101 628.350585938 174 c 0,44,-1
 621.182617188 224 585.540039062 258 561.540039062 258 c 0,47,-1
 497.540039062 258 445.260742188 202 442.1640625 112 c 1,50,-1
 403.666992188 116 l 1,51,-1
 400.895507812 226 468.428710938 299 579.428710938 299 c 0,54,-1
 666.428710938 299 729.733398438 262 740.200195312 189 c 0,57,-1
 748.374023438 132 713.120117188 71 659.998046875 30 c 0,60,-1
 611.303710938 -7 540.310546875 -21 469.310546875 -21 c 0,63,-1
 344.310546875 -21 222.991210938 44 206.358398438 160 c 0,66,-1
 196.841796875 226.379882812 224.048828125 323.532226562 249.744140625 385 c 0,69,-1
 322.0703125 558.017578125 539.100585938 687 696.797851562 687 c 0,1,-1
EndSplineSet
EndChar

StartChar: Ncaron
Encoding: 327 327 104
Width: 991
Flags: W
HStem: -17 34<208.814 347.472 489.798 662.966> 116 36<198.19 286.744> 240 37<260.748 403.387> 514 20G<478.604 536.493 821.311 855.706> 667 32<317.951 524.346>
VStem: 478.604 39.4375<353.188 529>
LayerCount: 2
Fore
SplineSet
99.859375 61 m 0
 95.701171875 90 112.984375 117 141.977539062 131 c 0
 165.400390625 142 196.12109375 152 231.12109375 152 c 0
 324.401367188 152 373.864257812 98.9541015625 434.54296875 59.458984375 c 0
 466.342773438 38.76171875 528.329101562 16 581.15625 16 c 0
 716.15625 16 829.249023438 135 800.4296875 336 c 0
 791.87109375 395.696289062 768.981445312 440.98046875 740.649414062 483 c 0
 673.94921875 581.92578125 557.319335938 667 431.28125 667 c 0
 342.28125 667 270.172851562 642 225.622070312 604 c 0
 181.0703125 566 162.0625 492 171.8125 424 c 0
 182.853515625 347 242.350585938 277 329.350585938 277 c 0
 419.350585938 277 504.416015625 342 478.603515625 529 c 1
 518.041015625 534 l 1
 554.9453125 343.150390625 455.244140625 240 335.50390625 240 c 0
 197.50390625 240 93.591796875 300 74.666015625 432 c 0
 61.76171875 522 112.01171875 590 172.846679688 633 c 0
 242.821289062 682 334.383789062 699 415.383789062 699 c 0
 567.663085938 699 698.856445312 633.159179688 785.935546875 544.004882812 c 0
 843.270507812 485.303710938 888.965820312 402.01171875 900.150390625 324 c 0
 928.396484375 127 774.616210938 -21 594.616210938 -21 c 0
 507.516601562 -21 435.065429688 -1.599609375 384.051757812 30.984375 c 0
 340.676757812 58.689453125 283.0078125 116 234.668945312 116 c 0
 195.668945312 116 187.848632812 82 190.286132812 65 c 0
 193.153320312 45 213.3203125 17 256.3203125 17 c 0
 308.549804688 17 352.573242188 32.54296875 387.912109375 52.2412109375 c 0
 470.91015625 98.505859375 473.33203125 149.754882812 548.731445312 306 c 4
 595.421875 400.913085938 645.536132812 487.275390625 734.065429688 556.9140625 c 0
 772.87890625 587.446289062 797.733398438 598.09765625 844.888671875 615 c 1
 861.115234375 585 l 1
 819.379882812 566.37890625 803.98046875 539.459960938 779.163085938 499 c 0
 747.696289062 447.69921875 729.794921875 360.377929688 707.591796875 300 c 0
 660.763671875 172.138671875 579.348632812 88.81640625 459.681640625 26.75 c 0
 405.489257812 -1.357421875 348.827148438 -17 267.043945312 -17 c 0
 222.043945312 -17 185.469726562 -13 157.891601562 -2 c 0
 124.028320312 11 103.731445312 34 99.859375 61 c 0
EndSplineSet
EndChar

StartChar: ncaron
Encoding: 328 328 105
Width: 826
Flags: W
HStem: -21 28<343.989 456.887> 259 30<425.255 512.106> 405 30<262.615 506.355> 657 21G<345.411 363.396> 657 21G<345.411 363.396> 670 29<218.962 360.649>
VStem: 315.974 34.0459<115.383 174.298>
LayerCount: 2
Fore
SplineSet
615.702148438 663 m 0xe6
 533.102539062 663 455.313476562 527.852539062 440.815429688 429 c 0
 439.14453125 417.60546875 440.032226562 385.901367188 441.220703125 375 c 1
 492.51953125 374 524.24609375 370 527.400390625 348 c 0
 530.69921875 325 487.087890625 314.412109375 469.416992188 320 c 0
 444.1171875 328 433.288085938 337 418.284179688 344 c 1
 326.016601562 311 256.0625 220 268.249023438 135 c 0
 276.708984375 76 323.369140625 7 394.369140625 7 c 0
 482.369140625 7 562.274414062 86 550.231445312 170 c 0
 544.06640625 213 519.2421875 259 474.2421875 259 c 0
 416.2421875 259 361.829101562 205 350.01953125 113 c 1
 315.973632812 116 l 1
 323.62890625 230 383.168945312 289 497.168945312 289 c 0
 595.168945312 289 648.333984375 246 658.80078125 173 c 0
 665.252929688 128 647.557617188 91 621.715820312 62 c 0
 570.888671875 5 477.616210938 -21 399.616210938 -21 c 0
 270.616210938 -21 128.013671875 39 111.23828125 156 c 0
 96.7578125 257 189.5703125 342 338.12109375 380 c 1
 337.833984375 382 l 1
 328.478515625 394.5859375 330.666992188 410.0078125 322.999023438 426 c 0
 254.880859375 568.0546875 460.0234375 677 611.104492188 687 c 0
 698.41796875 692.779296875 744.688476562 662 752.57421875 607 c 0
 766.030273438 513.147460938 600.388671875 405 383.774414062 405 c 0
 212.143554688 405 79.4658203125 447.338867188 64.4599609375 552 c 0
 53.1337890625 631 127.383789062 699 259.383789062 699 c 0xe6
 298.383789062 699 329.7578125 698 364.764648438 684 c 1
 359.484375 657 l 1xf2
 331.337890625 665 313.543945312 670 281.543945312 670 c 0
 198.543945312 670 147.717773438 606 155.890625 549 c 0
 167.872070312 465.434570312 266.848632812 435 376.3984375 435 c 0
 531.620117188 435 640.126953125 524.440429688 662.434570312 601 c 0
 669.13671875 624 666.702148438 663 615.702148438 663 c 0xe6
EndSplineSet
EndChar

StartChar: napostrophe
Encoding: 329 329 106
Width: 1042
Flags: W
HStem: -21 36<212.15 357.552> 66 135<170.373 223.116> 336 36<289.359 393.01> 339 44<672.212 794.234> 344 75<833.763 875.215> 537 142G<453.897 490.896 657.94 713.336 927.176 963.54> 570 91<647.567 856.36> 668 31<333.422 485.892>
VStem: 98.1201 148.272<80.9238 177.857> 453.897 33.2539<457.078 535> 794.234 38.9746<264.439 339>
LayerCount: 2
Fore
SplineSet
341.977539062 153 m 1xd0e0
 320.940429688 179 l 1
 363.934570312 225.963867188 487.174804688 312.311523438 607.993164062 350.35546875 c 0
 667.607421875 369.127929688 723.698242188 383 802.69140625 383 c 1xd0e0
 815.844726562 405 833.912109375 419 855.912109375 419 c 0
 866.912109375 419 887.530273438 416.540039062 886.8828125 394 c 0
 886.280273438 373 865.450195312 345 833.208984375 344 c 1xc8e0
 833.80078125 305 841.772460938 273 844.063476562 264 c 1
 803.279296875 255 l 1
 796.446289062 278.625976562 792.370117188 306.047851562 794.234375 339 c 1
 711.9453125 339 646.403320312 315.448242188 585.118164062 294.633789062 c 0
 505.387695312 267.5546875 377.37890625 187.895507812 341.977539062 153 c 1xd0e0
947.383789062 699 m 1xe3e0
 965.155273438 677 l 1
 916.180664062 628 851.879882812 570 773.879882812 570 c 0
 621.879882812 570 512.369140625 668 408.369140625 668 c 0xe3e0
 292.369140625 668 218.875976562 577 231.0625 492 c 0
 241.672851562 418 295.881835938 372 335.881835938 372 c 0
 401.881835938 372 443.669921875 425 453.897460938 535 c 1
 487.151367188 537 l 1xe4e0
 494.639648438 422 432.4296875 336 334.4296875 336 c 0
 304.4296875 336 273.42578125 343 242.275390625 358 c 0
 191.69140625 383 148.522460938 433 139.6328125 495 c 0
 129.166015625 568 167.709960938 620 234.262695312 658 c 0
 289.673828125 690 366.383789062 699 457.383789062 699 c 0
 568.383789062 699 702.831054688 661 808.831054688 661 c 0
 842.831054688 661 906.967773438 674 947.383789062 699 c 1xe3e0
686.599609375 558 m 1
 713.3359375 540 l 1
 689.162109375 507.12890625 681.763671875 400.924804688 663.600585938 323 c 0
 608.370117188 86.05078125 466.471679688 -21 294.616210938 -21 c 0
 178.616210938 -21 108.874023438 33 98.1201171875 108 c 0
 90.9521484375 158 121.786132812 201 168.786132812 201 c 0
 212.786132812 201 241.517578125 168 246.392578125 134 c 0
 251.885742188 95.6923828125 222.083007812 63.81640625 170.373046875 66 c 1
 183.524414062 51 222.068359375 15 281.068359375 15 c 0
 410.604492188 15 442.6484375 129.331054688 491.802734375 251 c 0
 550.15625 395.44140625 629.28125 513.857421875 686.599609375 558 c 1
EndSplineSet
EndChar

StartChar: Eng
Encoding: 330 330 107
Width: 834
Flags: W
HStem: -21 52<224.474 405.491> 160 44<387.805 511.685> 643 21G<351.917 369.737> 650 37<565.197 664.945> 660 39<199.987 368.109>
VStem: 117.12 148.272<77.697 176.363>
LayerCount: 2
Fore
SplineSet
624.564453125 650 m 0xd4
 539.072265625 650 447.272460938 532.193359375 397.560546875 425 c 0
 380.064453125 387.274414062 361.350585938 336.552734375 369.603515625 279 c 0
 374.477539062 245 388.35546875 204 422.35546875 204 c 0
 514.35546875 204 567.110351562 254 680.19140625 372 c 1
 709.392578125 347 l 1
 703.263671875 320 683.1796875 268 669.639648438 209 c 0
 636.432617188 57 509.616210938 -21 323.616210938 -21 c 0
 207.616210938 -21 127.874023438 33 117.120117188 108 c 0
 109.952148438 158 139.786132812 201 186.786132812 201 c 0
 230.786132812 201 260.517578125 168 265.392578125 134 c 0
 269.926757812 102.377929688 242.243164062 51.728515625 203.073242188 74 c 5
 216.223632812 59 230.053710938 31 306.053710938 31 c 0
 405.053710938 31 472.9921875 81 515.940429688 179 c 1
 513.654296875 181 l 1
 487.375 169 446.203125 160 414.203125 160 c 0
 321.203125 160 228.208984375 212 216.166015625 296 c 0
 210.423828125 336.038085938 221.826171875 397.8671875 237.877929688 437 c 0
 301.314453125 591.651367188 492.711914062 687 615.104492188 687 c 0xd4
 696.104492188 687 752.688476562 662 761.291015625 602 c 0
 769.607421875 544 716.63671875 488 633.37109375 448 c 0
 543.75390625 404.6796875 431.448242188 380.422851562 309.395507812 389.240234375 c 0
 171.922851562 399.170898438 65.42578125 454.6015625 52.0341796875 548 c 0
 39.703125 634 130.383789062 699 265.383789062 699 c 0xcc
 305.383789062 699 335.956054688 695 372.821289062 682 c 1
 366.490234375 643 l 1xe4
 337.34375 651 302.668945312 660 280.668945312 660 c 0xcc
 188.668945312 660 133.587890625 601 142.333984375 540 c 0
 152.620117188 468.2578125 237.32421875 434.064453125 331.67578125 426.733398438 c 0
 493.16015625 414.186523438 645.501953125 495.288085938 671.581054688 593 c 0
 681.190429688 629 654.564453125 650 624.564453125 650 c 0xd4
EndSplineSet
EndChar

StartChar: eng
Encoding: 331 331 108
Width: 1171
Flags: W
HStem: -18 39<191.18 252.903 692.092 750.355> 426 39<288.388 377.016> 475 20G<381.533 414.308 739.261 766.894> 599 50<485.279 596.743> 660 39<296.607 423.298 971.25 1034.97> 681 20G<739.261 766.894>
LayerCount: 2
Fore
SplineSet
1033.53125 626 m 0xf4
 1035.8515625 638.19140625 1042.58105469 660 1004.58105469 660 c 0
 951.833007812 660 894.956054688 516.07421875 840.05078125 426 c 0
 766.713867188 305.690429688 674.229492188 127.553710938 682.625 69 c 0
 685.348632812 50 694.889648438 21 713.889648438 21 c 0
 742.889648438 21 784.943359375 70 849.03515625 167 c 1
 885.725585938 152 l 1
 851.328125 92 822.315429688 54 800.899414062 29 c 0
 775.931640625 -0.146484375 734.098632812 -18 697.098632812 -18 c 0
 608.098632812 -18 567.786132812 33 558.752929688 96 c 0
 545.01953125 191.791015625 593.432617188 289.2109375 627.108398438 348 c 0
 742.999023438 550.3125 907.40234375 699 1025.29589844 699 c 0
 1075.29589844 699 1107.16796875 694 1112.90429688 654 c 0
 1133.74804688 508.625976562 888.109375 434.858398438 710.697265625 370.83203125 c 0
 626.799804688 340.553710938 537.4453125 310.400390625 456.76171875 280.130859375 c 0
 350.37890625 240.21875 171.30859375 161.87109375 186.776367188 54 c 0
 189.069335938 38 197.244140625 18 218.244140625 18 c 0
 270.220703125 18 327.04296875 169.405273438 363.140625 264 c 0
 408.130859375 381.891601562 470.556640625 473.322265625 597.559570312 599 c 1
 482.559570312 599 414.581054688 660 341.581054688 660 c 0
 287.581054688 660 253.494140625 593 260.376953125 545 c 0
 267.83203125 493 300 465 330 465 c 0
 350 465 373.751953125 478 389.314453125 495 c 1
 415.557617188 474 l 1
 392.715820312 445 367.286132812 426 319.286132812 426 c 0
 234.286132812 426 179.126953125 477 169.376953125 545 c 0
 158.91015625 618 210.295898438 699 336.295898438 699 c 0xf8
 442.295898438 699 511.46484375 649 593.46484375 649 c 0
 616.46484375 649 646.302734375 641 674.7265625 652 c 0
 695.579101562 660 727.051757812 683 751.470703125 701 c 1
 770.75 676 l 1
 661.997070312 594.421875 628.952148438 512.376953125 563.325195312 342 c 0
 502.868164062 185.046875 383.350585938 -21 220.529296875 -21 c 0
 156.529296875 -21 113.174804688 4 105.576171875 57 c 0
 99.0361328125 101 119.158203125 142 149.426757812 175 c 0
 213.24609375 245.259765625 354.078125 298.334960938 475.982421875 339.799804688 c 0
 567.579101562 370.956054688 664.211914062 403.495117188 750.563476562 437.884765625 c 0
 835.127929688 471.563476562 1011.70898438 511.365234375 1033.53125 626 c 0xf4
EndSplineSet
EndChar

StartChar: Omacron
Encoding: 332 332 109
Width: 997
Flags: W
HStem: -21 39<183.913 365.488> 280.336 40.1787<550.025 727.882> 441 246G<631.604 697.104 815.157 870.473> 631 68<805.825 917.092>
VStem: 80.1201 148.272<84.1875 177.857>
LayerCount: 2
Fore
SplineSet
825.3671875 631 m 1xd8
 768.334960938 585.786132812 740.946289062 433.114257812 708.66015625 332 c 0
 681.66015625 247.44140625 645.529296875 161.407226562 595.977539062 109 c 0
 515.165039062 24 420.616210938 -21 286.616210938 -21 c 0
 170.616210938 -21 90.8740234375 33 80.1201171875 108 c 0
 72.9521484375 158 103.786132812 201 150.786132812 201 c 0
 194.786132812 201 223.517578125 168 228.392578125 134 c 0
 233.060546875 101.443359375 203.83203125 63.5380859375 156.4609375 67 c 5
 170.603515625 44 185.331054688 18 270.331054688 18 c 0
 383.331054688 18 464.995117188 74 524.609375 265 c 0
 532.219726562 286.340820312 540.788085938 320.166992188 548.78515625 341 c 0
 588.6171875 444.759765625 672.740234375 573.750976562 770.979492188 638 c 1
 571.159179688 652.827148438 488.140625 556.375976562 493.25 451 c 0
 496.37109375 386.627929688 550.025390625 318.694335938 638.3828125 320.514648438 c 0
 740.219726562 322.614257812 793.26953125 368.969726562 837.044921875 461 c 1
 870.47265625 443 l 1
 842.967773438 369.970703125 766.731445312 273.24609375 620.8671875 280.3359375 c 0
 536.7265625 284.426757812 500.166992188 315.130859375 460.1328125 359 c 0
 434.26171875 386 414.099609375 422 407.647460938 467 c 0
 399.905273438 521 419.592773438 572 448.004882812 604 c 0
 502.401367188 664 590.104492188 687 673.104492188 687 c 0xe8
 721.104492188 687 768.821289062 682 795.393554688 678 c 1
 827.100585938 694 860.383789062 699 873.383789062 699 c 0
 904.383789062 699 931.916992188 693.470703125 931.276367188 674 c 0
 930.716796875 657 892.884765625 629 859.322265625 634 c 0
 849.555664062 635.455078125 836.653320312 629 825.3671875 631 c 1xd8
EndSplineSet
EndChar

StartChar: omacron
Encoding: 333 333 110
Width: 906
Flags: W
HStem: -224 38<162.801 238.418> 306.735 39.1104<433.118 618.625> 458 20G<698.36 754.326> 640 60<712.348 816.285> 648 39<478.358 667.127>
LayerCount: 2
Fore
SplineSet
149.994140625 -141 m 0xf0
 152.431640625 -158 170.752929688 -186 195.752929688 -186 c 0
 275.22265625 -186 330.600585938 -26.2119140625 359.6875 86 c 0
 383.935546875 179.548828125 404.712890625 268.248046875 435.381835938 350 c 0
 475.364257812 456.581054688 582.286132812 576.255859375 668.026367188 648 c 1
 597.13671875 649.896484375 524.6328125 653.0078125 463.918945312 623 c 0
 419.073242188 601 384.025390625 516 392.197265625 459 c 0
 402.70703125 385.709960938 433.118164062 342.116210938 511.435546875 345.845703125 c 0
 622.1484375 351.118164062 677.94140625 375.759765625 718.779296875 478 c 5
 754.326171875 464 l 1
 715.057617188 353.885742188 631.818359375 300.142578125 499.013671875 306.735351562 c 0
 421.918945312 310.5625 374.852539062 329.068359375 335.671875 372 c 0
 312.087890625 397 296.212890625 431 291.337890625 465 c 0
 278.86328125 552 335.1171875 613 398.098632812 648 c 0
 449.084960938 676 510.506835938 687 567.506835938 687 c 0xe8
 631.506835938 687 655.368164062 681 690.797851562 678 c 1
 718.786132812 699 748.874023438 700 765.874023438 700 c 0
 799.874023438 700 821.5546875 683.5 819.805664062 664 c 0
 816.844726562 631 758.25 640 745.25 640 c 0
 734.25 640 723.106445312 641 711.819335938 643 c 1
 670.16015625 606.388671875 627.411132812 448.326171875 593.057617188 350 c 0
 566.895507812 275.116210938 550.96484375 206.657226562 528.283203125 131 c 0
 476.530273438 -41.6240234375 356.401367188 -224 190.125976562 -224 c 0
 125.125976562 -224 68.931640625 -191.465820312 72.0791015625 -133 c 0
 80.8125 29.2666015625 251.434570312 58.5615234375 418.6875 108.700195312 c 0
 489.717773438 129.993164062 571.038085938 156.49609375 625.493164062 230 c 1
 654.618164062 205 l 1
 604.459960938 139.833984375 534.36328125 93.8466796875 436.295898438 69.927734375 c 0
 326.662109375 43.1865234375 134.189453125 -30.767578125 149.994140625 -141 c 0xf0
EndSplineSet
EndChar

StartChar: Obreve
Encoding: 334 334 111
Width: 1154
Flags: W
HStem: -18 39<188.401 315.754 752.215 825.739> 316 59<649.684 683.279> 382 39<328.256 429> 477 190G<450.234 487.913 775.92 819.147> 564 135<1003.64 1068.81> 660 39<322.682 476.632>
VStem: 78.1201 148.272<84.1875 177.857> 978.765 116.369<590.484 646.14>
LayerCount: 2
Fore
SplineSet
803.333984375 687 m 1xe7
 826.262695312 658 l 1
 717.44921875 573 687.6328125 473 649.68359375 375 c 1
 664.68359375 375 684.125 373 692.841796875 368 c 1
 717.12109375 380 747.8203125 410 790.922851562 486 c 0
 867.993164062 625 938.383789062 699 1010.38378906 699 c 0
 1061.38378906 699 1090.54492188 663 1095.13378906 631 c 0
 1100.58105469 593 1075.73925781 564 1038.73925781 564 c 0xeb
 1001.73925781 564 988.352539062 615 978.764648438 647 c 1
 912.889648438 511.868164062 902.124023438 380.291015625 748.287109375 337 c 1
 748.716796875 334 l 1
 786.583984375 314 810.029296875 283 814.760742188 250 c 0
 817.915039062 228 814.212890625 205 806.223632812 184 c 0
 787.819335938 138 735.415039062 92 738.856445312 68 c 0
 741.580078125 49 762.977539062 21 780.977539062 21 c 0
 809.977539062 21 865.57421875 56 933.376953125 162 c 1
 962.24609375 142 l 1
 904.013671875 39 840.186523438 -18 763.186523438 -18 c 0
 685.186523438 -18 638.165039062 24 630.708984375 76 c 0
 625.260742188 114 643.23828125 156 662.790039062 194 c 0
 677.775390625 222 691.6171875 251 686.885742188 284 c 0
 685.595703125 293 673.451171875 316 656.451171875 316 c 2
 636.626953125 318 l 1
 570.044921875 64 416.616210938 -21 274.616210938 -21 c 0
 162.616210938 -21 88.8740234375 33 78.1201171875 108 c 0
 70.9521484375 158 101.786132812 201 148.786132812 201 c 0
 192.786132812 201 221.517578125 168 226.392578125 134 c 0
 231.34375 99.4697265625 204.336914062 68.8837890625 158.286132812 65 c 5
 171.436523438 50 206.331054688 18 251.331054688 18 c 0
 337.331054688 18 391.830078125 117 429.0625 220 c 0
 489.0234375 386.481445312 557.943359375 473.018554688 679.385742188 596 c 1
 537.161132812 582 500.668945312 660 376.668945312 660 c 0xe7
 323.668945312 660 270.143554688 610 280.75390625 536 c 0
 288.06640625 485 322.548828125 421 372.548828125 421 c 0
 406.548828125 421 437.102539062 437 463.366210938 477 c 1xf3
 490.368164062 455 l 1
 465.533203125 412 428.833984375 382 366.833984375 382 c 0
 269.833984375 382 202.801757812 445 190.041015625 534 c 0
 178.571289062 614 249.383789062 699 371.383789062 699 c 0
 421.383789062 699 490.383789062 699 556.544921875 663 c 0
 594.413085938 643 624.416992188 636 639.416992188 636 c 0
 676.416992188 636 748.505859375 630 803.333984375 687 c 1xe7
EndSplineSet
EndChar

StartChar: obreve
Encoding: 335 335 112
Width: 1036
Flags: W
HStem: -17 40<183.037 316.477 464.463 673.234> 105 39<178.189 292.161> 616 21G<580.187 628.206> 640 39<813.516 875.086> 663 36<367.313 547.805>
LayerCount: 2
Fore
SplineSet
132.606445312 0 m 1024,0,-1
851.536132812 640 m 0,1,-1
 779.837890625 640 743.116210938 472.8671875 713.658203125 362 c 0,4,-1
 667.96875 190.051757812 569.110351562 95.2744140625 437.5546875 25.2939453125 c 0,7,-1
 384.462890625 -2.947265625 330.1953125 -17 243.043945312 -17 c 0,10,-1
 195.043945312 -17 159.469726562 -13 132.606445312 0 c 0,13,-1
 102.598632812 14 83.1572265625 38 79.859375 61 c 0,16,-1
 76.2744140625 86 90.1201171875 108 114.969726562 123 c 0,19,-1
 138.962890625 137 171.958984375 144 211.958984375 144 c 0,22,-1
 301.879882812 144 374.826171875 101.6796875 440.065429688 65.4248046875 c 0,25,-1
 468.75 49.4833984375 526.999023438 18 560.869140625 18 c 0,28,-1
 647.869140625 18 753.977539062 65 831.352539062 167 c 1,31,-1
 861.24609375 142 l 1,32,-1
 783.017578125 32 683.616210938 -21 573.616210938 -21 c 0,35,-1
 466.26953125 -21 426.229492188 10.8125 374.250976562 44.6826171875 c 0,38,-1
 330.950195312 72.8974609375 261.46484375 105 212.244140625 105 c 0,41,-1
 199.244140625 105 167.561523438 84 169.999023438 67 c 0,44,-1
 172.866210938 47 193.844726562 23 236.844726562 23 c 0,47,-1
 291.004882812 23 334.258789062 52.1279296875 372.456054688 69.888671875 c 0,50,-1
 452.21875 106.974609375 493.26171875 199.694335938 542.067382812 340 c 0,53,-1
 564.669921875 404.978515625 581.43359375 453.924804688 612.1953125 512 c 0,56,-1
 655.01171875 590 759.250976562 679 856.250976562 679 c 0,59,-1
 934.250976562 679 971.555664062 642 978.725585938 592 c 0,62,-1
 994.874023438 479.370117188 821.567382812 332.71484375 617.627929688 311.892578125 c 0,65,-1
 428.5078125 292.581054688 199.833984375 326.20703125 173.912109375 507 c 0,68,-1
 158.426757812 615 272.383789062 699 433.383789062 699 c 0,71,-1
 483.383789062 699 559.530273438 691 633.696289062 648 c 1,74,-1
 619.0546875 616 l 1,75,-1
 541.319335938 656 478.931640625 663 447.931640625 663 c 0,78,-1
 350.931640625 663 262.0078125 597 275.485351562 503 c 0,81,-1
 293.479492188 377.502929688 464.670898438 322.682617188 631.814453125 348.307617188 c 4,84,-1
 758.364257812 367.70703125 906.325195312 462.26953125 888.01171875 590 c 0,87,-1
 884.713867188 613 867.536132812 640 851.536132812 640 c 0,1,-1
EndSplineSet
EndChar

StartChar: Ohungarumlaut
Encoding: 336 336 113
Width: 1300
Flags: W
HStem: -18 39<184.634 307.206 977.492 1038.54> 55 133<168.182 218.959> 679 20G<817.384 860.884 1114.88 1153.88> 679 20G<817.384 860.884 1114.88 1153.88>
VStem: 94.6982 150.988<67.2884 161.625>
LayerCount: 2
Fore
SplineSet
1201.53027344 691 m 1xe8
 1214.96777344 674 l 1
 1060.69921875 369 959.965820312 130 968.856445312 68 c 0
 971.580078125 49 978.977539062 21 996.977539062 21 c 0
 1031.97753906 21 1089.81738281 79 1148.48242188 172 c 1
 1161.39355469 161.517578125 1180.40722656 150 1180.40722656 150 c 1
 1114.171875 54 1069.18652344 -18 986.186523438 -18 c 0
 909.186523438 -18 840.741210938 13 831.565429688 77 c 0
 816.034179688 185.3203125 919.030273438 382.88671875 1064.80273438 636 c 1
 983.692382812 574 902.124023438 461 812.09375 245 c 0
 776.28125 160 754.701171875 90 719.436523438 50 c 0
 687.598632812 14 654.178710938 -4 603.178710938 -4 c 0
 561.178710938 -4 503.734375 27 497.282226562 72 c 0
 492.694335938 104 496.529296875 147 512.93359375 193 c 0
 571.927734375 361.493164062 674.325195312 507.194335938 743.79296875 635 c 1
 654.686523438 566 589.203125 483 521.279296875 336 c 0
 467.912109375 220 420.147460938 125 379.5078125 64 c 0
 350.7578125 20.8466796875 309.616210938 -21 252.616210938 -21 c 0
 170.616210938 -21 105.451171875 22 94.6982421875 97 c 0
 87.3857421875 148 118.650390625 188 165.650390625 188 c 0
 209.650390625 188 240.811523438 152 245.686523438 118 c 0
 252 73.9658203125 224.13671875 52.6376953125 168.181640625 55 c 1
 183.76171875 37 211.331054688 18 254.331054688 18 c 0
 320.331054688 18 352 92.8671875 436.896484375 263 c 0
 512.24609375 414 574.314453125 516 632.708007812 583 c 0
 706.376953125 669 781.383789062 699 853.383789062 699 c 0
 868.383789062 699 877.670898438 697 891.530273438 691 c 1
 903.967773438 674 l 1
 791.0703125 478 673.05078125 241 641.962890625 137 c 0
 637.734375 123.413085938 618.563476562 48 643.260742188 48 c 0
 686.260742188 48 752.49609375 210 770.7578125 257 c 0
 818.978515625 381 890.055664062 506 961.868164062 591 c 0
 1017.40527344 657 1081.38378906 699 1148.38378906 699 c 0
 1159.38378906 699 1188.52636719 698 1201.53027344 691 c 1xe8
EndSplineSet
EndChar

StartChar: ohungarumlaut
Encoding: 337 337 114
Width: 1095
Flags: W
HStem: -21 39<184.113 285.036> -13 21G<598.47 705.882> 564 135<939.633 1027.03> 674 20G<661.319 703.695>
VStem: 85.5547 154.275<71.6406 161.921>
LayerCount: 2
Fore
SplineSet
728.514648438 175 m 1x98
 725.139648438 125 l 1
 755.971679688 175 794.275390625 282.28515625 808.857421875 340 c 0
 834.375 441 846.317382812 597 902.422851562 666 c 0
 924.409179688 694 936.383789062 699 977.383789062 699 c 0
 1025.38378906 699 1041.54492188 663 1046.13378906 631 c 0
 1051.58105469 593 1024.73925781 564 989.739257812 564 c 0
 955.115234375 564 933.47265625 586.2109375 919.197265625 615 c 1
 887.502929688 578 876.25390625 422 836.61328125 280 c 0
 805.385742188 170 743.293945312 51 668.469726562 -13 c 1
 598.469726562 -13 l 1x68
 601.999023438 67 585.952148438 158 570.021484375 297 c 0
 561.4765625 374.662109375 567.975585938 477.581054688 571.482421875 561 c 1
 543.655273438 504 501.400390625 392 479.43359375 329 c 0
 438.208984375 212 398.671875 109 359.552734375 61 c 0
 323.005859375 16 283.616210938 -21 234.616210938 -21 c 0
 160.616210938 -21 96.1650390625 24 85.5546875 98 c 0
 79.5322265625 140 107.650390625 188 158.650390625 188 c 0
 205.650390625 188 234.668945312 153 239.830078125 117 c 0
 244.883789062 81.7490234375 210.552734375 51.7509765625 159.125976562 57 c 5
 165.559570312 47 207.331054688 18 232.331054688 18 c 0
 311.331054688 18 363.415039062 129 434.169921875 326 c 0
 483.383789062 464 520.166015625 568 567.850585938 626 c 0
 592.405273438 657 644.538085938 677 678.100585938 694 c 1
 706.254882812 672 l 1
 694.997070312 618 712.203125 498 720.837890625 375 c 0
 725.587890625 307 728.771484375 229 728.514648438 175 c 1x98
EndSplineSet
EndChar

StartChar: OE
Encoding: 338 338 115
Width: 809
Flags: W
HStem: -21 39<292.233 431.384> 525 39<457.65 539.423> 553 21G<677.811 717.026> 662 37<445.072 597.12>
VStem: 684.316 32.71<560.074 587.196>
LayerCount: 2
Fore
SplineSet
717.026367188 562 m 1xd8
 684.31640625 553 l 1xb8
 671.305664062 618 582.84375 662 523.84375 662 c 0
 344.84375 662 195.6796875 404 229.234375 163 c 0
 238.698242188 97 276.331054688 18 347.331054688 18 c 0
 395.331054688 18 425.198242188 29.9248046875 454.271484375 49 c 0
 544.197265625 108 612.05078125 241 593.268554688 372 c 0
 582.9453125 444 550.333984375 525 501.333984375 525 c 0
 443.333984375 525 404.522460938 433 414.98828125 360 c 0
 419.577148438 328 425.30859375 295 447.609375 265 c 1
 417.764648438 243 l 1
 374.591796875 300 367 339 362.69921875 369 c 0
 346.926757812 479 410.739257812 564 516.739257812 564 c 0
 592.739257812 564 680.625 509 697.400390625 392 c 0
 723.49609375 210 571.616210938 -21 334.616210938 -21 c 0
 200.616210938 -21 93.138671875 73 76.36328125 190 c 0
 37.078125 464 243.383789062 699 508.383789062 699 c 0
 616.383789062 699 700.559570312 635 717.026367188 562 c 1xd8
EndSplineSet
EndChar

StartChar: oe
Encoding: 339 339 116
Width: 1025
Flags: W
HStem: -21 38<211.935 351.828> 266 39<296.004 415.779> 274 39<789.94 848.628> 509 20G<472.795 525.504 838.355 873.087> 660 39<426.305 667.762>
VStem: 87.9775 145.415<78.6432 176.816> 472.795 43.9629<362.012 518>
LayerCount: 2
Fore
SplineSet
981.662109375 439 m 0xde
 994.853515625 347 939.3203125 274 833.3203125 274 c 0
 788.3203125 274 735.017578125 304 727.705078125 355 c 0
 722.974609375 388 733.8203125 410 747.525390625 426 c 1
 780.153320312 405 l 1
 770.161132812 391 773.5546875 370 774.845703125 361 c 0
 778 339 805.034179688 313 818.034179688 313 c 0xbe
 854.034179688 313 875.412109375 371 867.095703125 429 c 0
 856.173828125 505.171875 818.5234375 566.306640625 757.0859375 602.877929688 c 0
 707.083984375 632.641601562 618 660 556.668945312 660 c 0
 359.668945312 660 223.463867188 545 241.529296875 419 c 0
 249.98828125 360 296.180664062 305 346.180664062 305 c 0
 420.180664062 305 489.276367188 351 472.794921875 518 c 1
 516.7578125 529 l 1
 534.25 407 499.466796875 266 344.466796875 266 c 0
 249.466796875 266 164.580078125 321 149.956054688 423 c 0
 137.625 509 190.0078125 597 292.551757812 649 c 0
 356.821289062 682 441.383789062 699 540.383789062 699 c 0
 634.672851562 699 731.40234375 676.556640625 804.4609375 641.447265625 c 0
 894.750976562 598.056640625 969.190429688 525.98046875 981.662109375 439 c 0xde
672.30859375 295 m 0
 582.002929688 60 455.616210938 -21 291.616210938 -21 c 0
 175.616210938 -21 98.7314453125 34 87.9775390625 109 c 0
 80.80859375 159 108.786132812 201 155.786132812 201 c 0
 199.786132812 201 228.517578125 168 233.392578125 134 c 0
 238.485351562 98.4873046875 218.578125 68.4130859375 171.286132812 65 c 5
 192.440429688 43 237.244140625 17 272.244140625 17 c 0
 386.244140625 17 420.418945312 85 501.171875 282 c 0
 566.930664062 443.03515625 633.5625 556.157226562 738.784179688 633.719726562 c 0
 775.681640625 660.91796875 814.184570312 681.077148438 862.526367188 698 c 1
 877.83984375 669 l 1
 843.564453125 653.348632812 821 628.954101562 796.139648438 606 c 0
 712.452148438 528.728515625 715.115234375 406.786132812 672.30859375 295 c 0
EndSplineSet
EndChar

StartChar: Racute
Encoding: 340 340 117
Width: 809
Flags: W
HStem: -207.98 45.9805<567.679 669.016> -21 37<177.119 425.241> 524 40<454.662 539.996> 552 21G<677.887 721.627> 660 39<449.625 596.661>
VStem: 690.83 30.7969<559.727 574.943>
LayerCount: 2
Fore
SplineSet
210.779296875 -25 m 0xcc
 186.779296875 -25 146.916992188 -63 116.788085938 -90 c 1
 94.9150390625 -63 l 1
 128.384765625 -20.6640625 179.52734375 16 225.973632812 16 c 3
 286.5390625 16 395.6953125 2.8330078125 451.40625 -35.59765625 c 0
 526.8046875 -87.609375 561.009765625 -162 622.876953125 -162 c 0
 641.876953125 -162 691.720703125 -133 723.069335938 -85 c 1
 748.907226562 -108 l 1
 707.826171875 -174.41796875 662.533203125 -207.98046875 569.999023438 -207.98046875 c 4
 503.458007812 -207.98046875 434.96484375 -184.091796875 384.638671875 -135.806640625 c 0
 329.392578125 -82.7998046875 278.35546875 -25 210.779296875 -25 c 0xcc
339.217773438 -21 m 0
 205.217773438 -21 101.739257812 73 84.96484375 190 c 0
 45.6787109375 464 247.983398438 699 512.983398438 699 c 0
 620.983398438 699 705.161132812 635 721.626953125 562 c 1
 690.830078125 552 l 1xdc
 664.944335938 607 587.26953125 660 528.26953125 660 c 0
 349.26953125 660 200.28125 404 233.8359375 163 c 0
 243.298828125 97 280.931640625 18 351.931640625 18 c 0
 426.930664062 18 463.93359375 59.1328125 504.935546875 96.185546875 c 0
 573.416992188 158.069335938 614.2421875 257.810546875 597.869140625 372 c 0
 587.545898438 444 552.846679688 524 495.846679688 524 c 0
 435.846679688 524 410.8359375 435 418.15625 370 c 0
 422.123046875 334.77734375 431.930664062 297 452.514648438 272 c 1
 421.931640625 253 l 1
 390.196289062 293 372.03125 336 366.15234375 377 c 0
 351.958007812 476 409.340820312 564 521.340820312 564 c 0xec
 597.340820312 564 685.2265625 509 702.001953125 392 c 0
 720.663085938 261.841796875 645.276367188 122.385742188 540.46875 45.1298828125 c 0
 487.961914062 6.42578125 422.279296875 -21 339.217773438 -21 c 0
EndSplineSet
EndChar

StartChar: racute
Encoding: 341 341 118
Width: 1048
Flags: W
HStem: -18 39<207.893 360.692 795.446 863.109> 266 39<296.35 406.934> 304 53<690.13 724.335> 520 158G<467.048 514.794 838.112 869.713> 660 39<428.417 678.202>
VStem: 87.9775 145.415<79.3313 176.816> 467.048 39<377.028 520>
LayerCount: 2
Fore
SplineSet
796.266601562 313 m 1xce
 796.640625 312 l 1
 827.51171875 285 841.040039062 262 846.05859375 227 c 0
 853.37109375 176 793.447265625 109.052734375 789.856445312 68 c 0
 788.192382812 48.990234375 797.977539062 21 815.977539062 21 c 0
 844.977539062 21 900.224609375 52 970.02734375 158 c 1
 1001.24609375 142 l 1
 943.013671875 39 885.186523438 -18 800.186523438 -18 c 0
 722.186523438 -18 666.012695312 23.556640625 660.708984375 76 c 0
 653.529296875 147 734.227539062 221 726.198242188 277 c 0
 724.333984375 290 717.61328125 302 708.326171875 304 c 0
 695.326171875 304 683.041015625 306 677.609375 309 c 1
 590.874023438 77 456.616210938 -21 291.616210938 -21 c 0
 175.616210938 -21 98.7314453125 34 87.9775390625 109 c 0
 80.80859375 159 108.786132812 201 155.786132812 201 c 0
 199.786132812 201 228.517578125 168 233.392578125 134 c 0
 238.396484375 99.1015625 211.612304688 59.462890625 165.723632812 70 c 1
 186.877929688 48 240.418945312 19 275.418945312 19 c 0
 389.418945312 19 420.418945312 85 501.171875 282 c 0
 568.239257812 446.525390625 632.096679688 554.142578125 739.765625 633.5078125 c 0
 776.833007812 660.831054688 813.697265625 679.93359375 862.526367188 698 c 1
 873.665039062 667 l 1
 841.703125 652.405273438 813.48046875 622.032226562 790.03515625 600 c 0
 723.682617188 537.647460938 718.377929688 445.232421875 690.111328125 357 c 1
 712.111328125 357 735.11328125 350 754.69140625 339 c 1
 804.400390625 348 840.956054688 423 832.640625 481 c 0
 825.208984375 532.833007812 793.407226562 585.450195312 748.848632812 611.59375 c 0
 698.874023438 640.915039062 617.338867188 660 556.668945312 660 c 0xae
 359.668945312 660 224.463867188 545 242.529296875 419 c 0
 250.98828125 360 298.180664062 305 346.180664062 305 c 0
 390.180664062 305 427.422851562 328 450.6796875 382 c 0
 465.091796875 414 472.220703125 463 467.047851562 520 c 1
 506.047851562 520 l 1xd6
 523.541015625 398 497.466796875 266 342.466796875 266 c 0
 252.466796875 266 159.294921875 323 144.956054688 423 c 0
 132.625 509 190.151367188 596 292.696289062 648 c 0
 356.963867188 681 441.383789062 699 540.383789062 699 c 0
 632.1328125 699 727.696289062 678.337890625 799.662109375 643.752929688 c 0
 874.533203125 607.772460938 944.661132812 550.598632812 955.357421875 476 c 0
 968.69140625 383 888.119140625 321 796.266601562 313 c 1xce
EndSplineSet
EndChar

StartChar: uni0156
Encoding: 342 342 119
Width: 816
Flags: W
HStem: -21 39<302.619 435.396> 264 42<248.848 348.786> 426 33<567.525 623.698> 660 39<501.305 613.319>
VStem: 425.665 40.4414<132.538 165.803>
LayerCount: 2
Fore
SplineSet
466.106445312 136 m 1
 425.665039062 116 l 1
 393.1796875 224 337.754882812 264 294.754882812 264 c 0
 240.754882812 264 215.073242188 199 222.2421875 149 c 0
 229.267578125 100 286.331054688 18 363.331054688 18 c 0
 445.331054688 18 520.2265625 82.814453125 500.359375 197 c 0
 487.658203125 270 313.422851562 350 294.497070312 482 c 0
 273.276367188 630 435.383789062 699 554.383789062 699 c 0
 631.383789062 699 739.114257812 666 751.875976562 577 c 0
 764.349609375 490 658.525390625 426 567.525390625 426 c 1
 559.870117188 459 l 1
 649.153320312 464 667.625 509 658.736328125 571 c 0
 651.567382812 621 603.668945312 660 562.668945312 660 c 0
 495.668945312 660 420.104492188 590.583984375 434.62890625 502 c 0
 446.92578125 427 627.42578125 343 646.49609375 210 c 0
 666.569335938 70 535.616210938 -21 366.616210938 -21 c 0
 245.616210938 -21 120.448242188 29 103.529296875 147 c 0
 88.6171875 251 183.731445312 306 279.731445312 306 c 0
 367.731445312 306 435.7578125 257 466.106445312 136 c 1
EndSplineSet
EndChar

StartChar: uni0157
Encoding: 343 343 120
Width: 1030
Flags: W
HStem: -21 39<216.265 355.186> 325 39<290.299 407.552> 549 130G<473.635 516.786 642.407 703.599 927.176 963.093> 565 96<647.32 856.63> 660 39<321.585 498.803>
VStem: 98.1201 148.272<80.9238 177.857> 483.891 32.8955<480.253 539>
LayerCount: 2
Fore
SplineSet
947.383789062 699 m 1xce
 967.805664062 673 l 1
 918.831054688 624 851.442382812 565 773.442382812 565 c 0xd6
 621.442382812 565 511.668945312 660 407.668945312 660 c 0xce
 291.668945312 660 219.592773438 572 231.779296875 487 c 0
 242.533203125 412 293.721679688 364 346.721679688 364 c 0
 425.721679688 364 463.37890625 434 483.890625 549 c 1xe6
 516.786132812 539 l 1
 510.286132812 403 451.0078125 325 354.0078125 325 c 0
 314.0078125 325 273.291015625 330 238.853515625 347 c 0
 188.268554688 372 142.672851562 418 133.783203125 480 c 0
 123.31640625 553 167.709960938 620 234.262695312 658 c 0
 289.673828125 690 366.383789062 699 457.383789062 699 c 0xce
 568.383789062 699 702.831054688 661 808.831054688 661 c 0xd6
 842.831054688 661 906.967773438 674 947.383789062 699 c 1xce
686.599609375 558 m 1
 709.548828125 531 l 1
 669.724609375 467 683.13671875 352 658.609375 265 c 0
 639.840820312 198.423828125 613.24609375 142 574.698242188 97 c 0
 502.741210938 13 391.616210938 -21 295.616210938 -21 c 0
 178.616210938 -21 108.874023438 33 98.1201171875 108 c 0
 90.9521484375 158 121.786132812 201 168.786132812 201 c 0
 212.786132812 201 241.517578125 168 246.392578125 134 c 0
 251.875976562 95.7607421875 227.358398438 67.6552734375 177.286132812 65 c 5
 190.436523438 50 236.331054688 18 281.331054688 18 c 0
 373.331054688 18 429.274414062 86 491.327148438 260 c 0
 559.084960938 450 598.213867188 477 686.599609375 558 c 1
EndSplineSet
EndChar

StartChar: Rcaron
Encoding: 344 344 121
Width: 964
Flags: W
HStem: -18 39<309.116 413.932 619.291 713.517> 355 39<155.956 240.577> 649 20G<281.14 325.234 713.407 871.685> 660 39<216.251 355.596>
VStem: 288.908 36.3262<459.449 503.505>
LayerCount: 2
Fore
SplineSet
871.684570312 669 m 1xe8
 648.407226562 106 l 2
 644.840820312 96 642.848632812 82 644.569335938 70 c 0
 646.86328125 54 652.977539062 21 669.977539062 21 c 0
 698.977539062 21 747.5078125 57 810.600585938 154 c 1
 847.819335938 138 l 1
 816.278320312 79 787.153320312 45 753.024414062 18 c 0
 721.609375 -7 690.186523438 -18 654.186523438 -18 c 0
 587.186523438 -18 529.028320312 11 508.856445312 68 c 1
 507.856445312 68 l 1
 461.891601562 -2 408.616210938 -21 340.616210938 -21 c 0
 277.616210938 -21 218.598632812 14 209.852539062 75 c 0
 204.690429688 111 218.381835938 155 264.333984375 246 c 2
 389.357421875 476 l 2
 405.055664062 506 410.467773438 538 406.596679688 565 c 0
 400.143554688 610 358.668945312 660 290.668945312 660 c 0
 193.668945312 660 113.305664062 574 126.783203125 480 c 0
 132.662109375 439 159.419921875 394 191.419921875 394 c 0
 248.419921875 394 273.37109375 448 288.908203125 514 c 1
 325.234375 501 l 1
 314.840820312 434 278.705078125 355 193.705078125 355 c 0
 160.705078125 355 128.703125 362 103.6953125 376 c 0
 65.541015625 398 36.091796875 436 29.783203125 480 c 0
 11.2880859375 609 147.383789062 699 290.383789062 699 c 0xd8
 395.383789062 699 519.551757812 649 534.176757812 547 c 0
 538.765625 515 523.07421875 471 498.529296875 419 c 2
 360.252929688 128 l 2
 353.973632812 116 342.418945312 85 345.859375 61 c 0
 348.583007812 42 357.244140625 17 375.244140625 17 c 0
 402.244140625 17 430.78515625 58.2548828125 457.267578125 100 c 0
 514.36328125 190 587.99609375 346 613.25 407 c 2
 721.684570312 669 l 1
 871.684570312 669 l 1xe8
EndSplineSet
EndChar

